G04*
G04 #@! TF.GenerationSoftware,Altium Limited,Altium Designer,18.1.9 (240)*
G04*
G04 Layer_Color=32896*
%FSLAX25Y25*%
%MOIN*%
G70*
G01*
G75*
%ADD10C,0.01000*%
%ADD11C,0.00400*%
%ADD12C,0.00787*%
%ADD14C,0.00600*%
%ADD66C,0.00984*%
G36*
X443500Y259121D02*
Y259010D01*
X443494Y258904D01*
X443489Y258804D01*
X443478Y258710D01*
X443467Y258627D01*
X443456Y258549D01*
X443439Y258477D01*
X443428Y258410D01*
X443417Y258349D01*
X443400Y258299D01*
X443389Y258255D01*
X443378Y258222D01*
X443367Y258194D01*
X443361Y258172D01*
X443356Y258160D01*
Y258155D01*
X443295Y258033D01*
X443217Y257922D01*
X443139Y257833D01*
X443056Y257755D01*
X442984Y257694D01*
X442923Y257650D01*
X442901Y257639D01*
X442884Y257628D01*
X442873Y257617D01*
X442867D01*
X442729Y257556D01*
X442584Y257511D01*
X442434Y257478D01*
X442296Y257456D01*
X442235Y257450D01*
X442173Y257445D01*
X442118Y257439D01*
X442074D01*
X442035Y257433D01*
X441985D01*
X441785Y257445D01*
X441696Y257456D01*
X441613Y257467D01*
X441530Y257483D01*
X441458Y257500D01*
X441391Y257517D01*
X441330Y257539D01*
X441274Y257561D01*
X441230Y257578D01*
X441186Y257594D01*
X441152Y257611D01*
X441125Y257628D01*
X441108Y257633D01*
X441097Y257644D01*
X441091D01*
X440969Y257728D01*
X440869Y257822D01*
X440792Y257911D01*
X440725Y257999D01*
X440675Y258077D01*
X440642Y258138D01*
X440631Y258160D01*
X440620Y258177D01*
X440614Y258188D01*
Y258194D01*
X440592Y258260D01*
X440570Y258332D01*
X440536Y258482D01*
X440514Y258638D01*
X440497Y258788D01*
X440492Y258854D01*
X440486Y258921D01*
Y258976D01*
X440481Y259026D01*
Y259065D01*
Y259093D01*
Y259115D01*
Y259121D01*
Y261341D01*
X440991D01*
Y259121D01*
Y258993D01*
X441003Y258871D01*
X441014Y258765D01*
X441030Y258665D01*
X441047Y258577D01*
X441069Y258493D01*
X441086Y258421D01*
X441108Y258360D01*
X441130Y258310D01*
X441152Y258260D01*
X441175Y258227D01*
X441191Y258194D01*
X441208Y258172D01*
X441219Y258155D01*
X441224Y258149D01*
X441230Y258144D01*
X441280Y258099D01*
X441335Y258061D01*
X441458Y257999D01*
X441585Y257955D01*
X441718Y257927D01*
X441841Y257905D01*
X441890Y257900D01*
X441940D01*
X441974Y257894D01*
X442029D01*
X442146Y257900D01*
X442251Y257916D01*
X442351Y257933D01*
X442429Y257961D01*
X442495Y257983D01*
X442545Y257999D01*
X442573Y258016D01*
X442584Y258022D01*
X442662Y258072D01*
X442729Y258133D01*
X442784Y258194D01*
X442823Y258249D01*
X442856Y258305D01*
X442884Y258344D01*
X442895Y258371D01*
X442901Y258383D01*
X442917Y258432D01*
X442928Y258482D01*
X442951Y258599D01*
X442967Y258721D01*
X442978Y258843D01*
X442984Y258948D01*
Y258998D01*
X442989Y259037D01*
Y259071D01*
Y259098D01*
Y259115D01*
Y259121D01*
Y261341D01*
X443500D01*
Y259121D01*
D02*
G37*
G36*
X438666Y261352D02*
X438755Y261346D01*
X438910Y261313D01*
X438982Y261291D01*
X439049Y261268D01*
X439110Y261241D01*
X439165Y261213D01*
X439210Y261185D01*
X439254Y261157D01*
X439293Y261135D01*
X439321Y261113D01*
X439343Y261096D01*
X439360Y261080D01*
X439371Y261074D01*
X439376Y261069D01*
X439426Y261013D01*
X439476Y260958D01*
X439515Y260897D01*
X439548Y260836D01*
X439604Y260719D01*
X439637Y260608D01*
X439659Y260514D01*
X439665Y260469D01*
X439671Y260436D01*
X439676Y260403D01*
Y260381D01*
Y260369D01*
Y260364D01*
X439671Y260264D01*
X439654Y260170D01*
X439632Y260086D01*
X439604Y260014D01*
X439582Y259959D01*
X439560Y259914D01*
X439543Y259892D01*
X439537Y259881D01*
X439476Y259814D01*
X439410Y259753D01*
X439337Y259698D01*
X439265Y259653D01*
X439199Y259620D01*
X439149Y259598D01*
X439127Y259587D01*
X439110Y259581D01*
X439104Y259576D01*
X439099D01*
X439226Y259537D01*
X439332Y259487D01*
X439426Y259426D01*
X439504Y259370D01*
X439565Y259315D01*
X439609Y259270D01*
X439632Y259243D01*
X439643Y259237D01*
Y259232D01*
X439704Y259132D01*
X439754Y259026D01*
X439787Y258926D01*
X439809Y258826D01*
X439820Y258738D01*
X439826Y258699D01*
Y258665D01*
X439831Y258643D01*
Y258621D01*
Y258610D01*
Y258604D01*
X439826Y258516D01*
X439815Y258427D01*
X439798Y258344D01*
X439776Y258260D01*
X439720Y258122D01*
X439693Y258055D01*
X439659Y257999D01*
X439626Y257944D01*
X439598Y257900D01*
X439565Y257861D01*
X439543Y257827D01*
X439521Y257800D01*
X439504Y257783D01*
X439493Y257772D01*
X439487Y257766D01*
X439421Y257705D01*
X439349Y257655D01*
X439271Y257611D01*
X439193Y257572D01*
X439121Y257544D01*
X439043Y257517D01*
X438894Y257478D01*
X438827Y257461D01*
X438766Y257450D01*
X438710Y257445D01*
X438660Y257439D01*
X438622Y257433D01*
X438566D01*
X438461Y257439D01*
X438366Y257450D01*
X438272Y257467D01*
X438183Y257483D01*
X438105Y257511D01*
X438028Y257539D01*
X437956Y257567D01*
X437894Y257600D01*
X437839Y257633D01*
X437789Y257661D01*
X437750Y257689D01*
X437711Y257716D01*
X437684Y257733D01*
X437667Y257750D01*
X437656Y257761D01*
X437650Y257766D01*
X437589Y257833D01*
X437534Y257900D01*
X437489Y257966D01*
X437451Y258038D01*
X437412Y258105D01*
X437384Y258177D01*
X437345Y258305D01*
X437328Y258366D01*
X437317Y258421D01*
X437312Y258471D01*
X437306Y258510D01*
X437301Y258543D01*
Y258571D01*
Y258588D01*
Y258593D01*
X437306Y258721D01*
X437328Y258838D01*
X437362Y258943D01*
X437395Y259032D01*
X437428Y259104D01*
X437462Y259159D01*
X437484Y259193D01*
X437489Y259198D01*
Y259204D01*
X437567Y259293D01*
X437650Y259370D01*
X437739Y259431D01*
X437822Y259487D01*
X437900Y259526D01*
X437967Y259554D01*
X437989Y259565D01*
X438005Y259570D01*
X438017Y259576D01*
X438022D01*
X437922Y259620D01*
X437839Y259670D01*
X437767Y259720D01*
X437706Y259770D01*
X437661Y259814D01*
X437628Y259848D01*
X437606Y259870D01*
X437600Y259881D01*
X437550Y259959D01*
X437517Y260036D01*
X437489Y260114D01*
X437473Y260192D01*
X437462Y260253D01*
X437456Y260303D01*
Y260336D01*
Y260342D01*
Y260347D01*
X437462Y260425D01*
X437467Y260497D01*
X437506Y260636D01*
X437556Y260758D01*
X437611Y260863D01*
X437667Y260946D01*
X437695Y260980D01*
X437717Y261013D01*
X437739Y261035D01*
X437756Y261052D01*
X437761Y261057D01*
X437767Y261063D01*
X437828Y261113D01*
X437889Y261163D01*
X437956Y261202D01*
X438022Y261235D01*
X438155Y261285D01*
X438289Y261318D01*
X438344Y261335D01*
X438400Y261341D01*
X438449Y261346D01*
X438494Y261352D01*
X438527Y261357D01*
X438577D01*
X438666Y261352D01*
D02*
G37*
G36*
X380297Y232346D02*
X380447Y232318D01*
X380574Y232274D01*
X380685Y232230D01*
X380735Y232202D01*
X380774Y232180D01*
X380813Y232157D01*
X380840Y232135D01*
X380863Y232119D01*
X380879Y232107D01*
X380890Y232102D01*
X380896Y232096D01*
X381001Y231991D01*
X381085Y231874D01*
X381151Y231752D01*
X381207Y231630D01*
X381240Y231525D01*
X381257Y231480D01*
X381268Y231441D01*
X381273Y231408D01*
X381279Y231386D01*
X381284Y231369D01*
Y231364D01*
X380813Y231280D01*
X380790Y231403D01*
X380757Y231508D01*
X380718Y231597D01*
X380680Y231669D01*
X380641Y231725D01*
X380607Y231763D01*
X380585Y231791D01*
X380580Y231797D01*
X380507Y231852D01*
X380430Y231897D01*
X380358Y231924D01*
X380286Y231946D01*
X380219Y231958D01*
X380169Y231969D01*
X380124D01*
X380025Y231963D01*
X379936Y231941D01*
X379858Y231913D01*
X379792Y231886D01*
X379742Y231852D01*
X379703Y231824D01*
X379675Y231802D01*
X379669Y231797D01*
X379608Y231730D01*
X379564Y231658D01*
X379536Y231586D01*
X379514Y231519D01*
X379503Y231458D01*
X379492Y231414D01*
Y231381D01*
Y231375D01*
Y231369D01*
Y231308D01*
X379503Y231253D01*
X379531Y231158D01*
X379570Y231075D01*
X379614Y231003D01*
X379658Y230953D01*
X379697Y230914D01*
X379725Y230892D01*
X379731Y230887D01*
X379736D01*
X379830Y230837D01*
X379919Y230798D01*
X380013Y230770D01*
X380097Y230753D01*
X380169Y230742D01*
X380230Y230731D01*
X380302D01*
X380324Y230737D01*
X380352D01*
X380408Y230320D01*
X380335Y230337D01*
X380269Y230348D01*
X380213Y230359D01*
X380163Y230365D01*
X380124Y230370D01*
X380075D01*
X379958Y230359D01*
X379853Y230337D01*
X379758Y230304D01*
X379680Y230265D01*
X379620Y230226D01*
X379575Y230193D01*
X379547Y230171D01*
X379536Y230159D01*
X379464Y230076D01*
X379409Y229987D01*
X379370Y229899D01*
X379348Y229810D01*
X379331Y229738D01*
X379325Y229677D01*
X379320Y229654D01*
Y229638D01*
Y229627D01*
Y229621D01*
X379331Y229499D01*
X379359Y229388D01*
X379392Y229294D01*
X379436Y229210D01*
X379481Y229144D01*
X379514Y229094D01*
X379542Y229061D01*
X379553Y229049D01*
X379642Y228972D01*
X379736Y228916D01*
X379830Y228877D01*
X379919Y228850D01*
X379997Y228833D01*
X380058Y228827D01*
X380080Y228822D01*
X380114D01*
X380213Y228827D01*
X380308Y228850D01*
X380391Y228877D01*
X380457Y228911D01*
X380513Y228939D01*
X380557Y228966D01*
X380580Y228988D01*
X380591Y228994D01*
X380657Y229072D01*
X380713Y229160D01*
X380763Y229255D01*
X380802Y229355D01*
X380829Y229438D01*
X380840Y229477D01*
X380846Y229510D01*
X380852Y229538D01*
X380857Y229560D01*
X380863Y229571D01*
Y229577D01*
X381334Y229516D01*
X381323Y229427D01*
X381307Y229344D01*
X381257Y229188D01*
X381196Y229055D01*
X381162Y228999D01*
X381129Y228944D01*
X381096Y228894D01*
X381063Y228855D01*
X381035Y228816D01*
X381007Y228789D01*
X380990Y228766D01*
X380974Y228750D01*
X380963Y228739D01*
X380957Y228733D01*
X380890Y228683D01*
X380824Y228633D01*
X380757Y228594D01*
X380685Y228561D01*
X380546Y228505D01*
X380413Y228472D01*
X380352Y228461D01*
X380297Y228450D01*
X380247Y228445D01*
X380202Y228439D01*
X380169Y228433D01*
X380119D01*
X380013Y228439D01*
X379919Y228450D01*
X379825Y228467D01*
X379736Y228489D01*
X379653Y228517D01*
X379581Y228544D01*
X379508Y228578D01*
X379447Y228611D01*
X379386Y228639D01*
X379337Y228672D01*
X379292Y228700D01*
X379259Y228728D01*
X379231Y228750D01*
X379209Y228766D01*
X379198Y228778D01*
X379192Y228783D01*
X379126Y228850D01*
X379070Y228922D01*
X379020Y228994D01*
X378976Y229066D01*
X378942Y229133D01*
X378909Y229205D01*
X378865Y229338D01*
X378854Y229399D01*
X378842Y229455D01*
X378831Y229505D01*
X378826Y229549D01*
X378820Y229582D01*
Y229610D01*
Y229627D01*
Y229632D01*
X378826Y229765D01*
X378848Y229888D01*
X378881Y229993D01*
X378915Y230082D01*
X378948Y230154D01*
X378981Y230209D01*
X379004Y230243D01*
X379009Y230254D01*
X379087Y230337D01*
X379170Y230409D01*
X379259Y230465D01*
X379348Y230509D01*
X379425Y230542D01*
X379486Y230565D01*
X379508Y230570D01*
X379525Y230576D01*
X379536Y230581D01*
X379542D01*
X379447Y230631D01*
X379370Y230681D01*
X379303Y230737D01*
X379248Y230787D01*
X379203Y230831D01*
X379170Y230870D01*
X379153Y230892D01*
X379148Y230903D01*
X379103Y230981D01*
X379070Y231059D01*
X379042Y231136D01*
X379026Y231208D01*
X379015Y231270D01*
X379009Y231314D01*
Y231347D01*
Y231358D01*
X379015Y231453D01*
X379031Y231547D01*
X379053Y231630D01*
X379081Y231702D01*
X379109Y231763D01*
X379131Y231813D01*
X379148Y231841D01*
X379153Y231852D01*
X379209Y231935D01*
X379275Y232008D01*
X379342Y232069D01*
X379409Y232124D01*
X379464Y232163D01*
X379514Y232196D01*
X379547Y232213D01*
X379553Y232219D01*
X379558D01*
X379658Y232263D01*
X379758Y232296D01*
X379858Y232324D01*
X379947Y232341D01*
X380019Y232352D01*
X380080Y232357D01*
X380219D01*
X380297Y232346D01*
D02*
G37*
G36*
X382911Y232263D02*
X382972Y232174D01*
X383044Y232085D01*
X383110Y232008D01*
X383177Y231941D01*
X383227Y231886D01*
X383249Y231869D01*
X383266Y231852D01*
X383271Y231847D01*
X383277Y231841D01*
X383394Y231747D01*
X383510Y231658D01*
X383621Y231580D01*
X383732Y231519D01*
X383826Y231464D01*
X383865Y231441D01*
X383898Y231425D01*
X383926Y231408D01*
X383948Y231403D01*
X383960Y231392D01*
X383965D01*
Y230937D01*
X383882Y230970D01*
X383799Y231009D01*
X383715Y231047D01*
X383638Y231086D01*
X383571Y231120D01*
X383516Y231147D01*
X383482Y231170D01*
X383477Y231175D01*
X383471D01*
X383371Y231236D01*
X383282Y231297D01*
X383205Y231353D01*
X383144Y231403D01*
X383088Y231441D01*
X383055Y231475D01*
X383027Y231497D01*
X383022Y231503D01*
Y228500D01*
X382550D01*
Y232357D01*
X382855D01*
X382911Y232263D01*
D02*
G37*
G36*
X388000Y228500D02*
X387489D01*
Y230204D01*
X386835D01*
X386773Y230198D01*
X386729D01*
X386690Y230193D01*
X386662Y230187D01*
X386640D01*
X386629Y230182D01*
X386624D01*
X386535Y230154D01*
X386496Y230137D01*
X386463Y230121D01*
X386429Y230104D01*
X386407Y230093D01*
X386396Y230087D01*
X386390Y230082D01*
X386346Y230048D01*
X386302Y230010D01*
X386218Y229926D01*
X386180Y229888D01*
X386152Y229854D01*
X386135Y229832D01*
X386130Y229826D01*
X386074Y229749D01*
X386013Y229665D01*
X385952Y229577D01*
X385891Y229493D01*
X385841Y229416D01*
X385802Y229355D01*
X385786Y229332D01*
X385774Y229316D01*
X385763Y229305D01*
Y229299D01*
X385258Y228500D01*
X384626D01*
X385286Y229543D01*
X385364Y229654D01*
X385436Y229754D01*
X385508Y229838D01*
X385569Y229915D01*
X385625Y229971D01*
X385669Y230015D01*
X385697Y230043D01*
X385708Y230054D01*
X385752Y230087D01*
X385802Y230126D01*
X385902Y230187D01*
X385946Y230209D01*
X385980Y230232D01*
X386002Y230243D01*
X386013Y230248D01*
X385913Y230265D01*
X385819Y230282D01*
X385736Y230309D01*
X385652Y230331D01*
X385580Y230359D01*
X385514Y230393D01*
X385453Y230420D01*
X385397Y230448D01*
X385353Y230481D01*
X385308Y230509D01*
X385275Y230531D01*
X385247Y230554D01*
X385225Y230570D01*
X385208Y230587D01*
X385203Y230592D01*
X385197Y230598D01*
X385153Y230653D01*
X385108Y230709D01*
X385042Y230825D01*
X384997Y230942D01*
X384964Y231053D01*
X384942Y231147D01*
X384936Y231186D01*
Y231225D01*
X384931Y231253D01*
Y231275D01*
Y231286D01*
Y231292D01*
X384936Y231408D01*
X384953Y231514D01*
X384981Y231613D01*
X385009Y231697D01*
X385042Y231769D01*
X385064Y231824D01*
X385086Y231858D01*
X385092Y231863D01*
Y231869D01*
X385158Y231958D01*
X385225Y232035D01*
X385297Y232102D01*
X385364Y232152D01*
X385425Y232191D01*
X385475Y232213D01*
X385508Y232230D01*
X385514Y232235D01*
X385519D01*
X385569Y232252D01*
X385630Y232268D01*
X385752Y232296D01*
X385885Y232313D01*
X386007Y232330D01*
X386124Y232335D01*
X386174D01*
X386218Y232341D01*
X388000D01*
Y228500D01*
D02*
G37*
G36*
X379411Y311763D02*
X379472Y311674D01*
X379544Y311585D01*
X379610Y311508D01*
X379677Y311441D01*
X379727Y311385D01*
X379749Y311369D01*
X379766Y311352D01*
X379771Y311347D01*
X379777Y311341D01*
X379893Y311247D01*
X380010Y311158D01*
X380121Y311080D01*
X380232Y311019D01*
X380326Y310964D01*
X380365Y310942D01*
X380399Y310925D01*
X380426Y310908D01*
X380449Y310903D01*
X380460Y310892D01*
X380465D01*
Y310437D01*
X380382Y310470D01*
X380299Y310509D01*
X380215Y310547D01*
X380138Y310586D01*
X380071Y310620D01*
X380016Y310647D01*
X379982Y310669D01*
X379977Y310675D01*
X379971D01*
X379871Y310736D01*
X379783Y310797D01*
X379705Y310853D01*
X379644Y310903D01*
X379588Y310942D01*
X379555Y310975D01*
X379527Y310997D01*
X379522Y311003D01*
Y308000D01*
X379050D01*
Y311857D01*
X379355D01*
X379411Y311763D01*
D02*
G37*
G36*
X384500Y308000D02*
X383989D01*
Y309704D01*
X383334D01*
X383274Y309698D01*
X383229D01*
X383190Y309693D01*
X383162Y309687D01*
X383140D01*
X383129Y309682D01*
X383124D01*
X383035Y309654D01*
X382996Y309637D01*
X382963Y309621D01*
X382929Y309604D01*
X382907Y309593D01*
X382896Y309587D01*
X382891Y309582D01*
X382846Y309548D01*
X382802Y309510D01*
X382718Y309426D01*
X382680Y309387D01*
X382652Y309354D01*
X382635Y309332D01*
X382630Y309327D01*
X382574Y309249D01*
X382513Y309166D01*
X382452Y309077D01*
X382391Y308993D01*
X382341Y308916D01*
X382302Y308855D01*
X382286Y308833D01*
X382274Y308816D01*
X382263Y308805D01*
Y308799D01*
X381758Y308000D01*
X381126D01*
X381786Y309043D01*
X381864Y309154D01*
X381936Y309254D01*
X382008Y309338D01*
X382069Y309415D01*
X382125Y309471D01*
X382169Y309515D01*
X382197Y309543D01*
X382208Y309554D01*
X382252Y309587D01*
X382302Y309626D01*
X382402Y309687D01*
X382447Y309709D01*
X382480Y309732D01*
X382502Y309743D01*
X382513Y309748D01*
X382413Y309765D01*
X382319Y309782D01*
X382236Y309809D01*
X382152Y309832D01*
X382080Y309859D01*
X382014Y309893D01*
X381953Y309920D01*
X381897Y309948D01*
X381853Y309981D01*
X381808Y310009D01*
X381775Y310031D01*
X381747Y310053D01*
X381725Y310070D01*
X381708Y310087D01*
X381703Y310092D01*
X381697Y310098D01*
X381653Y310153D01*
X381608Y310209D01*
X381542Y310326D01*
X381497Y310442D01*
X381464Y310553D01*
X381442Y310647D01*
X381436Y310686D01*
Y310725D01*
X381431Y310753D01*
Y310775D01*
Y310786D01*
Y310792D01*
X381436Y310908D01*
X381453Y311014D01*
X381481Y311114D01*
X381509Y311197D01*
X381542Y311269D01*
X381564Y311324D01*
X381586Y311358D01*
X381592Y311363D01*
Y311369D01*
X381658Y311458D01*
X381725Y311535D01*
X381797Y311602D01*
X381864Y311652D01*
X381925Y311691D01*
X381975Y311713D01*
X382008Y311730D01*
X382014Y311735D01*
X382019D01*
X382069Y311752D01*
X382130Y311768D01*
X382252Y311796D01*
X382385Y311813D01*
X382507Y311829D01*
X382624Y311835D01*
X382674D01*
X382718Y311841D01*
X384500D01*
Y308000D01*
D02*
G37*
G36*
X379271Y256263D02*
X379332Y256174D01*
X379404Y256085D01*
X379471Y256008D01*
X379537Y255941D01*
X379587Y255886D01*
X379609Y255869D01*
X379626Y255852D01*
X379632Y255847D01*
X379637Y255841D01*
X379754Y255747D01*
X379870Y255658D01*
X379981Y255580D01*
X380092Y255519D01*
X380187Y255464D01*
X380225Y255441D01*
X380259Y255425D01*
X380287Y255408D01*
X380309Y255403D01*
X380320Y255392D01*
X380325D01*
Y254937D01*
X380242Y254970D01*
X380159Y255009D01*
X380076Y255047D01*
X379998Y255086D01*
X379931Y255120D01*
X379876Y255147D01*
X379842Y255170D01*
X379837Y255175D01*
X379831D01*
X379732Y255236D01*
X379643Y255297D01*
X379565Y255353D01*
X379504Y255403D01*
X379449Y255441D01*
X379415Y255475D01*
X379387Y255497D01*
X379382Y255503D01*
Y252500D01*
X378910D01*
Y256357D01*
X379215D01*
X379271Y256263D01*
D02*
G37*
G36*
X383500Y252500D02*
X381097D01*
Y252955D01*
X382989D01*
Y256341D01*
X383500D01*
Y252500D01*
D02*
G37*
G36*
X404905Y224763D02*
X404966Y224674D01*
X405038Y224585D01*
X405105Y224508D01*
X405171Y224441D01*
X405222Y224385D01*
X405244Y224369D01*
X405260Y224352D01*
X405266Y224347D01*
X405271Y224341D01*
X405388Y224247D01*
X405505Y224158D01*
X405616Y224080D01*
X405726Y224019D01*
X405821Y223964D01*
X405860Y223941D01*
X405893Y223925D01*
X405921Y223908D01*
X405943Y223903D01*
X405954Y223892D01*
X405960D01*
Y223436D01*
X405876Y223470D01*
X405793Y223509D01*
X405710Y223547D01*
X405632Y223586D01*
X405566Y223620D01*
X405510Y223647D01*
X405477Y223670D01*
X405471Y223675D01*
X405466D01*
X405366Y223736D01*
X405277Y223797D01*
X405199Y223853D01*
X405138Y223903D01*
X405083Y223941D01*
X405049Y223975D01*
X405022Y223997D01*
X405016Y224003D01*
Y221000D01*
X404544D01*
Y224857D01*
X404850D01*
X404905Y224763D01*
D02*
G37*
G36*
X410000Y221000D02*
X408618D01*
X408490Y221006D01*
X408374Y221011D01*
X408268Y221022D01*
X408180Y221033D01*
X408102Y221044D01*
X408046Y221050D01*
X408030Y221056D01*
X408013Y221061D01*
X408002D01*
X407902Y221089D01*
X407813Y221122D01*
X407736Y221150D01*
X407669Y221183D01*
X407614Y221211D01*
X407575Y221233D01*
X407552Y221250D01*
X407541Y221255D01*
X407469Y221305D01*
X407408Y221366D01*
X407347Y221422D01*
X407297Y221477D01*
X407253Y221527D01*
X407220Y221566D01*
X407197Y221594D01*
X407192Y221605D01*
X407136Y221694D01*
X407081Y221788D01*
X407036Y221877D01*
X407003Y221966D01*
X406970Y222043D01*
X406948Y222104D01*
X406942Y222127D01*
X406936Y222143D01*
X406931Y222154D01*
Y222160D01*
X406898Y222293D01*
X406870Y222426D01*
X406853Y222554D01*
X406837Y222676D01*
X406831Y222782D01*
Y222826D01*
X406825Y222865D01*
Y222892D01*
Y222920D01*
Y222931D01*
Y222937D01*
X406831Y223126D01*
X406848Y223298D01*
X406875Y223453D01*
X406886Y223525D01*
X406903Y223586D01*
X406920Y223647D01*
X406931Y223697D01*
X406942Y223742D01*
X406959Y223780D01*
X406964Y223814D01*
X406975Y223836D01*
X406981Y223847D01*
Y223853D01*
X407042Y223997D01*
X407114Y224125D01*
X407192Y224236D01*
X407264Y224330D01*
X407331Y224408D01*
X407386Y224463D01*
X407408Y224480D01*
X407425Y224497D01*
X407430Y224502D01*
X407436Y224508D01*
X407525Y224580D01*
X407619Y224635D01*
X407713Y224685D01*
X407802Y224724D01*
X407880Y224752D01*
X407941Y224768D01*
X407963Y224780D01*
X407980D01*
X407991Y224785D01*
X407997D01*
X408091Y224802D01*
X408202Y224818D01*
X408313Y224830D01*
X408424Y224835D01*
X408524Y224841D01*
X410000D01*
Y221000D01*
D02*
G37*
G36*
X447755Y224763D02*
X447816Y224674D01*
X447889Y224585D01*
X447955Y224508D01*
X448022Y224441D01*
X448072Y224385D01*
X448094Y224369D01*
X448110Y224352D01*
X448116Y224347D01*
X448122Y224341D01*
X448238Y224247D01*
X448355Y224158D01*
X448466Y224080D01*
X448577Y224019D01*
X448671Y223964D01*
X448710Y223941D01*
X448743Y223925D01*
X448771Y223908D01*
X448793Y223903D01*
X448804Y223892D01*
X448810D01*
Y223436D01*
X448727Y223470D01*
X448643Y223509D01*
X448560Y223547D01*
X448482Y223586D01*
X448416Y223620D01*
X448360Y223647D01*
X448327Y223670D01*
X448321Y223675D01*
X448316D01*
X448216Y223736D01*
X448127Y223797D01*
X448049Y223853D01*
X447988Y223903D01*
X447933Y223941D01*
X447899Y223975D01*
X447872Y223997D01*
X447866Y224003D01*
Y221000D01*
X447395D01*
Y224857D01*
X447700D01*
X447755Y224763D01*
D02*
G37*
G36*
X451374Y224896D02*
X451551Y224868D01*
X451707Y224835D01*
X451779Y224813D01*
X451846Y224791D01*
X451907Y224768D01*
X451962Y224746D01*
X452006Y224730D01*
X452051Y224713D01*
X452079Y224696D01*
X452101Y224685D01*
X452118Y224680D01*
X452123Y224674D01*
X452273Y224580D01*
X452401Y224469D01*
X452512Y224358D01*
X452606Y224247D01*
X452678Y224147D01*
X452706Y224102D01*
X452728Y224064D01*
X452750Y224036D01*
X452761Y224014D01*
X452767Y223997D01*
X452773Y223991D01*
X452850Y223819D01*
X452906Y223642D01*
X452945Y223464D01*
X452972Y223303D01*
X452983Y223231D01*
X452989Y223159D01*
X452994Y223103D01*
Y223048D01*
X453000Y223009D01*
Y222976D01*
Y222954D01*
Y222948D01*
X452989Y222748D01*
X452967Y222554D01*
X452939Y222382D01*
X452917Y222299D01*
X452900Y222227D01*
X452883Y222160D01*
X452861Y222099D01*
X452845Y222043D01*
X452834Y221999D01*
X452817Y221966D01*
X452811Y221938D01*
X452800Y221921D01*
Y221916D01*
X452717Y221749D01*
X452623Y221599D01*
X452523Y221472D01*
X452473Y221422D01*
X452428Y221372D01*
X452384Y221327D01*
X452340Y221289D01*
X452301Y221255D01*
X452267Y221233D01*
X452245Y221211D01*
X452223Y221194D01*
X452212Y221189D01*
X452206Y221183D01*
X452129Y221139D01*
X452051Y221100D01*
X451885Y221039D01*
X451718Y220994D01*
X451557Y220967D01*
X451479Y220956D01*
X451413Y220944D01*
X451352Y220939D01*
X451302D01*
X451257Y220933D01*
X451196D01*
X451085Y220939D01*
X450980Y220950D01*
X450880Y220961D01*
X450785Y220983D01*
X450697Y221011D01*
X450613Y221039D01*
X450536Y221067D01*
X450464Y221100D01*
X450403Y221128D01*
X450342Y221155D01*
X450297Y221183D01*
X450253Y221211D01*
X450225Y221233D01*
X450197Y221244D01*
X450186Y221255D01*
X450181Y221261D01*
X450103Y221327D01*
X450036Y221394D01*
X449975Y221472D01*
X449914Y221549D01*
X449814Y221705D01*
X449737Y221860D01*
X449703Y221932D01*
X449676Y221999D01*
X449653Y222060D01*
X449637Y222110D01*
X449620Y222154D01*
X449609Y222188D01*
X449603Y222210D01*
Y222216D01*
X450114Y222343D01*
X450136Y222254D01*
X450164Y222171D01*
X450192Y222093D01*
X450219Y222021D01*
X450253Y221955D01*
X450286Y221899D01*
X450325Y221844D01*
X450358Y221794D01*
X450386Y221749D01*
X450419Y221716D01*
X450447Y221683D01*
X450469Y221655D01*
X450491Y221638D01*
X450508Y221622D01*
X450514Y221616D01*
X450519Y221610D01*
X450575Y221566D01*
X450636Y221533D01*
X450758Y221472D01*
X450874Y221427D01*
X450991Y221400D01*
X451091Y221377D01*
X451130Y221372D01*
X451168D01*
X451202Y221366D01*
X451241D01*
X451368Y221372D01*
X451490Y221394D01*
X451601Y221422D01*
X451701Y221455D01*
X451779Y221488D01*
X451812Y221505D01*
X451840Y221516D01*
X451862Y221527D01*
X451879Y221538D01*
X451890Y221544D01*
X451896D01*
X452001Y221622D01*
X452090Y221705D01*
X452168Y221799D01*
X452228Y221888D01*
X452279Y221966D01*
X452312Y222032D01*
X452323Y222060D01*
X452334Y222077D01*
X452340Y222088D01*
Y222093D01*
X452384Y222238D01*
X452417Y222382D01*
X452445Y222526D01*
X452462Y222659D01*
X452467Y222721D01*
X452473Y222776D01*
Y222826D01*
X452478Y222865D01*
Y222898D01*
Y222926D01*
Y222942D01*
Y222948D01*
X452473Y223092D01*
X452462Y223226D01*
X452439Y223348D01*
X452417Y223459D01*
X452401Y223553D01*
X452389Y223592D01*
X452378Y223625D01*
X452373Y223653D01*
X452367Y223670D01*
X452362Y223681D01*
Y223686D01*
X452306Y223814D01*
X452245Y223930D01*
X452179Y224025D01*
X452107Y224108D01*
X452045Y224175D01*
X451995Y224219D01*
X451957Y224247D01*
X451951Y224258D01*
X451945D01*
X451829Y224330D01*
X451701Y224385D01*
X451579Y224424D01*
X451463Y224447D01*
X451357Y224463D01*
X451313Y224469D01*
X451274D01*
X451246Y224474D01*
X451202D01*
X451063Y224469D01*
X450935Y224447D01*
X450830Y224413D01*
X450736Y224380D01*
X450664Y224341D01*
X450608Y224313D01*
X450575Y224291D01*
X450564Y224280D01*
X450475Y224197D01*
X450391Y224102D01*
X450325Y224003D01*
X450269Y223903D01*
X450225Y223814D01*
X450208Y223769D01*
X450197Y223736D01*
X450186Y223708D01*
X450175Y223686D01*
X450170Y223675D01*
Y223670D01*
X449670Y223786D01*
X449703Y223886D01*
X449737Y223975D01*
X449781Y224058D01*
X449820Y224141D01*
X449864Y224214D01*
X449914Y224280D01*
X449959Y224347D01*
X450003Y224402D01*
X450047Y224447D01*
X450086Y224491D01*
X450125Y224530D01*
X450153Y224557D01*
X450181Y224585D01*
X450203Y224602D01*
X450214Y224607D01*
X450219Y224613D01*
X450297Y224663D01*
X450375Y224713D01*
X450453Y224752D01*
X450536Y224785D01*
X450702Y224835D01*
X450852Y224868D01*
X450924Y224885D01*
X450985Y224890D01*
X451046Y224896D01*
X451096Y224902D01*
X451135Y224907D01*
X451191D01*
X451374Y224896D01*
D02*
G37*
G36*
X445025Y224852D02*
X445114Y224846D01*
X445269Y224813D01*
X445341Y224791D01*
X445408Y224768D01*
X445469Y224741D01*
X445524Y224713D01*
X445569Y224685D01*
X445613Y224658D01*
X445652Y224635D01*
X445680Y224613D01*
X445702Y224596D01*
X445718Y224580D01*
X445729Y224574D01*
X445735Y224569D01*
X445785Y224513D01*
X445835Y224458D01*
X445874Y224397D01*
X445907Y224336D01*
X445963Y224219D01*
X445996Y224108D01*
X446018Y224014D01*
X446024Y223969D01*
X446029Y223936D01*
X446035Y223903D01*
Y223881D01*
Y223869D01*
Y223864D01*
X446029Y223764D01*
X446013Y223670D01*
X445990Y223586D01*
X445963Y223514D01*
X445940Y223459D01*
X445918Y223414D01*
X445902Y223392D01*
X445896Y223381D01*
X445835Y223314D01*
X445768Y223253D01*
X445696Y223198D01*
X445624Y223153D01*
X445557Y223120D01*
X445507Y223098D01*
X445485Y223087D01*
X445469Y223081D01*
X445463Y223076D01*
X445458D01*
X445585Y223037D01*
X445691Y222987D01*
X445785Y222926D01*
X445863Y222870D01*
X445924Y222815D01*
X445968Y222770D01*
X445990Y222743D01*
X446001Y222737D01*
Y222732D01*
X446063Y222632D01*
X446112Y222526D01*
X446146Y222426D01*
X446168Y222326D01*
X446179Y222238D01*
X446185Y222199D01*
Y222165D01*
X446190Y222143D01*
Y222121D01*
Y222110D01*
Y222104D01*
X446185Y222016D01*
X446173Y221927D01*
X446157Y221844D01*
X446135Y221760D01*
X446079Y221622D01*
X446051Y221555D01*
X446018Y221499D01*
X445985Y221444D01*
X445957Y221400D01*
X445924Y221361D01*
X445902Y221327D01*
X445879Y221300D01*
X445863Y221283D01*
X445852Y221272D01*
X445846Y221266D01*
X445779Y221205D01*
X445707Y221155D01*
X445630Y221111D01*
X445552Y221072D01*
X445480Y221044D01*
X445402Y221017D01*
X445252Y220978D01*
X445186Y220961D01*
X445124Y220950D01*
X445069Y220944D01*
X445019Y220939D01*
X444980Y220933D01*
X444925D01*
X444819Y220939D01*
X444725Y220950D01*
X444631Y220967D01*
X444542Y220983D01*
X444464Y221011D01*
X444386Y221039D01*
X444314Y221067D01*
X444253Y221100D01*
X444198Y221133D01*
X444148Y221161D01*
X444109Y221189D01*
X444070Y221216D01*
X444042Y221233D01*
X444026Y221250D01*
X444015Y221261D01*
X444009Y221266D01*
X443948Y221333D01*
X443892Y221400D01*
X443848Y221466D01*
X443809Y221538D01*
X443770Y221605D01*
X443743Y221677D01*
X443704Y221805D01*
X443687Y221866D01*
X443676Y221921D01*
X443670Y221971D01*
X443665Y222010D01*
X443659Y222043D01*
Y222071D01*
Y222088D01*
Y222093D01*
X443665Y222221D01*
X443687Y222338D01*
X443720Y222443D01*
X443754Y222532D01*
X443787Y222604D01*
X443820Y222659D01*
X443843Y222693D01*
X443848Y222698D01*
Y222704D01*
X443926Y222793D01*
X444009Y222870D01*
X444098Y222931D01*
X444181Y222987D01*
X444259Y223026D01*
X444325Y223054D01*
X444347Y223065D01*
X444364Y223070D01*
X444375Y223076D01*
X444381D01*
X444281Y223120D01*
X444198Y223170D01*
X444126Y223220D01*
X444065Y223270D01*
X444020Y223314D01*
X443987Y223348D01*
X443965Y223370D01*
X443959Y223381D01*
X443909Y223459D01*
X443876Y223536D01*
X443848Y223614D01*
X443831Y223692D01*
X443820Y223753D01*
X443815Y223803D01*
Y223836D01*
Y223842D01*
Y223847D01*
X443820Y223925D01*
X443826Y223997D01*
X443865Y224136D01*
X443915Y224258D01*
X443970Y224363D01*
X444026Y224447D01*
X444053Y224480D01*
X444076Y224513D01*
X444098Y224535D01*
X444114Y224552D01*
X444120Y224557D01*
X444126Y224563D01*
X444187Y224613D01*
X444248Y224663D01*
X444314Y224702D01*
X444381Y224735D01*
X444514Y224785D01*
X444647Y224818D01*
X444703Y224835D01*
X444758Y224841D01*
X444808Y224846D01*
X444853Y224852D01*
X444886Y224857D01*
X444936D01*
X445025Y224852D01*
D02*
G37*
G36*
X403755Y263763D02*
X403816Y263674D01*
X403889Y263585D01*
X403955Y263508D01*
X404022Y263441D01*
X404072Y263386D01*
X404094Y263369D01*
X404110Y263352D01*
X404116Y263347D01*
X404121Y263341D01*
X404238Y263247D01*
X404355Y263158D01*
X404466Y263080D01*
X404577Y263019D01*
X404671Y262964D01*
X404710Y262942D01*
X404743Y262925D01*
X404771Y262908D01*
X404793Y262903D01*
X404804Y262892D01*
X404810D01*
Y262437D01*
X404727Y262470D01*
X404643Y262509D01*
X404560Y262547D01*
X404482Y262586D01*
X404416Y262620D01*
X404360Y262647D01*
X404327Y262669D01*
X404321Y262675D01*
X404316D01*
X404216Y262736D01*
X404127Y262797D01*
X404049Y262853D01*
X403988Y262903D01*
X403933Y262942D01*
X403899Y262975D01*
X403872Y262997D01*
X403866Y263003D01*
Y260000D01*
X403395D01*
Y263857D01*
X403700D01*
X403755Y263763D01*
D02*
G37*
G36*
X407374Y263896D02*
X407551Y263868D01*
X407707Y263835D01*
X407779Y263813D01*
X407846Y263791D01*
X407907Y263768D01*
X407962Y263746D01*
X408007Y263730D01*
X408051Y263713D01*
X408079Y263696D01*
X408101Y263685D01*
X408117Y263680D01*
X408123Y263674D01*
X408273Y263580D01*
X408401Y263469D01*
X408512Y263358D01*
X408606Y263247D01*
X408678Y263147D01*
X408706Y263102D01*
X408728Y263064D01*
X408750Y263036D01*
X408761Y263014D01*
X408767Y262997D01*
X408772Y262991D01*
X408850Y262819D01*
X408906Y262642D01*
X408945Y262464D01*
X408972Y262303D01*
X408983Y262231D01*
X408989Y262159D01*
X408994Y262104D01*
Y262048D01*
X409000Y262009D01*
Y261976D01*
Y261954D01*
Y261948D01*
X408989Y261748D01*
X408967Y261554D01*
X408939Y261382D01*
X408917Y261299D01*
X408900Y261227D01*
X408883Y261160D01*
X408861Y261099D01*
X408845Y261043D01*
X408834Y260999D01*
X408817Y260966D01*
X408811Y260938D01*
X408800Y260921D01*
Y260916D01*
X408717Y260749D01*
X408623Y260599D01*
X408523Y260472D01*
X408473Y260422D01*
X408428Y260372D01*
X408384Y260327D01*
X408340Y260289D01*
X408301Y260255D01*
X408267Y260233D01*
X408245Y260211D01*
X408223Y260194D01*
X408212Y260189D01*
X408206Y260183D01*
X408129Y260139D01*
X408051Y260100D01*
X407885Y260039D01*
X407718Y259995D01*
X407557Y259967D01*
X407479Y259956D01*
X407413Y259945D01*
X407352Y259939D01*
X407302D01*
X407257Y259933D01*
X407196D01*
X407085Y259939D01*
X406980Y259950D01*
X406880Y259961D01*
X406786Y259983D01*
X406697Y260011D01*
X406613Y260039D01*
X406536Y260067D01*
X406464Y260100D01*
X406403Y260128D01*
X406342Y260155D01*
X406297Y260183D01*
X406253Y260211D01*
X406225Y260233D01*
X406197Y260244D01*
X406186Y260255D01*
X406181Y260261D01*
X406103Y260327D01*
X406036Y260394D01*
X405975Y260472D01*
X405914Y260549D01*
X405814Y260705D01*
X405737Y260860D01*
X405703Y260932D01*
X405676Y260999D01*
X405653Y261060D01*
X405637Y261110D01*
X405620Y261154D01*
X405609Y261188D01*
X405603Y261210D01*
Y261215D01*
X406114Y261343D01*
X406136Y261254D01*
X406164Y261171D01*
X406192Y261093D01*
X406219Y261021D01*
X406253Y260955D01*
X406286Y260899D01*
X406325Y260844D01*
X406358Y260794D01*
X406386Y260749D01*
X406419Y260716D01*
X406447Y260683D01*
X406469Y260655D01*
X406491Y260638D01*
X406508Y260622D01*
X406514Y260616D01*
X406519Y260611D01*
X406575Y260566D01*
X406636Y260533D01*
X406758Y260472D01*
X406874Y260427D01*
X406991Y260400D01*
X407091Y260377D01*
X407130Y260372D01*
X407168D01*
X407202Y260366D01*
X407241D01*
X407368Y260372D01*
X407490Y260394D01*
X407601Y260422D01*
X407701Y260455D01*
X407779Y260488D01*
X407812Y260505D01*
X407840Y260516D01*
X407862Y260527D01*
X407879Y260538D01*
X407890Y260544D01*
X407896D01*
X408001Y260622D01*
X408090Y260705D01*
X408168Y260799D01*
X408228Y260888D01*
X408279Y260966D01*
X408312Y261032D01*
X408323Y261060D01*
X408334Y261077D01*
X408340Y261088D01*
Y261093D01*
X408384Y261238D01*
X408417Y261382D01*
X408445Y261526D01*
X408462Y261660D01*
X408467Y261720D01*
X408473Y261776D01*
Y261826D01*
X408478Y261865D01*
Y261898D01*
Y261926D01*
Y261943D01*
Y261948D01*
X408473Y262092D01*
X408462Y262226D01*
X408439Y262348D01*
X408417Y262459D01*
X408401Y262553D01*
X408390Y262592D01*
X408378Y262625D01*
X408373Y262653D01*
X408367Y262669D01*
X408362Y262681D01*
Y262686D01*
X408306Y262814D01*
X408245Y262930D01*
X408179Y263025D01*
X408106Y263108D01*
X408045Y263175D01*
X407995Y263219D01*
X407957Y263247D01*
X407951Y263258D01*
X407945D01*
X407829Y263330D01*
X407701Y263386D01*
X407579Y263424D01*
X407463Y263446D01*
X407357Y263463D01*
X407313Y263469D01*
X407274D01*
X407246Y263474D01*
X407202D01*
X407063Y263469D01*
X406935Y263446D01*
X406830Y263413D01*
X406736Y263380D01*
X406664Y263341D01*
X406608Y263313D01*
X406575Y263291D01*
X406564Y263280D01*
X406475Y263197D01*
X406391Y263102D01*
X406325Y263003D01*
X406269Y262903D01*
X406225Y262814D01*
X406208Y262770D01*
X406197Y262736D01*
X406186Y262708D01*
X406175Y262686D01*
X406170Y262675D01*
Y262669D01*
X405670Y262786D01*
X405703Y262886D01*
X405737Y262975D01*
X405781Y263058D01*
X405820Y263141D01*
X405864Y263213D01*
X405914Y263280D01*
X405959Y263347D01*
X406003Y263402D01*
X406047Y263446D01*
X406086Y263491D01*
X406125Y263530D01*
X406153Y263558D01*
X406181Y263585D01*
X406203Y263602D01*
X406214Y263608D01*
X406219Y263613D01*
X406297Y263663D01*
X406375Y263713D01*
X406453Y263752D01*
X406536Y263785D01*
X406702Y263835D01*
X406852Y263868D01*
X406924Y263885D01*
X406985Y263891D01*
X407046Y263896D01*
X407096Y263902D01*
X407135Y263907D01*
X407191D01*
X407374Y263896D01*
D02*
G37*
G36*
X402151Y263336D02*
X400270D01*
X400403Y263175D01*
X400531Y263003D01*
X400642Y262836D01*
X400747Y262675D01*
X400792Y262603D01*
X400830Y262536D01*
X400869Y262475D01*
X400897Y262425D01*
X400919Y262381D01*
X400936Y262353D01*
X400947Y262331D01*
X400952Y262326D01*
X401063Y262104D01*
X401163Y261881D01*
X401247Y261671D01*
X401280Y261576D01*
X401313Y261482D01*
X401346Y261399D01*
X401369Y261321D01*
X401391Y261254D01*
X401408Y261199D01*
X401424Y261149D01*
X401435Y261116D01*
X401441Y261093D01*
Y261088D01*
X401496Y260860D01*
X401519Y260749D01*
X401535Y260649D01*
X401552Y260555D01*
X401569Y260461D01*
X401580Y260383D01*
X401591Y260305D01*
X401596Y260239D01*
X401602Y260178D01*
X401607Y260122D01*
Y260078D01*
X401613Y260044D01*
Y260022D01*
Y260005D01*
Y260000D01*
X401130D01*
X401114Y260211D01*
X401086Y260405D01*
X401058Y260583D01*
X401041Y260666D01*
X401025Y260744D01*
X401014Y260810D01*
X400997Y260871D01*
X400986Y260927D01*
X400975Y260971D01*
X400964Y261005D01*
X400958Y261032D01*
X400952Y261049D01*
Y261054D01*
X400869Y261310D01*
X400780Y261548D01*
X400736Y261665D01*
X400692Y261776D01*
X400642Y261876D01*
X400597Y261976D01*
X400558Y262065D01*
X400520Y262142D01*
X400486Y262209D01*
X400459Y262270D01*
X400431Y262320D01*
X400414Y262353D01*
X400403Y262375D01*
X400397Y262381D01*
X400331Y262497D01*
X400264Y262614D01*
X400198Y262719D01*
X400131Y262819D01*
X400070Y262908D01*
X400009Y262997D01*
X399948Y263075D01*
X399898Y263141D01*
X399848Y263208D01*
X399804Y263263D01*
X399759Y263308D01*
X399726Y263347D01*
X399704Y263380D01*
X399682Y263402D01*
X399670Y263413D01*
X399665Y263419D01*
Y263791D01*
X402151D01*
Y263336D01*
D02*
G37*
G36*
X378755Y244263D02*
X378816Y244174D01*
X378889Y244085D01*
X378955Y244008D01*
X379022Y243941D01*
X379072Y243885D01*
X379094Y243869D01*
X379110Y243852D01*
X379116Y243847D01*
X379121Y243841D01*
X379238Y243747D01*
X379355Y243658D01*
X379466Y243580D01*
X379577Y243519D01*
X379671Y243464D01*
X379710Y243442D01*
X379743Y243425D01*
X379771Y243408D01*
X379793Y243403D01*
X379804Y243392D01*
X379810D01*
Y242936D01*
X379727Y242970D01*
X379643Y243009D01*
X379560Y243047D01*
X379482Y243086D01*
X379416Y243120D01*
X379360Y243147D01*
X379327Y243169D01*
X379321Y243175D01*
X379316D01*
X379216Y243236D01*
X379127Y243297D01*
X379049Y243353D01*
X378988Y243403D01*
X378933Y243442D01*
X378900Y243475D01*
X378872Y243497D01*
X378866Y243503D01*
Y240500D01*
X378395D01*
Y244357D01*
X378700D01*
X378755Y244263D01*
D02*
G37*
G36*
X375936Y244352D02*
X376041Y244341D01*
X376141Y244318D01*
X376236Y244291D01*
X376319Y244252D01*
X376402Y244218D01*
X376474Y244174D01*
X376541Y244135D01*
X376596Y244096D01*
X376652Y244052D01*
X376696Y244019D01*
X376729Y243985D01*
X376757Y243952D01*
X376779Y243930D01*
X376790Y243919D01*
X376796Y243913D01*
X376868Y243813D01*
X376929Y243697D01*
X376985Y243575D01*
X377035Y243447D01*
X377074Y243314D01*
X377107Y243181D01*
X377135Y243042D01*
X377157Y242914D01*
X377173Y242787D01*
X377185Y242670D01*
X377196Y242565D01*
X377201Y242476D01*
Y242398D01*
X377207Y242343D01*
Y242320D01*
Y242304D01*
Y242298D01*
Y242293D01*
X377201Y242115D01*
X377190Y241949D01*
X377173Y241793D01*
X377146Y241649D01*
X377118Y241521D01*
X377090Y241405D01*
X377057Y241299D01*
X377018Y241205D01*
X376985Y241127D01*
X376952Y241055D01*
X376924Y241000D01*
X376890Y240950D01*
X376868Y240911D01*
X376852Y240889D01*
X376840Y240872D01*
X376835Y240866D01*
X376763Y240789D01*
X376685Y240722D01*
X376607Y240667D01*
X376530Y240617D01*
X376447Y240572D01*
X376369Y240539D01*
X376291Y240511D01*
X376213Y240489D01*
X376147Y240472D01*
X376080Y240456D01*
X376025Y240444D01*
X375975Y240439D01*
X375930D01*
X375903Y240433D01*
X375875D01*
X375747Y240439D01*
X375631Y240461D01*
X375525Y240483D01*
X375431Y240517D01*
X375359Y240544D01*
X375303Y240572D01*
X375281Y240578D01*
X375264Y240589D01*
X375259Y240594D01*
X375253D01*
X375159Y240661D01*
X375070Y240739D01*
X374998Y240816D01*
X374937Y240894D01*
X374887Y240966D01*
X374854Y241022D01*
X374843Y241044D01*
X374831Y241061D01*
X374826Y241066D01*
Y241072D01*
X374770Y241188D01*
X374731Y241310D01*
X374704Y241421D01*
X374687Y241527D01*
X374670Y241616D01*
Y241649D01*
X374665Y241682D01*
Y241710D01*
Y241726D01*
Y241738D01*
Y241743D01*
X374670Y241843D01*
X374682Y241937D01*
X374698Y242032D01*
X374715Y242115D01*
X374743Y242193D01*
X374770Y242270D01*
X374798Y242337D01*
X374831Y242398D01*
X374865Y242454D01*
X374892Y242503D01*
X374920Y242542D01*
X374948Y242581D01*
X374965Y242609D01*
X374981Y242626D01*
X374992Y242637D01*
X374998Y242642D01*
X375059Y242703D01*
X375126Y242759D01*
X375198Y242803D01*
X375264Y242842D01*
X375331Y242881D01*
X375397Y242909D01*
X375525Y242948D01*
X375581Y242964D01*
X375636Y242975D01*
X375680Y242981D01*
X375725Y242986D01*
X375758Y242992D01*
X375803D01*
X375903Y242986D01*
X375997Y242970D01*
X376086Y242953D01*
X376163Y242931D01*
X376230Y242903D01*
X376280Y242886D01*
X376313Y242870D01*
X376319Y242864D01*
X376324D01*
X376413Y242809D01*
X376491Y242748D01*
X376563Y242687D01*
X376619Y242620D01*
X376668Y242565D01*
X376707Y242520D01*
X376729Y242487D01*
X376735Y242481D01*
Y242581D01*
X376729Y242681D01*
X376724Y242770D01*
X376713Y242859D01*
X376707Y242936D01*
X376696Y243009D01*
X376685Y243075D01*
X376668Y243136D01*
X376657Y243192D01*
X376646Y243236D01*
X376635Y243275D01*
X376630Y243308D01*
X376619Y243331D01*
X376613Y243347D01*
X376607Y243358D01*
Y243364D01*
X376552Y243475D01*
X376496Y243575D01*
X376435Y243652D01*
X376380Y243719D01*
X376330Y243775D01*
X376291Y243813D01*
X376263Y243836D01*
X376252Y243841D01*
X376186Y243885D01*
X376119Y243913D01*
X376052Y243935D01*
X375986Y243952D01*
X375936Y243963D01*
X375891Y243969D01*
X375853D01*
X375753Y243958D01*
X375658Y243935D01*
X375581Y243902D01*
X375508Y243869D01*
X375453Y243830D01*
X375414Y243797D01*
X375392Y243775D01*
X375381Y243763D01*
X375342Y243713D01*
X375303Y243652D01*
X375270Y243586D01*
X375248Y243519D01*
X375225Y243458D01*
X375209Y243408D01*
X375203Y243375D01*
X375198Y243369D01*
Y243364D01*
X374726Y243403D01*
X374759Y243558D01*
X374809Y243697D01*
X374865Y243819D01*
X374926Y243919D01*
X374987Y243997D01*
X375009Y244030D01*
X375037Y244057D01*
X375053Y244074D01*
X375070Y244091D01*
X375076Y244096D01*
X375081Y244102D01*
X375137Y244146D01*
X375198Y244185D01*
X375320Y244252D01*
X375442Y244296D01*
X375558Y244324D01*
X375664Y244346D01*
X375708Y244352D01*
X375747D01*
X375781Y244357D01*
X375825D01*
X375936Y244352D01*
D02*
G37*
G36*
X382374Y244396D02*
X382552Y244368D01*
X382707Y244335D01*
X382779Y244313D01*
X382846Y244291D01*
X382907Y244268D01*
X382962Y244246D01*
X383007Y244230D01*
X383051Y244213D01*
X383079Y244196D01*
X383101Y244185D01*
X383118Y244180D01*
X383123Y244174D01*
X383273Y244080D01*
X383401Y243969D01*
X383512Y243858D01*
X383606Y243747D01*
X383678Y243647D01*
X383706Y243602D01*
X383728Y243564D01*
X383750Y243536D01*
X383761Y243514D01*
X383767Y243497D01*
X383772Y243491D01*
X383850Y243319D01*
X383906Y243142D01*
X383945Y242964D01*
X383972Y242803D01*
X383983Y242731D01*
X383989Y242659D01*
X383995Y242603D01*
Y242548D01*
X384000Y242509D01*
Y242476D01*
Y242454D01*
Y242448D01*
X383989Y242248D01*
X383967Y242054D01*
X383939Y241882D01*
X383917Y241799D01*
X383900Y241726D01*
X383883Y241660D01*
X383861Y241599D01*
X383845Y241543D01*
X383834Y241499D01*
X383817Y241466D01*
X383811Y241438D01*
X383800Y241421D01*
Y241416D01*
X383717Y241249D01*
X383623Y241099D01*
X383523Y240972D01*
X383473Y240922D01*
X383428Y240872D01*
X383384Y240827D01*
X383340Y240789D01*
X383301Y240755D01*
X383267Y240733D01*
X383245Y240711D01*
X383223Y240694D01*
X383212Y240689D01*
X383206Y240683D01*
X383129Y240639D01*
X383051Y240600D01*
X382885Y240539D01*
X382718Y240494D01*
X382557Y240467D01*
X382479Y240456D01*
X382413Y240444D01*
X382352Y240439D01*
X382302D01*
X382257Y240433D01*
X382196D01*
X382085Y240439D01*
X381980Y240450D01*
X381880Y240461D01*
X381786Y240483D01*
X381697Y240511D01*
X381613Y240539D01*
X381536Y240567D01*
X381464Y240600D01*
X381403Y240628D01*
X381342Y240655D01*
X381297Y240683D01*
X381253Y240711D01*
X381225Y240733D01*
X381197Y240744D01*
X381186Y240755D01*
X381181Y240761D01*
X381103Y240827D01*
X381036Y240894D01*
X380975Y240972D01*
X380914Y241049D01*
X380814Y241205D01*
X380737Y241360D01*
X380703Y241432D01*
X380676Y241499D01*
X380653Y241560D01*
X380637Y241610D01*
X380620Y241654D01*
X380609Y241688D01*
X380603Y241710D01*
Y241716D01*
X381114Y241843D01*
X381136Y241754D01*
X381164Y241671D01*
X381192Y241593D01*
X381220Y241521D01*
X381253Y241455D01*
X381286Y241399D01*
X381325Y241344D01*
X381358Y241294D01*
X381386Y241249D01*
X381419Y241216D01*
X381447Y241183D01*
X381469Y241155D01*
X381491Y241138D01*
X381508Y241122D01*
X381514Y241116D01*
X381519Y241110D01*
X381575Y241066D01*
X381636Y241033D01*
X381758Y240972D01*
X381874Y240927D01*
X381991Y240900D01*
X382091Y240877D01*
X382130Y240872D01*
X382169D01*
X382202Y240866D01*
X382241D01*
X382368Y240872D01*
X382490Y240894D01*
X382601Y240922D01*
X382701Y240955D01*
X382779Y240988D01*
X382812Y241005D01*
X382840Y241016D01*
X382862Y241027D01*
X382879Y241038D01*
X382890Y241044D01*
X382896D01*
X383001Y241122D01*
X383090Y241205D01*
X383168Y241299D01*
X383228Y241388D01*
X383278Y241466D01*
X383312Y241532D01*
X383323Y241560D01*
X383334Y241577D01*
X383340Y241588D01*
Y241593D01*
X383384Y241738D01*
X383417Y241882D01*
X383445Y242026D01*
X383462Y242160D01*
X383467Y242220D01*
X383473Y242276D01*
Y242326D01*
X383478Y242365D01*
Y242398D01*
Y242426D01*
Y242442D01*
Y242448D01*
X383473Y242592D01*
X383462Y242726D01*
X383439Y242848D01*
X383417Y242959D01*
X383401Y243053D01*
X383389Y243092D01*
X383378Y243125D01*
X383373Y243153D01*
X383367Y243169D01*
X383362Y243181D01*
Y243186D01*
X383306Y243314D01*
X383245Y243430D01*
X383179Y243525D01*
X383106Y243608D01*
X383045Y243675D01*
X382995Y243719D01*
X382957Y243747D01*
X382951Y243758D01*
X382945D01*
X382829Y243830D01*
X382701Y243885D01*
X382579Y243924D01*
X382463Y243947D01*
X382357Y243963D01*
X382313Y243969D01*
X382274D01*
X382246Y243974D01*
X382202D01*
X382063Y243969D01*
X381935Y243947D01*
X381830Y243913D01*
X381736Y243880D01*
X381663Y243841D01*
X381608Y243813D01*
X381575Y243791D01*
X381563Y243780D01*
X381475Y243697D01*
X381392Y243602D01*
X381325Y243503D01*
X381269Y243403D01*
X381225Y243314D01*
X381208Y243269D01*
X381197Y243236D01*
X381186Y243208D01*
X381175Y243186D01*
X381170Y243175D01*
Y243169D01*
X380670Y243286D01*
X380703Y243386D01*
X380737Y243475D01*
X380781Y243558D01*
X380820Y243641D01*
X380864Y243713D01*
X380914Y243780D01*
X380959Y243847D01*
X381003Y243902D01*
X381047Y243947D01*
X381086Y243991D01*
X381125Y244030D01*
X381153Y244057D01*
X381181Y244085D01*
X381203Y244102D01*
X381214Y244108D01*
X381220Y244113D01*
X381297Y244163D01*
X381375Y244213D01*
X381453Y244252D01*
X381536Y244285D01*
X381702Y244335D01*
X381852Y244368D01*
X381924Y244385D01*
X381985Y244391D01*
X382046Y244396D01*
X382096Y244402D01*
X382135Y244407D01*
X382191D01*
X382374Y244396D01*
D02*
G37*
G36*
X381755Y269263D02*
X381816Y269174D01*
X381889Y269085D01*
X381955Y269008D01*
X382022Y268941D01*
X382072Y268885D01*
X382094Y268869D01*
X382110Y268852D01*
X382116Y268847D01*
X382121Y268841D01*
X382238Y268747D01*
X382355Y268658D01*
X382466Y268580D01*
X382577Y268519D01*
X382671Y268464D01*
X382710Y268442D01*
X382743Y268425D01*
X382771Y268408D01*
X382793Y268403D01*
X382804Y268392D01*
X382810D01*
Y267936D01*
X382727Y267970D01*
X382643Y268009D01*
X382560Y268047D01*
X382482Y268086D01*
X382416Y268120D01*
X382360Y268147D01*
X382327Y268169D01*
X382321Y268175D01*
X382316D01*
X382216Y268236D01*
X382127Y268297D01*
X382049Y268353D01*
X381988Y268403D01*
X381933Y268442D01*
X381899Y268475D01*
X381872Y268497D01*
X381866Y268503D01*
Y265500D01*
X381395D01*
Y269357D01*
X381700D01*
X381755Y269263D01*
D02*
G37*
G36*
X378769D02*
X378830Y269174D01*
X378903Y269085D01*
X378969Y269008D01*
X379036Y268941D01*
X379086Y268885D01*
X379108Y268869D01*
X379124Y268852D01*
X379130Y268847D01*
X379136Y268841D01*
X379252Y268747D01*
X379369Y268658D01*
X379480Y268580D01*
X379591Y268519D01*
X379685Y268464D01*
X379724Y268442D01*
X379757Y268425D01*
X379785Y268408D01*
X379807Y268403D01*
X379818Y268392D01*
X379824D01*
Y267936D01*
X379741Y267970D01*
X379657Y268009D01*
X379574Y268047D01*
X379496Y268086D01*
X379430Y268120D01*
X379374Y268147D01*
X379341Y268169D01*
X379335Y268175D01*
X379330D01*
X379230Y268236D01*
X379141Y268297D01*
X379064Y268353D01*
X379002Y268403D01*
X378947Y268442D01*
X378914Y268475D01*
X378886Y268497D01*
X378880Y268503D01*
Y265500D01*
X378409D01*
Y269357D01*
X378714D01*
X378769Y269263D01*
D02*
G37*
G36*
X385374Y269396D02*
X385552Y269368D01*
X385707Y269335D01*
X385779Y269313D01*
X385846Y269291D01*
X385907Y269268D01*
X385962Y269246D01*
X386007Y269230D01*
X386051Y269213D01*
X386079Y269196D01*
X386101Y269185D01*
X386118Y269180D01*
X386123Y269174D01*
X386273Y269080D01*
X386401Y268969D01*
X386512Y268858D01*
X386606Y268747D01*
X386678Y268647D01*
X386706Y268602D01*
X386728Y268564D01*
X386750Y268536D01*
X386761Y268514D01*
X386767Y268497D01*
X386772Y268491D01*
X386850Y268319D01*
X386906Y268142D01*
X386945Y267964D01*
X386972Y267803D01*
X386983Y267731D01*
X386989Y267659D01*
X386995Y267603D01*
Y267548D01*
X387000Y267509D01*
Y267476D01*
Y267454D01*
Y267448D01*
X386989Y267248D01*
X386967Y267054D01*
X386939Y266882D01*
X386917Y266799D01*
X386900Y266726D01*
X386883Y266660D01*
X386861Y266599D01*
X386845Y266543D01*
X386834Y266499D01*
X386817Y266466D01*
X386811Y266438D01*
X386800Y266421D01*
Y266416D01*
X386717Y266249D01*
X386623Y266099D01*
X386523Y265972D01*
X386473Y265922D01*
X386428Y265872D01*
X386384Y265827D01*
X386340Y265789D01*
X386301Y265755D01*
X386267Y265733D01*
X386245Y265711D01*
X386223Y265694D01*
X386212Y265689D01*
X386206Y265683D01*
X386129Y265639D01*
X386051Y265600D01*
X385884Y265539D01*
X385718Y265494D01*
X385557Y265467D01*
X385479Y265456D01*
X385413Y265444D01*
X385352Y265439D01*
X385302D01*
X385257Y265433D01*
X385196D01*
X385085Y265439D01*
X384980Y265450D01*
X384880Y265461D01*
X384786Y265483D01*
X384697Y265511D01*
X384613Y265539D01*
X384536Y265567D01*
X384464Y265600D01*
X384403Y265628D01*
X384342Y265655D01*
X384297Y265683D01*
X384253Y265711D01*
X384225Y265733D01*
X384197Y265744D01*
X384186Y265755D01*
X384181Y265761D01*
X384103Y265827D01*
X384036Y265894D01*
X383975Y265972D01*
X383914Y266049D01*
X383814Y266205D01*
X383737Y266360D01*
X383703Y266432D01*
X383676Y266499D01*
X383653Y266560D01*
X383637Y266610D01*
X383620Y266654D01*
X383609Y266688D01*
X383603Y266710D01*
Y266716D01*
X384114Y266843D01*
X384136Y266754D01*
X384164Y266671D01*
X384192Y266593D01*
X384220Y266521D01*
X384253Y266455D01*
X384286Y266399D01*
X384325Y266344D01*
X384358Y266294D01*
X384386Y266249D01*
X384419Y266216D01*
X384447Y266183D01*
X384469Y266155D01*
X384491Y266138D01*
X384508Y266122D01*
X384514Y266116D01*
X384519Y266110D01*
X384575Y266066D01*
X384636Y266033D01*
X384758Y265972D01*
X384874Y265927D01*
X384991Y265900D01*
X385091Y265877D01*
X385130Y265872D01*
X385169D01*
X385202Y265866D01*
X385241D01*
X385368Y265872D01*
X385490Y265894D01*
X385601Y265922D01*
X385701Y265955D01*
X385779Y265988D01*
X385812Y266005D01*
X385840Y266016D01*
X385862Y266027D01*
X385879Y266038D01*
X385890Y266044D01*
X385896D01*
X386001Y266122D01*
X386090Y266205D01*
X386168Y266299D01*
X386228Y266388D01*
X386279Y266466D01*
X386312Y266532D01*
X386323Y266560D01*
X386334Y266577D01*
X386340Y266588D01*
Y266593D01*
X386384Y266738D01*
X386417Y266882D01*
X386445Y267026D01*
X386462Y267160D01*
X386467Y267220D01*
X386473Y267276D01*
Y267326D01*
X386478Y267365D01*
Y267398D01*
Y267426D01*
Y267442D01*
Y267448D01*
X386473Y267592D01*
X386462Y267726D01*
X386439Y267848D01*
X386417Y267959D01*
X386401Y268053D01*
X386389Y268092D01*
X386378Y268125D01*
X386373Y268153D01*
X386367Y268169D01*
X386362Y268181D01*
Y268186D01*
X386306Y268314D01*
X386245Y268430D01*
X386179Y268525D01*
X386106Y268608D01*
X386045Y268675D01*
X385995Y268719D01*
X385957Y268747D01*
X385951Y268758D01*
X385946D01*
X385829Y268830D01*
X385701Y268885D01*
X385579Y268924D01*
X385463Y268947D01*
X385357Y268963D01*
X385313Y268969D01*
X385274D01*
X385246Y268974D01*
X385202D01*
X385063Y268969D01*
X384935Y268947D01*
X384830Y268913D01*
X384736Y268880D01*
X384664Y268841D01*
X384608Y268813D01*
X384575Y268791D01*
X384563Y268780D01*
X384475Y268697D01*
X384391Y268602D01*
X384325Y268503D01*
X384269Y268403D01*
X384225Y268314D01*
X384208Y268269D01*
X384197Y268236D01*
X384186Y268208D01*
X384175Y268186D01*
X384170Y268175D01*
Y268169D01*
X383670Y268286D01*
X383703Y268386D01*
X383737Y268475D01*
X383781Y268558D01*
X383820Y268641D01*
X383864Y268713D01*
X383914Y268780D01*
X383959Y268847D01*
X384003Y268902D01*
X384047Y268947D01*
X384086Y268991D01*
X384125Y269030D01*
X384153Y269057D01*
X384181Y269085D01*
X384203Y269102D01*
X384214Y269108D01*
X384220Y269113D01*
X384297Y269163D01*
X384375Y269213D01*
X384453Y269252D01*
X384536Y269285D01*
X384702Y269335D01*
X384852Y269368D01*
X384924Y269385D01*
X384985Y269391D01*
X385046Y269396D01*
X385096Y269402D01*
X385135Y269407D01*
X385191D01*
X385374Y269396D01*
D02*
G37*
G36*
X366255Y333863D02*
X366316Y333774D01*
X366389Y333685D01*
X366455Y333608D01*
X366522Y333541D01*
X366572Y333486D01*
X366594Y333469D01*
X366610Y333452D01*
X366616Y333447D01*
X366621Y333441D01*
X366738Y333347D01*
X366855Y333258D01*
X366966Y333180D01*
X367077Y333119D01*
X367171Y333064D01*
X367210Y333042D01*
X367243Y333025D01*
X367271Y333008D01*
X367293Y333003D01*
X367304Y332992D01*
X367310D01*
Y332537D01*
X367227Y332570D01*
X367143Y332609D01*
X367060Y332647D01*
X366982Y332686D01*
X366916Y332720D01*
X366860Y332747D01*
X366827Y332769D01*
X366821Y332775D01*
X366816D01*
X366716Y332836D01*
X366627Y332897D01*
X366549Y332953D01*
X366488Y333003D01*
X366433Y333042D01*
X366400Y333075D01*
X366372Y333097D01*
X366366Y333103D01*
Y330100D01*
X365895D01*
Y333957D01*
X366200D01*
X366255Y333863D01*
D02*
G37*
G36*
X369874Y333996D02*
X370052Y333968D01*
X370207Y333935D01*
X370279Y333913D01*
X370346Y333891D01*
X370407Y333868D01*
X370462Y333846D01*
X370507Y333830D01*
X370551Y333813D01*
X370579Y333796D01*
X370601Y333785D01*
X370618Y333780D01*
X370623Y333774D01*
X370773Y333680D01*
X370901Y333569D01*
X371012Y333458D01*
X371106Y333347D01*
X371178Y333247D01*
X371206Y333202D01*
X371228Y333164D01*
X371250Y333136D01*
X371261Y333114D01*
X371267Y333097D01*
X371272Y333091D01*
X371350Y332919D01*
X371406Y332742D01*
X371445Y332564D01*
X371472Y332403D01*
X371483Y332331D01*
X371489Y332259D01*
X371495Y332204D01*
Y332148D01*
X371500Y332109D01*
Y332076D01*
Y332054D01*
Y332048D01*
X371489Y331848D01*
X371467Y331654D01*
X371439Y331482D01*
X371417Y331399D01*
X371400Y331327D01*
X371383Y331260D01*
X371361Y331199D01*
X371345Y331143D01*
X371334Y331099D01*
X371317Y331066D01*
X371311Y331038D01*
X371300Y331021D01*
Y331016D01*
X371217Y330849D01*
X371123Y330699D01*
X371023Y330572D01*
X370973Y330522D01*
X370928Y330472D01*
X370884Y330427D01*
X370840Y330389D01*
X370801Y330355D01*
X370767Y330333D01*
X370745Y330311D01*
X370723Y330294D01*
X370712Y330289D01*
X370706Y330283D01*
X370629Y330239D01*
X370551Y330200D01*
X370385Y330139D01*
X370218Y330095D01*
X370057Y330067D01*
X369979Y330056D01*
X369913Y330045D01*
X369852Y330039D01*
X369802D01*
X369757Y330033D01*
X369696D01*
X369585Y330039D01*
X369480Y330050D01*
X369380Y330061D01*
X369286Y330083D01*
X369197Y330111D01*
X369113Y330139D01*
X369036Y330167D01*
X368964Y330200D01*
X368903Y330228D01*
X368842Y330255D01*
X368797Y330283D01*
X368753Y330311D01*
X368725Y330333D01*
X368697Y330344D01*
X368686Y330355D01*
X368681Y330361D01*
X368603Y330427D01*
X368536Y330494D01*
X368475Y330572D01*
X368414Y330649D01*
X368314Y330805D01*
X368237Y330960D01*
X368203Y331032D01*
X368176Y331099D01*
X368153Y331160D01*
X368137Y331210D01*
X368120Y331254D01*
X368109Y331288D01*
X368103Y331310D01*
Y331315D01*
X368614Y331443D01*
X368636Y331354D01*
X368664Y331271D01*
X368692Y331193D01*
X368720Y331121D01*
X368753Y331055D01*
X368786Y330999D01*
X368825Y330944D01*
X368858Y330894D01*
X368886Y330849D01*
X368919Y330816D01*
X368947Y330783D01*
X368969Y330755D01*
X368991Y330738D01*
X369008Y330722D01*
X369014Y330716D01*
X369019Y330711D01*
X369075Y330666D01*
X369136Y330633D01*
X369258Y330572D01*
X369374Y330527D01*
X369491Y330500D01*
X369591Y330477D01*
X369630Y330472D01*
X369669D01*
X369702Y330466D01*
X369741D01*
X369868Y330472D01*
X369990Y330494D01*
X370101Y330522D01*
X370201Y330555D01*
X370279Y330588D01*
X370312Y330605D01*
X370340Y330616D01*
X370362Y330627D01*
X370379Y330638D01*
X370390Y330644D01*
X370396D01*
X370501Y330722D01*
X370590Y330805D01*
X370668Y330899D01*
X370728Y330988D01*
X370778Y331066D01*
X370812Y331132D01*
X370823Y331160D01*
X370834Y331177D01*
X370840Y331188D01*
Y331193D01*
X370884Y331338D01*
X370917Y331482D01*
X370945Y331626D01*
X370962Y331760D01*
X370967Y331821D01*
X370973Y331876D01*
Y331926D01*
X370978Y331965D01*
Y331998D01*
Y332026D01*
Y332043D01*
Y332048D01*
X370973Y332192D01*
X370962Y332326D01*
X370939Y332448D01*
X370917Y332559D01*
X370901Y332653D01*
X370889Y332692D01*
X370878Y332725D01*
X370873Y332753D01*
X370867Y332769D01*
X370862Y332781D01*
Y332786D01*
X370806Y332914D01*
X370745Y333030D01*
X370679Y333125D01*
X370606Y333208D01*
X370545Y333275D01*
X370495Y333319D01*
X370457Y333347D01*
X370451Y333358D01*
X370445D01*
X370329Y333430D01*
X370201Y333486D01*
X370079Y333524D01*
X369963Y333546D01*
X369857Y333563D01*
X369813Y333569D01*
X369774D01*
X369746Y333574D01*
X369702D01*
X369563Y333569D01*
X369435Y333546D01*
X369330Y333513D01*
X369236Y333480D01*
X369163Y333441D01*
X369108Y333413D01*
X369075Y333391D01*
X369063Y333380D01*
X368975Y333297D01*
X368892Y333202D01*
X368825Y333103D01*
X368769Y333003D01*
X368725Y332914D01*
X368708Y332870D01*
X368697Y332836D01*
X368686Y332808D01*
X368675Y332786D01*
X368670Y332775D01*
Y332769D01*
X368170Y332886D01*
X368203Y332986D01*
X368237Y333075D01*
X368281Y333158D01*
X368320Y333241D01*
X368364Y333313D01*
X368414Y333380D01*
X368459Y333447D01*
X368503Y333502D01*
X368547Y333546D01*
X368586Y333591D01*
X368625Y333630D01*
X368653Y333658D01*
X368681Y333685D01*
X368703Y333702D01*
X368714Y333707D01*
X368720Y333713D01*
X368797Y333763D01*
X368875Y333813D01*
X368953Y333852D01*
X369036Y333885D01*
X369202Y333935D01*
X369352Y333968D01*
X369424Y333985D01*
X369485Y333991D01*
X369546Y333996D01*
X369596Y334002D01*
X369635Y334007D01*
X369691D01*
X369874Y333996D01*
D02*
G37*
G36*
X363580Y333946D02*
X363719Y333924D01*
X363835Y333885D01*
X363935Y333846D01*
X364019Y333802D01*
X364052Y333785D01*
X364080Y333763D01*
X364102Y333752D01*
X364119Y333741D01*
X364124Y333730D01*
X364130D01*
X364229Y333641D01*
X364313Y333535D01*
X364385Y333430D01*
X364440Y333330D01*
X364485Y333236D01*
X364507Y333197D01*
X364518Y333158D01*
X364529Y333130D01*
X364540Y333108D01*
X364546Y333097D01*
Y333091D01*
X364568Y333008D01*
X364590Y332925D01*
X364623Y332742D01*
X364651Y332559D01*
X364668Y332387D01*
X364673Y332303D01*
X364679Y332231D01*
Y332165D01*
X364685Y332103D01*
Y332059D01*
Y332020D01*
Y331998D01*
Y331993D01*
X364679Y331798D01*
X364668Y331615D01*
X364651Y331449D01*
X364623Y331293D01*
X364596Y331149D01*
X364563Y331021D01*
X364529Y330905D01*
X364496Y330805D01*
X364463Y330716D01*
X364424Y330638D01*
X364396Y330572D01*
X364368Y330522D01*
X364340Y330477D01*
X364324Y330450D01*
X364313Y330433D01*
X364307Y330427D01*
X364246Y330361D01*
X364180Y330300D01*
X364107Y330244D01*
X364035Y330200D01*
X363963Y330161D01*
X363891Y330128D01*
X363819Y330105D01*
X363752Y330083D01*
X363686Y330067D01*
X363625Y330056D01*
X363569Y330045D01*
X363525Y330039D01*
X363486Y330033D01*
X363430D01*
X363281Y330045D01*
X363142Y330067D01*
X363025Y330105D01*
X362925Y330144D01*
X362842Y330183D01*
X362814Y330205D01*
X362787Y330222D01*
X362764Y330233D01*
X362748Y330244D01*
X362742Y330255D01*
X362737D01*
X362637Y330350D01*
X362553Y330450D01*
X362481Y330561D01*
X362426Y330661D01*
X362381Y330755D01*
X362359Y330794D01*
X362348Y330833D01*
X362337Y330860D01*
X362326Y330883D01*
X362320Y330894D01*
Y330899D01*
X362293Y330982D01*
X362270Y331066D01*
X362237Y331243D01*
X362209Y331427D01*
X362193Y331604D01*
X362187Y331682D01*
X362182Y331754D01*
Y331821D01*
X362176Y331882D01*
Y331926D01*
Y331965D01*
Y331987D01*
Y331993D01*
Y332098D01*
X362182Y332198D01*
Y332287D01*
X362187Y332376D01*
X362198Y332453D01*
X362204Y332531D01*
X362209Y332597D01*
X362220Y332659D01*
X362226Y332714D01*
X362237Y332764D01*
X362243Y332803D01*
X362248Y332836D01*
X362254Y332864D01*
X362259Y332880D01*
X362265Y332892D01*
Y332897D01*
X362298Y333019D01*
X362337Y333130D01*
X362381Y333225D01*
X362415Y333308D01*
X362454Y333380D01*
X362476Y333430D01*
X362498Y333458D01*
X362504Y333469D01*
X362564Y333552D01*
X362626Y333624D01*
X362692Y333685D01*
X362753Y333741D01*
X362809Y333780D01*
X362853Y333807D01*
X362881Y333824D01*
X362886Y333830D01*
X362892D01*
X362981Y333874D01*
X363075Y333902D01*
X363164Y333924D01*
X363247Y333941D01*
X363319Y333952D01*
X363380Y333957D01*
X363430D01*
X363580Y333946D01*
D02*
G37*
G36*
X391060Y355352D02*
X391149Y355341D01*
X391238Y355324D01*
X391316Y355302D01*
X391466Y355241D01*
X391532Y355213D01*
X391588Y355180D01*
X391643Y355141D01*
X391688Y355113D01*
X391732Y355080D01*
X391765Y355052D01*
X391793Y355030D01*
X391810Y355013D01*
X391821Y355002D01*
X391826Y354996D01*
X391887Y354930D01*
X391937Y354852D01*
X391987Y354780D01*
X392026Y354702D01*
X392059Y354619D01*
X392087Y354541D01*
X392126Y354397D01*
X392143Y354325D01*
X392154Y354264D01*
X392159Y354203D01*
X392165Y354153D01*
X392171Y354114D01*
Y354086D01*
Y354064D01*
Y354059D01*
X392165Y353953D01*
X392154Y353859D01*
X392143Y353764D01*
X392121Y353676D01*
X392093Y353598D01*
X392065Y353520D01*
X392037Y353454D01*
X392004Y353393D01*
X391976Y353337D01*
X391949Y353287D01*
X391921Y353248D01*
X391893Y353209D01*
X391871Y353182D01*
X391860Y353165D01*
X391849Y353154D01*
X391843Y353148D01*
X391782Y353087D01*
X391715Y353037D01*
X391649Y352987D01*
X391577Y352948D01*
X391510Y352915D01*
X391443Y352888D01*
X391316Y352849D01*
X391260Y352832D01*
X391205Y352821D01*
X391160Y352815D01*
X391116Y352810D01*
X391083Y352804D01*
X391038D01*
X390933Y352810D01*
X390833Y352826D01*
X390744Y352849D01*
X390661Y352876D01*
X390600Y352899D01*
X390550Y352921D01*
X390517Y352937D01*
X390506Y352943D01*
X390417Y352998D01*
X390339Y353060D01*
X390272Y353121D01*
X390217Y353176D01*
X390178Y353232D01*
X390145Y353270D01*
X390123Y353298D01*
X390117Y353309D01*
Y353265D01*
Y353237D01*
Y353221D01*
Y353215D01*
X390123Y353104D01*
X390128Y352998D01*
X390139Y352904D01*
X390150Y352815D01*
X390167Y352743D01*
X390178Y352688D01*
X390184Y352665D01*
Y352649D01*
X390189Y352643D01*
Y352638D01*
X390217Y352538D01*
X390245Y352449D01*
X390272Y352371D01*
X390300Y352305D01*
X390322Y352255D01*
X390345Y352216D01*
X390356Y352188D01*
X390361Y352183D01*
X390406Y352122D01*
X390450Y352072D01*
X390494Y352027D01*
X390539Y351988D01*
X390572Y351955D01*
X390605Y351933D01*
X390628Y351922D01*
X390633Y351916D01*
X390694Y351883D01*
X390761Y351861D01*
X390822Y351844D01*
X390883Y351833D01*
X390933Y351827D01*
X390972Y351822D01*
X391011D01*
X391099Y351827D01*
X391183Y351844D01*
X391255Y351866D01*
X391316Y351894D01*
X391360Y351916D01*
X391399Y351939D01*
X391421Y351955D01*
X391427Y351961D01*
X391482Y352022D01*
X391527Y352094D01*
X391565Y352171D01*
X391593Y352249D01*
X391616Y352316D01*
X391632Y352377D01*
X391638Y352399D01*
Y352410D01*
X391643Y352421D01*
Y352427D01*
X392098Y352388D01*
X392065Y352227D01*
X392021Y352088D01*
X391965Y351966D01*
X391910Y351866D01*
X391854Y351789D01*
X391826Y351755D01*
X391804Y351728D01*
X391788Y351711D01*
X391771Y351694D01*
X391765Y351689D01*
X391760Y351683D01*
X391704Y351639D01*
X391643Y351600D01*
X391521Y351539D01*
X391399Y351495D01*
X391283Y351467D01*
X391177Y351445D01*
X391133Y351439D01*
X391094D01*
X391066Y351433D01*
X391022D01*
X390866Y351445D01*
X390727Y351467D01*
X390600Y351505D01*
X390494Y351550D01*
X390450Y351567D01*
X390406Y351589D01*
X390372Y351611D01*
X390339Y351628D01*
X390317Y351639D01*
X390300Y351650D01*
X390289Y351661D01*
X390283D01*
X390173Y351755D01*
X390073Y351861D01*
X389995Y351972D01*
X389928Y352077D01*
X389873Y352171D01*
X389851Y352216D01*
X389834Y352249D01*
X389823Y352283D01*
X389812Y352305D01*
X389806Y352316D01*
Y352321D01*
X389778Y352405D01*
X389751Y352499D01*
X389712Y352688D01*
X389684Y352888D01*
X389668Y353076D01*
X389656Y353159D01*
X389651Y353243D01*
Y353315D01*
X389645Y353376D01*
Y353426D01*
Y353465D01*
Y353492D01*
Y353498D01*
Y353626D01*
X389651Y353748D01*
X389662Y353859D01*
X389673Y353964D01*
X389684Y354059D01*
X389695Y354147D01*
X389712Y354231D01*
X389728Y354303D01*
X389745Y354364D01*
X389756Y354419D01*
X389773Y354469D01*
X389784Y354508D01*
X389795Y354536D01*
X389806Y354558D01*
X389812Y354569D01*
Y354575D01*
X389878Y354708D01*
X389950Y354824D01*
X390034Y354924D01*
X390106Y355008D01*
X390178Y355069D01*
X390234Y355113D01*
X390256Y355130D01*
X390272Y355141D01*
X390278Y355152D01*
X390283D01*
X390400Y355219D01*
X390517Y355268D01*
X390633Y355307D01*
X390739Y355329D01*
X390833Y355346D01*
X390872Y355352D01*
X390899D01*
X390927Y355357D01*
X390966D01*
X391060Y355352D01*
D02*
G37*
G36*
X394374Y355396D02*
X394551Y355368D01*
X394707Y355335D01*
X394779Y355313D01*
X394846Y355291D01*
X394907Y355268D01*
X394962Y355246D01*
X395007Y355230D01*
X395051Y355213D01*
X395079Y355196D01*
X395101Y355185D01*
X395117Y355180D01*
X395123Y355174D01*
X395273Y355080D01*
X395401Y354969D01*
X395512Y354858D01*
X395606Y354747D01*
X395678Y354647D01*
X395706Y354602D01*
X395728Y354564D01*
X395750Y354536D01*
X395761Y354514D01*
X395767Y354497D01*
X395772Y354491D01*
X395850Y354319D01*
X395906Y354142D01*
X395944Y353964D01*
X395972Y353803D01*
X395983Y353731D01*
X395989Y353659D01*
X395994Y353604D01*
Y353548D01*
X396000Y353509D01*
Y353476D01*
Y353454D01*
Y353448D01*
X395989Y353248D01*
X395967Y353054D01*
X395939Y352882D01*
X395917Y352799D01*
X395900Y352727D01*
X395883Y352660D01*
X395861Y352599D01*
X395845Y352543D01*
X395833Y352499D01*
X395817Y352466D01*
X395811Y352438D01*
X395800Y352421D01*
Y352416D01*
X395717Y352249D01*
X395623Y352099D01*
X395523Y351972D01*
X395473Y351922D01*
X395428Y351872D01*
X395384Y351827D01*
X395340Y351789D01*
X395301Y351755D01*
X395267Y351733D01*
X395245Y351711D01*
X395223Y351694D01*
X395212Y351689D01*
X395206Y351683D01*
X395129Y351639D01*
X395051Y351600D01*
X394884Y351539D01*
X394718Y351495D01*
X394557Y351467D01*
X394479Y351456D01*
X394413Y351445D01*
X394352Y351439D01*
X394302D01*
X394257Y351433D01*
X394196D01*
X394085Y351439D01*
X393980Y351450D01*
X393880Y351461D01*
X393786Y351483D01*
X393697Y351511D01*
X393614Y351539D01*
X393536Y351567D01*
X393464Y351600D01*
X393403Y351628D01*
X393342Y351655D01*
X393297Y351683D01*
X393253Y351711D01*
X393225Y351733D01*
X393197Y351744D01*
X393186Y351755D01*
X393181Y351761D01*
X393103Y351827D01*
X393036Y351894D01*
X392975Y351972D01*
X392914Y352049D01*
X392814Y352205D01*
X392737Y352360D01*
X392703Y352432D01*
X392676Y352499D01*
X392653Y352560D01*
X392637Y352610D01*
X392620Y352654D01*
X392609Y352688D01*
X392603Y352710D01*
Y352715D01*
X393114Y352843D01*
X393136Y352754D01*
X393164Y352671D01*
X393192Y352593D01*
X393219Y352521D01*
X393253Y352455D01*
X393286Y352399D01*
X393325Y352344D01*
X393358Y352294D01*
X393386Y352249D01*
X393419Y352216D01*
X393447Y352183D01*
X393469Y352155D01*
X393491Y352138D01*
X393508Y352122D01*
X393514Y352116D01*
X393519Y352111D01*
X393575Y352066D01*
X393636Y352033D01*
X393758Y351972D01*
X393874Y351927D01*
X393991Y351900D01*
X394091Y351877D01*
X394130Y351872D01*
X394168D01*
X394202Y351866D01*
X394241D01*
X394368Y351872D01*
X394490Y351894D01*
X394601Y351922D01*
X394701Y351955D01*
X394779Y351988D01*
X394812Y352005D01*
X394840Y352016D01*
X394862Y352027D01*
X394879Y352038D01*
X394890Y352044D01*
X394896D01*
X395001Y352122D01*
X395090Y352205D01*
X395167Y352299D01*
X395229Y352388D01*
X395279Y352466D01*
X395312Y352532D01*
X395323Y352560D01*
X395334Y352577D01*
X395340Y352588D01*
Y352593D01*
X395384Y352738D01*
X395417Y352882D01*
X395445Y353026D01*
X395462Y353159D01*
X395467Y353221D01*
X395473Y353276D01*
Y353326D01*
X395478Y353365D01*
Y353398D01*
Y353426D01*
Y353443D01*
Y353448D01*
X395473Y353592D01*
X395462Y353726D01*
X395439Y353848D01*
X395417Y353959D01*
X395401Y354053D01*
X395390Y354092D01*
X395378Y354125D01*
X395373Y354153D01*
X395367Y354170D01*
X395362Y354181D01*
Y354186D01*
X395306Y354314D01*
X395245Y354430D01*
X395179Y354525D01*
X395106Y354608D01*
X395045Y354675D01*
X394995Y354719D01*
X394957Y354747D01*
X394951Y354758D01*
X394946D01*
X394829Y354830D01*
X394701Y354886D01*
X394579Y354924D01*
X394463Y354946D01*
X394357Y354963D01*
X394313Y354969D01*
X394274D01*
X394246Y354974D01*
X394202D01*
X394063Y354969D01*
X393935Y354946D01*
X393830Y354913D01*
X393736Y354880D01*
X393664Y354841D01*
X393608Y354813D01*
X393575Y354791D01*
X393564Y354780D01*
X393475Y354697D01*
X393391Y354602D01*
X393325Y354503D01*
X393269Y354403D01*
X393225Y354314D01*
X393208Y354270D01*
X393197Y354236D01*
X393186Y354208D01*
X393175Y354186D01*
X393169Y354175D01*
Y354170D01*
X392670Y354286D01*
X392703Y354386D01*
X392737Y354475D01*
X392781Y354558D01*
X392820Y354641D01*
X392864Y354714D01*
X392914Y354780D01*
X392959Y354847D01*
X393003Y354902D01*
X393047Y354946D01*
X393086Y354991D01*
X393125Y355030D01*
X393153Y355058D01*
X393181Y355085D01*
X393203Y355102D01*
X393214Y355107D01*
X393219Y355113D01*
X393297Y355163D01*
X393375Y355213D01*
X393453Y355252D01*
X393536Y355285D01*
X393702Y355335D01*
X393852Y355368D01*
X393924Y355385D01*
X393985Y355391D01*
X394046Y355396D01*
X394096Y355402D01*
X394135Y355407D01*
X394191D01*
X394374Y355396D01*
D02*
G37*
G36*
X411874Y355896D02*
X412051Y355868D01*
X412207Y355835D01*
X412279Y355813D01*
X412346Y355791D01*
X412407Y355768D01*
X412462Y355746D01*
X412506Y355730D01*
X412551Y355713D01*
X412579Y355696D01*
X412601Y355685D01*
X412618Y355680D01*
X412623Y355674D01*
X412773Y355580D01*
X412901Y355469D01*
X413012Y355358D01*
X413106Y355247D01*
X413178Y355147D01*
X413206Y355102D01*
X413228Y355064D01*
X413250Y355036D01*
X413261Y355014D01*
X413267Y354997D01*
X413272Y354991D01*
X413350Y354819D01*
X413406Y354642D01*
X413445Y354464D01*
X413472Y354303D01*
X413483Y354231D01*
X413489Y354159D01*
X413494Y354103D01*
Y354048D01*
X413500Y354009D01*
Y353976D01*
Y353954D01*
Y353948D01*
X413489Y353748D01*
X413467Y353554D01*
X413439Y353382D01*
X413417Y353299D01*
X413400Y353226D01*
X413383Y353160D01*
X413361Y353099D01*
X413345Y353043D01*
X413334Y352999D01*
X413317Y352966D01*
X413311Y352938D01*
X413300Y352921D01*
Y352916D01*
X413217Y352749D01*
X413123Y352599D01*
X413023Y352472D01*
X412973Y352422D01*
X412928Y352372D01*
X412884Y352327D01*
X412840Y352289D01*
X412801Y352255D01*
X412767Y352233D01*
X412745Y352211D01*
X412723Y352194D01*
X412712Y352189D01*
X412706Y352183D01*
X412629Y352139D01*
X412551Y352100D01*
X412385Y352039D01*
X412218Y351994D01*
X412057Y351967D01*
X411979Y351956D01*
X411913Y351944D01*
X411852Y351939D01*
X411802D01*
X411757Y351933D01*
X411696D01*
X411585Y351939D01*
X411480Y351950D01*
X411380Y351961D01*
X411285Y351983D01*
X411197Y352011D01*
X411114Y352039D01*
X411036Y352067D01*
X410964Y352100D01*
X410903Y352128D01*
X410842Y352155D01*
X410797Y352183D01*
X410753Y352211D01*
X410725Y352233D01*
X410697Y352244D01*
X410686Y352255D01*
X410681Y352261D01*
X410603Y352327D01*
X410536Y352394D01*
X410475Y352472D01*
X410414Y352549D01*
X410314Y352705D01*
X410237Y352860D01*
X410203Y352932D01*
X410176Y352999D01*
X410153Y353060D01*
X410137Y353110D01*
X410120Y353154D01*
X410109Y353188D01*
X410103Y353210D01*
Y353216D01*
X410614Y353343D01*
X410636Y353254D01*
X410664Y353171D01*
X410692Y353093D01*
X410719Y353021D01*
X410753Y352955D01*
X410786Y352899D01*
X410825Y352844D01*
X410858Y352794D01*
X410886Y352749D01*
X410919Y352716D01*
X410947Y352683D01*
X410969Y352655D01*
X410991Y352638D01*
X411008Y352622D01*
X411014Y352616D01*
X411019Y352610D01*
X411075Y352566D01*
X411136Y352533D01*
X411258Y352472D01*
X411374Y352427D01*
X411491Y352400D01*
X411591Y352377D01*
X411630Y352372D01*
X411668D01*
X411702Y352366D01*
X411741D01*
X411868Y352372D01*
X411990Y352394D01*
X412101Y352422D01*
X412201Y352455D01*
X412279Y352488D01*
X412312Y352505D01*
X412340Y352516D01*
X412362Y352527D01*
X412379Y352538D01*
X412390Y352544D01*
X412396D01*
X412501Y352622D01*
X412590Y352705D01*
X412668Y352799D01*
X412729Y352888D01*
X412779Y352966D01*
X412812Y353032D01*
X412823Y353060D01*
X412834Y353077D01*
X412840Y353088D01*
Y353093D01*
X412884Y353238D01*
X412917Y353382D01*
X412945Y353526D01*
X412962Y353660D01*
X412967Y353720D01*
X412973Y353776D01*
Y353826D01*
X412978Y353865D01*
Y353898D01*
Y353926D01*
Y353942D01*
Y353948D01*
X412973Y354092D01*
X412962Y354226D01*
X412940Y354348D01*
X412917Y354459D01*
X412901Y354553D01*
X412889Y354592D01*
X412878Y354625D01*
X412873Y354653D01*
X412867Y354669D01*
X412862Y354681D01*
Y354686D01*
X412806Y354814D01*
X412745Y354930D01*
X412679Y355025D01*
X412606Y355108D01*
X412545Y355175D01*
X412495Y355219D01*
X412457Y355247D01*
X412451Y355258D01*
X412445D01*
X412329Y355330D01*
X412201Y355385D01*
X412079Y355424D01*
X411963Y355447D01*
X411857Y355463D01*
X411813Y355469D01*
X411774D01*
X411746Y355474D01*
X411702D01*
X411563Y355469D01*
X411435Y355447D01*
X411330Y355413D01*
X411236Y355380D01*
X411164Y355341D01*
X411108Y355313D01*
X411075Y355291D01*
X411064Y355280D01*
X410975Y355197D01*
X410891Y355102D01*
X410825Y355003D01*
X410769Y354903D01*
X410725Y354814D01*
X410708Y354769D01*
X410697Y354736D01*
X410686Y354708D01*
X410675Y354686D01*
X410670Y354675D01*
Y354669D01*
X410170Y354786D01*
X410203Y354886D01*
X410237Y354975D01*
X410281Y355058D01*
X410320Y355141D01*
X410364Y355213D01*
X410414Y355280D01*
X410459Y355347D01*
X410503Y355402D01*
X410547Y355447D01*
X410586Y355491D01*
X410625Y355530D01*
X410653Y355557D01*
X410681Y355585D01*
X410703Y355602D01*
X410714Y355608D01*
X410719Y355613D01*
X410797Y355663D01*
X410875Y355713D01*
X410953Y355752D01*
X411036Y355785D01*
X411202Y355835D01*
X411352Y355868D01*
X411424Y355885D01*
X411485Y355890D01*
X411546Y355896D01*
X411596Y355902D01*
X411635Y355907D01*
X411691D01*
X411874Y355896D01*
D02*
G37*
G36*
X408511Y355852D02*
X408599Y355846D01*
X408755Y355813D01*
X408827Y355791D01*
X408893Y355768D01*
X408955Y355741D01*
X409010Y355713D01*
X409054Y355685D01*
X409099Y355658D01*
X409138Y355635D01*
X409165Y355613D01*
X409188Y355596D01*
X409204Y355580D01*
X409215Y355574D01*
X409221Y355569D01*
X409271Y355513D01*
X409321Y355458D01*
X409360Y355397D01*
X409393Y355336D01*
X409448Y355219D01*
X409482Y355108D01*
X409504Y355014D01*
X409510Y354969D01*
X409515Y354936D01*
X409521Y354903D01*
Y354880D01*
Y354869D01*
Y354864D01*
X409515Y354764D01*
X409499Y354669D01*
X409476Y354586D01*
X409448Y354514D01*
X409426Y354459D01*
X409404Y354414D01*
X409387Y354392D01*
X409382Y354381D01*
X409321Y354314D01*
X409254Y354253D01*
X409182Y354198D01*
X409110Y354153D01*
X409043Y354120D01*
X408993Y354098D01*
X408971Y354087D01*
X408955Y354081D01*
X408949Y354076D01*
X408943D01*
X409071Y354037D01*
X409176Y353987D01*
X409271Y353926D01*
X409349Y353870D01*
X409410Y353815D01*
X409454Y353770D01*
X409476Y353743D01*
X409487Y353737D01*
Y353732D01*
X409548Y353632D01*
X409598Y353526D01*
X409632Y353426D01*
X409654Y353327D01*
X409665Y353238D01*
X409670Y353199D01*
Y353166D01*
X409676Y353143D01*
Y353121D01*
Y353110D01*
Y353104D01*
X409670Y353016D01*
X409659Y352927D01*
X409643Y352844D01*
X409621Y352760D01*
X409565Y352622D01*
X409537Y352555D01*
X409504Y352500D01*
X409471Y352444D01*
X409443Y352400D01*
X409410Y352361D01*
X409387Y352327D01*
X409365Y352300D01*
X409349Y352283D01*
X409338Y352272D01*
X409332Y352266D01*
X409265Y352205D01*
X409193Y352155D01*
X409116Y352111D01*
X409038Y352072D01*
X408966Y352044D01*
X408888Y352017D01*
X408738Y351978D01*
X408672Y351961D01*
X408610Y351950D01*
X408555Y351944D01*
X408505Y351939D01*
X408466Y351933D01*
X408411D01*
X408305Y351939D01*
X408211Y351950D01*
X408116Y351967D01*
X408028Y351983D01*
X407950Y352011D01*
X407872Y352039D01*
X407800Y352067D01*
X407739Y352100D01*
X407684Y352133D01*
X407634Y352161D01*
X407595Y352189D01*
X407556Y352216D01*
X407528Y352233D01*
X407512Y352250D01*
X407501Y352261D01*
X407495Y352266D01*
X407434Y352333D01*
X407378Y352400D01*
X407334Y352466D01*
X407295Y352538D01*
X407256Y352605D01*
X407229Y352677D01*
X407190Y352805D01*
X407173Y352866D01*
X407162Y352921D01*
X407156Y352971D01*
X407151Y353010D01*
X407145Y353043D01*
Y353071D01*
Y353088D01*
Y353093D01*
X407151Y353221D01*
X407173Y353338D01*
X407206Y353443D01*
X407240Y353532D01*
X407273Y353604D01*
X407306Y353660D01*
X407328Y353693D01*
X407334Y353698D01*
Y353704D01*
X407412Y353793D01*
X407495Y353870D01*
X407584Y353931D01*
X407667Y353987D01*
X407745Y354026D01*
X407811Y354053D01*
X407833Y354065D01*
X407850Y354070D01*
X407861Y354076D01*
X407867D01*
X407767Y354120D01*
X407684Y354170D01*
X407612Y354220D01*
X407550Y354270D01*
X407506Y354314D01*
X407473Y354348D01*
X407450Y354370D01*
X407445Y354381D01*
X407395Y354459D01*
X407362Y354536D01*
X407334Y354614D01*
X407317Y354692D01*
X407306Y354753D01*
X407301Y354803D01*
Y354836D01*
Y354842D01*
Y354847D01*
X407306Y354925D01*
X407312Y354997D01*
X407351Y355136D01*
X407401Y355258D01*
X407456Y355363D01*
X407512Y355447D01*
X407539Y355480D01*
X407561Y355513D01*
X407584Y355535D01*
X407600Y355552D01*
X407606Y355557D01*
X407612Y355563D01*
X407673Y355613D01*
X407734Y355663D01*
X407800Y355702D01*
X407867Y355735D01*
X408000Y355785D01*
X408133Y355818D01*
X408189Y355835D01*
X408244Y355841D01*
X408294Y355846D01*
X408338Y355852D01*
X408372Y355857D01*
X408422D01*
X408511Y355852D01*
D02*
G37*
G36*
X419874Y334896D02*
X420051Y334868D01*
X420207Y334835D01*
X420279Y334813D01*
X420346Y334791D01*
X420407Y334768D01*
X420462Y334746D01*
X420506Y334730D01*
X420551Y334713D01*
X420579Y334696D01*
X420601Y334685D01*
X420618Y334680D01*
X420623Y334674D01*
X420773Y334580D01*
X420901Y334469D01*
X421012Y334358D01*
X421106Y334247D01*
X421178Y334147D01*
X421206Y334102D01*
X421228Y334064D01*
X421250Y334036D01*
X421261Y334014D01*
X421267Y333997D01*
X421273Y333991D01*
X421350Y333819D01*
X421406Y333642D01*
X421445Y333464D01*
X421472Y333303D01*
X421483Y333231D01*
X421489Y333159D01*
X421494Y333103D01*
Y333048D01*
X421500Y333009D01*
Y332976D01*
Y332954D01*
Y332948D01*
X421489Y332748D01*
X421467Y332554D01*
X421439Y332382D01*
X421417Y332299D01*
X421400Y332226D01*
X421383Y332160D01*
X421361Y332099D01*
X421345Y332043D01*
X421334Y331999D01*
X421317Y331966D01*
X421311Y331938D01*
X421300Y331921D01*
Y331916D01*
X421217Y331749D01*
X421123Y331599D01*
X421023Y331472D01*
X420973Y331422D01*
X420928Y331372D01*
X420884Y331327D01*
X420840Y331289D01*
X420801Y331255D01*
X420767Y331233D01*
X420745Y331211D01*
X420723Y331194D01*
X420712Y331189D01*
X420706Y331183D01*
X420629Y331139D01*
X420551Y331100D01*
X420385Y331039D01*
X420218Y330995D01*
X420057Y330967D01*
X419979Y330956D01*
X419913Y330944D01*
X419852Y330939D01*
X419802D01*
X419757Y330933D01*
X419696D01*
X419585Y330939D01*
X419480Y330950D01*
X419380Y330961D01*
X419285Y330983D01*
X419197Y331011D01*
X419113Y331039D01*
X419036Y331067D01*
X418964Y331100D01*
X418903Y331128D01*
X418842Y331155D01*
X418797Y331183D01*
X418753Y331211D01*
X418725Y331233D01*
X418697Y331244D01*
X418686Y331255D01*
X418681Y331261D01*
X418603Y331327D01*
X418536Y331394D01*
X418475Y331472D01*
X418414Y331549D01*
X418314Y331705D01*
X418237Y331860D01*
X418203Y331932D01*
X418176Y331999D01*
X418153Y332060D01*
X418137Y332110D01*
X418120Y332154D01*
X418109Y332188D01*
X418103Y332210D01*
Y332215D01*
X418614Y332343D01*
X418636Y332254D01*
X418664Y332171D01*
X418692Y332093D01*
X418719Y332021D01*
X418753Y331955D01*
X418786Y331899D01*
X418825Y331844D01*
X418858Y331794D01*
X418886Y331749D01*
X418919Y331716D01*
X418947Y331683D01*
X418969Y331655D01*
X418991Y331638D01*
X419008Y331622D01*
X419014Y331616D01*
X419019Y331610D01*
X419075Y331566D01*
X419136Y331533D01*
X419258Y331472D01*
X419374Y331427D01*
X419491Y331400D01*
X419591Y331377D01*
X419630Y331372D01*
X419668D01*
X419702Y331366D01*
X419741D01*
X419868Y331372D01*
X419990Y331394D01*
X420101Y331422D01*
X420201Y331455D01*
X420279Y331488D01*
X420312Y331505D01*
X420340Y331516D01*
X420362Y331527D01*
X420379Y331538D01*
X420390Y331544D01*
X420396D01*
X420501Y331622D01*
X420590Y331705D01*
X420668Y331799D01*
X420728Y331888D01*
X420779Y331966D01*
X420812Y332032D01*
X420823Y332060D01*
X420834Y332077D01*
X420840Y332088D01*
Y332093D01*
X420884Y332238D01*
X420917Y332382D01*
X420945Y332526D01*
X420962Y332660D01*
X420967Y332720D01*
X420973Y332776D01*
Y332826D01*
X420978Y332865D01*
Y332898D01*
Y332926D01*
Y332943D01*
Y332948D01*
X420973Y333092D01*
X420962Y333226D01*
X420939Y333348D01*
X420917Y333459D01*
X420901Y333553D01*
X420890Y333592D01*
X420878Y333625D01*
X420873Y333653D01*
X420867Y333669D01*
X420862Y333681D01*
Y333686D01*
X420806Y333814D01*
X420745Y333930D01*
X420679Y334025D01*
X420607Y334108D01*
X420545Y334175D01*
X420495Y334219D01*
X420457Y334247D01*
X420451Y334258D01*
X420445D01*
X420329Y334330D01*
X420201Y334385D01*
X420079Y334424D01*
X419963Y334447D01*
X419857Y334463D01*
X419813Y334469D01*
X419774D01*
X419746Y334474D01*
X419702D01*
X419563Y334469D01*
X419435Y334447D01*
X419330Y334413D01*
X419236Y334380D01*
X419164Y334341D01*
X419108Y334313D01*
X419075Y334291D01*
X419064Y334280D01*
X418975Y334197D01*
X418891Y334102D01*
X418825Y334003D01*
X418769Y333903D01*
X418725Y333814D01*
X418708Y333769D01*
X418697Y333736D01*
X418686Y333708D01*
X418675Y333686D01*
X418670Y333675D01*
Y333669D01*
X418170Y333786D01*
X418203Y333886D01*
X418237Y333975D01*
X418281Y334058D01*
X418320Y334141D01*
X418364Y334213D01*
X418414Y334280D01*
X418459Y334347D01*
X418503Y334402D01*
X418547Y334447D01*
X418586Y334491D01*
X418625Y334530D01*
X418653Y334558D01*
X418681Y334585D01*
X418703Y334602D01*
X418714Y334608D01*
X418719Y334613D01*
X418797Y334663D01*
X418875Y334713D01*
X418953Y334752D01*
X419036Y334785D01*
X419202Y334835D01*
X419352Y334868D01*
X419424Y334885D01*
X419485Y334891D01*
X419546Y334896D01*
X419596Y334902D01*
X419635Y334907D01*
X419691D01*
X419874Y334896D01*
D02*
G37*
G36*
X417637Y334336D02*
X415756D01*
X415889Y334175D01*
X416017Y334003D01*
X416128Y333836D01*
X416233Y333675D01*
X416278Y333603D01*
X416316Y333536D01*
X416355Y333475D01*
X416383Y333425D01*
X416405Y333381D01*
X416422Y333353D01*
X416433Y333331D01*
X416438Y333326D01*
X416549Y333103D01*
X416649Y332881D01*
X416733Y332671D01*
X416766Y332576D01*
X416799Y332482D01*
X416832Y332399D01*
X416855Y332321D01*
X416877Y332254D01*
X416893Y332199D01*
X416910Y332149D01*
X416921Y332116D01*
X416927Y332093D01*
Y332088D01*
X416982Y331860D01*
X417004Y331749D01*
X417021Y331649D01*
X417038Y331555D01*
X417054Y331461D01*
X417065Y331383D01*
X417077Y331305D01*
X417082Y331239D01*
X417088Y331178D01*
X417093Y331122D01*
Y331078D01*
X417099Y331044D01*
Y331022D01*
Y331006D01*
Y331000D01*
X416616D01*
X416599Y331211D01*
X416572Y331405D01*
X416544Y331583D01*
X416527Y331666D01*
X416510Y331744D01*
X416499Y331810D01*
X416483Y331871D01*
X416472Y331927D01*
X416461Y331971D01*
X416449Y332005D01*
X416444Y332032D01*
X416438Y332049D01*
Y332054D01*
X416355Y332310D01*
X416266Y332548D01*
X416222Y332665D01*
X416178Y332776D01*
X416128Y332876D01*
X416083Y332976D01*
X416044Y333065D01*
X416006Y333142D01*
X415972Y333209D01*
X415944Y333270D01*
X415917Y333320D01*
X415900Y333353D01*
X415889Y333375D01*
X415883Y333381D01*
X415817Y333498D01*
X415750Y333614D01*
X415684Y333719D01*
X415617Y333819D01*
X415556Y333908D01*
X415495Y333997D01*
X415434Y334075D01*
X415384Y334141D01*
X415334Y334208D01*
X415289Y334263D01*
X415245Y334308D01*
X415212Y334347D01*
X415190Y334380D01*
X415168Y334402D01*
X415156Y334413D01*
X415151Y334419D01*
Y334791D01*
X417637D01*
Y334336D01*
D02*
G37*
G36*
X379922Y288852D02*
X380027Y288841D01*
X380127Y288818D01*
X380222Y288791D01*
X380305Y288752D01*
X380388Y288719D01*
X380460Y288674D01*
X380527Y288635D01*
X380582Y288596D01*
X380638Y288552D01*
X380682Y288519D01*
X380715Y288485D01*
X380743Y288452D01*
X380765Y288430D01*
X380777Y288419D01*
X380782Y288413D01*
X380854Y288313D01*
X380915Y288197D01*
X380971Y288075D01*
X381021Y287947D01*
X381060Y287814D01*
X381093Y287681D01*
X381121Y287542D01*
X381143Y287414D01*
X381159Y287287D01*
X381171Y287170D01*
X381182Y287065D01*
X381187Y286976D01*
Y286898D01*
X381193Y286843D01*
Y286820D01*
Y286804D01*
Y286798D01*
Y286793D01*
X381187Y286615D01*
X381176Y286449D01*
X381159Y286293D01*
X381132Y286149D01*
X381104Y286021D01*
X381076Y285905D01*
X381043Y285799D01*
X381004Y285705D01*
X380971Y285627D01*
X380937Y285555D01*
X380910Y285500D01*
X380876Y285450D01*
X380854Y285411D01*
X380837Y285388D01*
X380826Y285372D01*
X380821Y285366D01*
X380749Y285289D01*
X380671Y285222D01*
X380593Y285167D01*
X380516Y285117D01*
X380432Y285072D01*
X380355Y285039D01*
X380277Y285011D01*
X380199Y284989D01*
X380133Y284972D01*
X380066Y284956D01*
X380011Y284945D01*
X379961Y284939D01*
X379916D01*
X379889Y284933D01*
X379861D01*
X379733Y284939D01*
X379616Y284961D01*
X379511Y284983D01*
X379417Y285017D01*
X379345Y285044D01*
X379289Y285072D01*
X379267Y285078D01*
X379250Y285089D01*
X379245Y285094D01*
X379239D01*
X379145Y285161D01*
X379056Y285239D01*
X378984Y285316D01*
X378923Y285394D01*
X378873Y285466D01*
X378839Y285522D01*
X378828Y285544D01*
X378817Y285561D01*
X378812Y285566D01*
Y285572D01*
X378756Y285688D01*
X378717Y285810D01*
X378690Y285921D01*
X378673Y286027D01*
X378656Y286116D01*
Y286149D01*
X378651Y286182D01*
Y286210D01*
Y286227D01*
Y286238D01*
Y286243D01*
X378656Y286343D01*
X378667Y286437D01*
X378684Y286532D01*
X378701Y286615D01*
X378729Y286693D01*
X378756Y286770D01*
X378784Y286837D01*
X378817Y286898D01*
X378851Y286954D01*
X378878Y287003D01*
X378906Y287042D01*
X378934Y287081D01*
X378951Y287109D01*
X378967Y287126D01*
X378978Y287137D01*
X378984Y287142D01*
X379045Y287203D01*
X379112Y287259D01*
X379184Y287303D01*
X379250Y287342D01*
X379317Y287381D01*
X379383Y287409D01*
X379511Y287448D01*
X379567Y287464D01*
X379622Y287475D01*
X379666Y287481D01*
X379711Y287486D01*
X379744Y287492D01*
X379788D01*
X379889Y287486D01*
X379983Y287470D01*
X380072Y287453D01*
X380149Y287431D01*
X380216Y287403D01*
X380266Y287386D01*
X380299Y287370D01*
X380305Y287364D01*
X380310D01*
X380399Y287309D01*
X380477Y287248D01*
X380549Y287187D01*
X380604Y287120D01*
X380654Y287065D01*
X380693Y287020D01*
X380715Y286987D01*
X380721Y286981D01*
Y287081D01*
X380715Y287181D01*
X380710Y287270D01*
X380699Y287359D01*
X380693Y287437D01*
X380682Y287509D01*
X380671Y287575D01*
X380654Y287636D01*
X380643Y287692D01*
X380632Y287736D01*
X380621Y287775D01*
X380615Y287808D01*
X380604Y287830D01*
X380599Y287847D01*
X380593Y287858D01*
Y287864D01*
X380538Y287975D01*
X380482Y288075D01*
X380421Y288152D01*
X380366Y288219D01*
X380316Y288275D01*
X380277Y288313D01*
X380249Y288336D01*
X380238Y288341D01*
X380171Y288386D01*
X380105Y288413D01*
X380038Y288435D01*
X379972Y288452D01*
X379922Y288463D01*
X379877Y288469D01*
X379838D01*
X379739Y288458D01*
X379644Y288435D01*
X379567Y288402D01*
X379494Y288369D01*
X379439Y288330D01*
X379400Y288297D01*
X379378Y288275D01*
X379367Y288263D01*
X379328Y288213D01*
X379289Y288152D01*
X379256Y288086D01*
X379234Y288019D01*
X379211Y287958D01*
X379195Y287908D01*
X379189Y287875D01*
X379184Y287869D01*
Y287864D01*
X378712Y287903D01*
X378745Y288058D01*
X378795Y288197D01*
X378851Y288319D01*
X378912Y288419D01*
X378973Y288496D01*
X378995Y288530D01*
X379023Y288558D01*
X379039Y288574D01*
X379056Y288591D01*
X379062Y288596D01*
X379067Y288602D01*
X379123Y288646D01*
X379184Y288685D01*
X379306Y288752D01*
X379428Y288796D01*
X379544Y288824D01*
X379650Y288846D01*
X379694Y288852D01*
X379733D01*
X379766Y288857D01*
X379811D01*
X379922Y288852D01*
D02*
G37*
G36*
X383374Y288896D02*
X383552Y288868D01*
X383707Y288835D01*
X383779Y288813D01*
X383846Y288791D01*
X383907Y288768D01*
X383962Y288746D01*
X384007Y288730D01*
X384051Y288713D01*
X384079Y288696D01*
X384101Y288685D01*
X384118Y288680D01*
X384123Y288674D01*
X384273Y288580D01*
X384401Y288469D01*
X384512Y288358D01*
X384606Y288247D01*
X384678Y288147D01*
X384706Y288102D01*
X384728Y288064D01*
X384750Y288036D01*
X384761Y288014D01*
X384767Y287997D01*
X384772Y287991D01*
X384850Y287819D01*
X384906Y287642D01*
X384945Y287464D01*
X384972Y287303D01*
X384983Y287231D01*
X384989Y287159D01*
X384995Y287104D01*
Y287048D01*
X385000Y287009D01*
Y286976D01*
Y286954D01*
Y286948D01*
X384989Y286748D01*
X384967Y286554D01*
X384939Y286382D01*
X384917Y286299D01*
X384900Y286227D01*
X384883Y286160D01*
X384861Y286099D01*
X384845Y286043D01*
X384834Y285999D01*
X384817Y285966D01*
X384811Y285938D01*
X384800Y285921D01*
Y285916D01*
X384717Y285749D01*
X384623Y285599D01*
X384523Y285472D01*
X384473Y285422D01*
X384428Y285372D01*
X384384Y285327D01*
X384340Y285289D01*
X384301Y285255D01*
X384267Y285233D01*
X384245Y285211D01*
X384223Y285194D01*
X384212Y285189D01*
X384206Y285183D01*
X384129Y285139D01*
X384051Y285100D01*
X383885Y285039D01*
X383718Y284995D01*
X383557Y284967D01*
X383479Y284956D01*
X383413Y284945D01*
X383352Y284939D01*
X383302D01*
X383257Y284933D01*
X383196D01*
X383085Y284939D01*
X382980Y284950D01*
X382880Y284961D01*
X382786Y284983D01*
X382697Y285011D01*
X382613Y285039D01*
X382536Y285067D01*
X382464Y285100D01*
X382403Y285128D01*
X382342Y285155D01*
X382297Y285183D01*
X382253Y285211D01*
X382225Y285233D01*
X382197Y285244D01*
X382186Y285255D01*
X382181Y285261D01*
X382103Y285327D01*
X382036Y285394D01*
X381975Y285472D01*
X381914Y285549D01*
X381814Y285705D01*
X381737Y285860D01*
X381703Y285932D01*
X381676Y285999D01*
X381653Y286060D01*
X381637Y286110D01*
X381620Y286154D01*
X381609Y286188D01*
X381603Y286210D01*
Y286215D01*
X382114Y286343D01*
X382136Y286254D01*
X382164Y286171D01*
X382192Y286093D01*
X382220Y286021D01*
X382253Y285955D01*
X382286Y285899D01*
X382325Y285844D01*
X382358Y285794D01*
X382386Y285749D01*
X382419Y285716D01*
X382447Y285683D01*
X382469Y285655D01*
X382491Y285638D01*
X382508Y285622D01*
X382514Y285616D01*
X382519Y285611D01*
X382575Y285566D01*
X382636Y285533D01*
X382758Y285472D01*
X382874Y285427D01*
X382991Y285400D01*
X383091Y285377D01*
X383130Y285372D01*
X383169D01*
X383202Y285366D01*
X383241D01*
X383368Y285372D01*
X383490Y285394D01*
X383601Y285422D01*
X383701Y285455D01*
X383779Y285488D01*
X383812Y285505D01*
X383840Y285516D01*
X383862Y285527D01*
X383879Y285538D01*
X383890Y285544D01*
X383896D01*
X384001Y285622D01*
X384090Y285705D01*
X384168Y285799D01*
X384228Y285888D01*
X384278Y285966D01*
X384312Y286032D01*
X384323Y286060D01*
X384334Y286077D01*
X384340Y286088D01*
Y286093D01*
X384384Y286238D01*
X384417Y286382D01*
X384445Y286526D01*
X384462Y286660D01*
X384467Y286720D01*
X384473Y286776D01*
Y286826D01*
X384478Y286865D01*
Y286898D01*
Y286926D01*
Y286943D01*
Y286948D01*
X384473Y287092D01*
X384462Y287226D01*
X384439Y287348D01*
X384417Y287459D01*
X384401Y287553D01*
X384389Y287592D01*
X384378Y287625D01*
X384373Y287653D01*
X384367Y287669D01*
X384362Y287681D01*
Y287686D01*
X384306Y287814D01*
X384245Y287930D01*
X384179Y288025D01*
X384106Y288108D01*
X384045Y288175D01*
X383995Y288219D01*
X383957Y288247D01*
X383951Y288258D01*
X383945D01*
X383829Y288330D01*
X383701Y288386D01*
X383579Y288424D01*
X383463Y288446D01*
X383357Y288463D01*
X383313Y288469D01*
X383274D01*
X383246Y288474D01*
X383202D01*
X383063Y288469D01*
X382935Y288446D01*
X382830Y288413D01*
X382736Y288380D01*
X382663Y288341D01*
X382608Y288313D01*
X382575Y288291D01*
X382563Y288280D01*
X382475Y288197D01*
X382392Y288102D01*
X382325Y288003D01*
X382269Y287903D01*
X382225Y287814D01*
X382208Y287770D01*
X382197Y287736D01*
X382186Y287708D01*
X382175Y287686D01*
X382170Y287675D01*
Y287669D01*
X381670Y287786D01*
X381703Y287886D01*
X381737Y287975D01*
X381781Y288058D01*
X381820Y288141D01*
X381864Y288213D01*
X381914Y288280D01*
X381959Y288347D01*
X382003Y288402D01*
X382047Y288446D01*
X382086Y288491D01*
X382125Y288530D01*
X382153Y288558D01*
X382181Y288585D01*
X382203Y288602D01*
X382214Y288608D01*
X382220Y288613D01*
X382297Y288663D01*
X382375Y288713D01*
X382453Y288752D01*
X382536Y288785D01*
X382702Y288835D01*
X382852Y288868D01*
X382924Y288885D01*
X382985Y288891D01*
X383046Y288896D01*
X383096Y288902D01*
X383135Y288907D01*
X383191D01*
X383374Y288896D01*
D02*
G37*
G36*
X381087Y294815D02*
X380643Y294754D01*
X380604Y294815D01*
X380554Y294865D01*
X380510Y294915D01*
X380466Y294954D01*
X380421Y294981D01*
X380388Y295009D01*
X380366Y295020D01*
X380360Y295026D01*
X380288Y295059D01*
X380216Y295087D01*
X380149Y295104D01*
X380083Y295120D01*
X380027Y295126D01*
X379983Y295131D01*
X379877D01*
X379811Y295120D01*
X379694Y295092D01*
X379594Y295054D01*
X379505Y295015D01*
X379439Y294970D01*
X379389Y294931D01*
X379361Y294904D01*
X379350Y294898D01*
Y294893D01*
X379272Y294798D01*
X379217Y294698D01*
X379178Y294593D01*
X379150Y294487D01*
X379134Y294399D01*
X379128Y294360D01*
Y294326D01*
X379123Y294299D01*
Y294276D01*
Y294265D01*
Y294260D01*
Y294182D01*
X379134Y294110D01*
X379161Y293971D01*
X379200Y293855D01*
X379239Y293760D01*
X379283Y293683D01*
X379322Y293622D01*
X379339Y293605D01*
X379350Y293588D01*
X379356Y293583D01*
X379361Y293577D01*
X379406Y293533D01*
X379450Y293494D01*
X379550Y293427D01*
X379644Y293383D01*
X379739Y293355D01*
X379816Y293333D01*
X379883Y293327D01*
X379905Y293322D01*
X379938D01*
X380044Y293327D01*
X380138Y293350D01*
X380222Y293377D01*
X380288Y293411D01*
X380349Y293444D01*
X380394Y293472D01*
X380416Y293494D01*
X380427Y293499D01*
X380493Y293577D01*
X380549Y293660D01*
X380593Y293755D01*
X380627Y293838D01*
X380649Y293921D01*
X380665Y293982D01*
X380671Y294010D01*
X380677Y294027D01*
Y294038D01*
Y294043D01*
X381171Y294005D01*
X381159Y293916D01*
X381143Y293832D01*
X381093Y293677D01*
X381032Y293544D01*
X380998Y293483D01*
X380965Y293433D01*
X380937Y293383D01*
X380904Y293338D01*
X380876Y293305D01*
X380849Y293278D01*
X380826Y293255D01*
X380815Y293233D01*
X380804Y293228D01*
X380799Y293222D01*
X380732Y293172D01*
X380665Y293128D01*
X380593Y293089D01*
X380521Y293056D01*
X380382Y293005D01*
X380244Y292972D01*
X380183Y292956D01*
X380121Y292950D01*
X380072Y292945D01*
X380027Y292939D01*
X379988Y292933D01*
X379938D01*
X379822Y292939D01*
X379711Y292956D01*
X379605Y292978D01*
X379511Y293005D01*
X379422Y293044D01*
X379339Y293083D01*
X379261Y293122D01*
X379195Y293166D01*
X379134Y293211D01*
X379078Y293250D01*
X379034Y293294D01*
X378995Y293327D01*
X378967Y293355D01*
X378945Y293377D01*
X378934Y293394D01*
X378928Y293400D01*
X378873Y293472D01*
X378828Y293549D01*
X378784Y293622D01*
X378751Y293699D01*
X378695Y293849D01*
X378662Y293993D01*
X378651Y294055D01*
X378640Y294115D01*
X378634Y294165D01*
X378629Y294210D01*
X378623Y294249D01*
Y294276D01*
Y294293D01*
Y294299D01*
X378629Y294399D01*
X378640Y294493D01*
X378656Y294587D01*
X378678Y294671D01*
X378706Y294748D01*
X378734Y294826D01*
X378767Y294893D01*
X378795Y294954D01*
X378828Y295009D01*
X378862Y295059D01*
X378889Y295098D01*
X378917Y295137D01*
X378939Y295164D01*
X378956Y295181D01*
X378967Y295192D01*
X378973Y295198D01*
X379039Y295259D01*
X379106Y295314D01*
X379178Y295359D01*
X379250Y295398D01*
X379322Y295437D01*
X379395Y295464D01*
X379528Y295503D01*
X379589Y295520D01*
X379644Y295531D01*
X379694Y295536D01*
X379739Y295542D01*
X379772Y295547D01*
X379894D01*
X379961Y295536D01*
X380094Y295509D01*
X380216Y295470D01*
X380327Y295425D01*
X380416Y295381D01*
X380455Y295359D01*
X380488Y295342D01*
X380516Y295325D01*
X380532Y295314D01*
X380543Y295309D01*
X380549Y295303D01*
X380344Y296341D01*
X378806D01*
Y296791D01*
X380715D01*
X381087Y294815D01*
D02*
G37*
G36*
X383374Y296896D02*
X383552Y296868D01*
X383707Y296835D01*
X383779Y296813D01*
X383846Y296791D01*
X383907Y296768D01*
X383962Y296746D01*
X384007Y296730D01*
X384051Y296713D01*
X384079Y296696D01*
X384101Y296685D01*
X384118Y296680D01*
X384123Y296674D01*
X384273Y296580D01*
X384401Y296469D01*
X384512Y296358D01*
X384606Y296247D01*
X384678Y296147D01*
X384706Y296102D01*
X384728Y296064D01*
X384750Y296036D01*
X384761Y296014D01*
X384767Y295997D01*
X384772Y295991D01*
X384850Y295819D01*
X384906Y295642D01*
X384945Y295464D01*
X384972Y295303D01*
X384983Y295231D01*
X384989Y295159D01*
X384995Y295104D01*
Y295048D01*
X385000Y295009D01*
Y294976D01*
Y294954D01*
Y294948D01*
X384989Y294748D01*
X384967Y294554D01*
X384939Y294382D01*
X384917Y294299D01*
X384900Y294227D01*
X384883Y294160D01*
X384861Y294099D01*
X384845Y294043D01*
X384834Y293999D01*
X384817Y293966D01*
X384811Y293938D01*
X384800Y293921D01*
Y293916D01*
X384717Y293749D01*
X384623Y293599D01*
X384523Y293472D01*
X384473Y293422D01*
X384428Y293372D01*
X384384Y293327D01*
X384340Y293289D01*
X384301Y293255D01*
X384267Y293233D01*
X384245Y293211D01*
X384223Y293194D01*
X384212Y293189D01*
X384206Y293183D01*
X384129Y293139D01*
X384051Y293100D01*
X383885Y293039D01*
X383718Y292994D01*
X383557Y292967D01*
X383479Y292956D01*
X383413Y292945D01*
X383352Y292939D01*
X383302D01*
X383257Y292933D01*
X383196D01*
X383085Y292939D01*
X382980Y292950D01*
X382880Y292961D01*
X382786Y292983D01*
X382697Y293011D01*
X382613Y293039D01*
X382536Y293067D01*
X382464Y293100D01*
X382403Y293128D01*
X382342Y293155D01*
X382297Y293183D01*
X382253Y293211D01*
X382225Y293233D01*
X382197Y293244D01*
X382186Y293255D01*
X382181Y293261D01*
X382103Y293327D01*
X382036Y293394D01*
X381975Y293472D01*
X381914Y293549D01*
X381814Y293705D01*
X381737Y293860D01*
X381703Y293932D01*
X381676Y293999D01*
X381653Y294060D01*
X381637Y294110D01*
X381620Y294154D01*
X381609Y294188D01*
X381603Y294210D01*
Y294215D01*
X382114Y294343D01*
X382136Y294254D01*
X382164Y294171D01*
X382192Y294093D01*
X382220Y294021D01*
X382253Y293955D01*
X382286Y293899D01*
X382325Y293844D01*
X382358Y293794D01*
X382386Y293749D01*
X382419Y293716D01*
X382447Y293683D01*
X382469Y293655D01*
X382491Y293638D01*
X382508Y293622D01*
X382514Y293616D01*
X382519Y293611D01*
X382575Y293566D01*
X382636Y293533D01*
X382758Y293472D01*
X382874Y293427D01*
X382991Y293400D01*
X383091Y293377D01*
X383130Y293372D01*
X383169D01*
X383202Y293366D01*
X383241D01*
X383368Y293372D01*
X383490Y293394D01*
X383601Y293422D01*
X383701Y293455D01*
X383779Y293488D01*
X383812Y293505D01*
X383840Y293516D01*
X383862Y293527D01*
X383879Y293538D01*
X383890Y293544D01*
X383896D01*
X384001Y293622D01*
X384090Y293705D01*
X384168Y293799D01*
X384228Y293888D01*
X384278Y293966D01*
X384312Y294032D01*
X384323Y294060D01*
X384334Y294077D01*
X384340Y294088D01*
Y294093D01*
X384384Y294238D01*
X384417Y294382D01*
X384445Y294526D01*
X384462Y294659D01*
X384467Y294721D01*
X384473Y294776D01*
Y294826D01*
X384478Y294865D01*
Y294898D01*
Y294926D01*
Y294942D01*
Y294948D01*
X384473Y295092D01*
X384462Y295226D01*
X384439Y295348D01*
X384417Y295459D01*
X384401Y295553D01*
X384389Y295592D01*
X384378Y295625D01*
X384373Y295653D01*
X384367Y295670D01*
X384362Y295681D01*
Y295686D01*
X384306Y295814D01*
X384245Y295930D01*
X384179Y296025D01*
X384106Y296108D01*
X384045Y296175D01*
X383995Y296219D01*
X383957Y296247D01*
X383951Y296258D01*
X383945D01*
X383829Y296330D01*
X383701Y296386D01*
X383579Y296424D01*
X383463Y296446D01*
X383357Y296463D01*
X383313Y296469D01*
X383274D01*
X383246Y296474D01*
X383202D01*
X383063Y296469D01*
X382935Y296446D01*
X382830Y296413D01*
X382736Y296380D01*
X382663Y296341D01*
X382608Y296313D01*
X382575Y296291D01*
X382563Y296280D01*
X382475Y296197D01*
X382392Y296102D01*
X382325Y296003D01*
X382269Y295903D01*
X382225Y295814D01*
X382208Y295770D01*
X382197Y295736D01*
X382186Y295708D01*
X382175Y295686D01*
X382170Y295675D01*
Y295670D01*
X381670Y295786D01*
X381703Y295886D01*
X381737Y295975D01*
X381781Y296058D01*
X381820Y296141D01*
X381864Y296214D01*
X381914Y296280D01*
X381959Y296347D01*
X382003Y296402D01*
X382047Y296446D01*
X382086Y296491D01*
X382125Y296530D01*
X382153Y296557D01*
X382181Y296585D01*
X382203Y296602D01*
X382214Y296607D01*
X382220Y296613D01*
X382297Y296663D01*
X382375Y296713D01*
X382453Y296752D01*
X382536Y296785D01*
X382702Y296835D01*
X382852Y296868D01*
X382924Y296885D01*
X382985Y296890D01*
X383046Y296896D01*
X383096Y296902D01*
X383135Y296907D01*
X383191D01*
X383374Y296896D01*
D02*
G37*
G36*
Y304396D02*
X383552Y304368D01*
X383707Y304335D01*
X383779Y304313D01*
X383846Y304291D01*
X383907Y304268D01*
X383962Y304246D01*
X384007Y304230D01*
X384051Y304213D01*
X384079Y304196D01*
X384101Y304185D01*
X384118Y304180D01*
X384123Y304174D01*
X384273Y304080D01*
X384401Y303969D01*
X384512Y303858D01*
X384606Y303747D01*
X384678Y303647D01*
X384706Y303602D01*
X384728Y303564D01*
X384750Y303536D01*
X384761Y303514D01*
X384767Y303497D01*
X384772Y303491D01*
X384850Y303319D01*
X384906Y303142D01*
X384945Y302964D01*
X384972Y302803D01*
X384983Y302731D01*
X384989Y302659D01*
X384995Y302604D01*
Y302548D01*
X385000Y302509D01*
Y302476D01*
Y302454D01*
Y302448D01*
X384989Y302248D01*
X384967Y302054D01*
X384939Y301882D01*
X384917Y301799D01*
X384900Y301727D01*
X384883Y301660D01*
X384861Y301599D01*
X384845Y301543D01*
X384834Y301499D01*
X384817Y301466D01*
X384811Y301438D01*
X384800Y301421D01*
Y301416D01*
X384717Y301249D01*
X384623Y301099D01*
X384523Y300972D01*
X384473Y300922D01*
X384428Y300872D01*
X384384Y300827D01*
X384340Y300789D01*
X384301Y300755D01*
X384267Y300733D01*
X384245Y300711D01*
X384223Y300694D01*
X384212Y300689D01*
X384206Y300683D01*
X384129Y300639D01*
X384051Y300600D01*
X383885Y300539D01*
X383718Y300495D01*
X383557Y300467D01*
X383479Y300456D01*
X383413Y300445D01*
X383352Y300439D01*
X383302D01*
X383257Y300433D01*
X383196D01*
X383085Y300439D01*
X382980Y300450D01*
X382880Y300461D01*
X382786Y300483D01*
X382697Y300511D01*
X382613Y300539D01*
X382536Y300567D01*
X382464Y300600D01*
X382403Y300628D01*
X382342Y300655D01*
X382297Y300683D01*
X382253Y300711D01*
X382225Y300733D01*
X382197Y300744D01*
X382186Y300755D01*
X382181Y300761D01*
X382103Y300827D01*
X382036Y300894D01*
X381975Y300972D01*
X381914Y301049D01*
X381814Y301205D01*
X381737Y301360D01*
X381703Y301432D01*
X381676Y301499D01*
X381653Y301560D01*
X381637Y301610D01*
X381620Y301654D01*
X381609Y301688D01*
X381603Y301710D01*
Y301715D01*
X382114Y301843D01*
X382136Y301754D01*
X382164Y301671D01*
X382192Y301593D01*
X382220Y301521D01*
X382253Y301455D01*
X382286Y301399D01*
X382325Y301344D01*
X382358Y301294D01*
X382386Y301249D01*
X382419Y301216D01*
X382447Y301183D01*
X382469Y301155D01*
X382491Y301138D01*
X382508Y301122D01*
X382514Y301116D01*
X382519Y301111D01*
X382575Y301066D01*
X382636Y301033D01*
X382758Y300972D01*
X382874Y300927D01*
X382991Y300900D01*
X383091Y300877D01*
X383130Y300872D01*
X383169D01*
X383202Y300866D01*
X383241D01*
X383368Y300872D01*
X383490Y300894D01*
X383601Y300922D01*
X383701Y300955D01*
X383779Y300988D01*
X383812Y301005D01*
X383840Y301016D01*
X383862Y301027D01*
X383879Y301038D01*
X383890Y301044D01*
X383896D01*
X384001Y301122D01*
X384090Y301205D01*
X384168Y301299D01*
X384228Y301388D01*
X384278Y301466D01*
X384312Y301532D01*
X384323Y301560D01*
X384334Y301577D01*
X384340Y301588D01*
Y301593D01*
X384384Y301738D01*
X384417Y301882D01*
X384445Y302026D01*
X384462Y302160D01*
X384467Y302221D01*
X384473Y302276D01*
Y302326D01*
X384478Y302365D01*
Y302398D01*
Y302426D01*
Y302443D01*
Y302448D01*
X384473Y302592D01*
X384462Y302726D01*
X384439Y302848D01*
X384417Y302959D01*
X384401Y303053D01*
X384389Y303092D01*
X384378Y303125D01*
X384373Y303153D01*
X384367Y303169D01*
X384362Y303181D01*
Y303186D01*
X384306Y303314D01*
X384245Y303430D01*
X384179Y303525D01*
X384106Y303608D01*
X384045Y303675D01*
X383995Y303719D01*
X383957Y303747D01*
X383951Y303758D01*
X383945D01*
X383829Y303830D01*
X383701Y303886D01*
X383579Y303924D01*
X383463Y303946D01*
X383357Y303963D01*
X383313Y303969D01*
X383274D01*
X383246Y303974D01*
X383202D01*
X383063Y303969D01*
X382935Y303946D01*
X382830Y303913D01*
X382736Y303880D01*
X382663Y303841D01*
X382608Y303813D01*
X382575Y303791D01*
X382563Y303780D01*
X382475Y303697D01*
X382392Y303602D01*
X382325Y303503D01*
X382269Y303403D01*
X382225Y303314D01*
X382208Y303270D01*
X382197Y303236D01*
X382186Y303208D01*
X382175Y303186D01*
X382170Y303175D01*
Y303169D01*
X381670Y303286D01*
X381703Y303386D01*
X381737Y303475D01*
X381781Y303558D01*
X381820Y303641D01*
X381864Y303713D01*
X381914Y303780D01*
X381959Y303847D01*
X382003Y303902D01*
X382047Y303946D01*
X382086Y303991D01*
X382125Y304030D01*
X382153Y304058D01*
X382181Y304085D01*
X382203Y304102D01*
X382214Y304107D01*
X382220Y304113D01*
X382297Y304163D01*
X382375Y304213D01*
X382453Y304252D01*
X382536Y304285D01*
X382702Y304335D01*
X382852Y304368D01*
X382924Y304385D01*
X382985Y304391D01*
X383046Y304396D01*
X383096Y304402D01*
X383135Y304407D01*
X383191D01*
X383374Y304396D01*
D02*
G37*
G36*
X381331Y301854D02*
Y301421D01*
X379661D01*
Y300500D01*
X379189D01*
Y301421D01*
X378667D01*
Y301854D01*
X379189D01*
Y304341D01*
X379572D01*
X381331Y301854D01*
D02*
G37*
G36*
X421627Y355946D02*
X421777Y355918D01*
X421905Y355874D01*
X422016Y355830D01*
X422065Y355802D01*
X422104Y355780D01*
X422143Y355757D01*
X422171Y355735D01*
X422193Y355719D01*
X422210Y355708D01*
X422221Y355702D01*
X422226Y355696D01*
X422332Y355591D01*
X422415Y355474D01*
X422482Y355352D01*
X422537Y355230D01*
X422571Y355125D01*
X422587Y355080D01*
X422598Y355042D01*
X422604Y355008D01*
X422610Y354986D01*
X422615Y354969D01*
Y354964D01*
X422143Y354880D01*
X422121Y355003D01*
X422088Y355108D01*
X422049Y355197D01*
X422010Y355269D01*
X421971Y355325D01*
X421938Y355363D01*
X421916Y355391D01*
X421910Y355397D01*
X421838Y355452D01*
X421760Y355497D01*
X421688Y355524D01*
X421616Y355546D01*
X421549Y355558D01*
X421499Y355569D01*
X421455D01*
X421355Y355563D01*
X421266Y355541D01*
X421189Y355513D01*
X421122Y355486D01*
X421072Y355452D01*
X421033Y355424D01*
X421005Y355402D01*
X421000Y355397D01*
X420939Y355330D01*
X420894Y355258D01*
X420867Y355186D01*
X420845Y355119D01*
X420833Y355058D01*
X420822Y355014D01*
Y354980D01*
Y354975D01*
Y354969D01*
Y354908D01*
X420833Y354853D01*
X420861Y354758D01*
X420900Y354675D01*
X420944Y354603D01*
X420989Y354553D01*
X421028Y354514D01*
X421056Y354492D01*
X421061Y354486D01*
X421067D01*
X421161Y354436D01*
X421250Y354398D01*
X421344Y354370D01*
X421427Y354353D01*
X421499Y354342D01*
X421560Y354331D01*
X421633D01*
X421655Y354337D01*
X421683D01*
X421738Y353920D01*
X421666Y353937D01*
X421599Y353948D01*
X421544Y353959D01*
X421494Y353965D01*
X421455Y353970D01*
X421405D01*
X421289Y353959D01*
X421183Y353937D01*
X421089Y353904D01*
X421011Y353865D01*
X420950Y353826D01*
X420906Y353793D01*
X420878Y353771D01*
X420867Y353760D01*
X420795Y353676D01*
X420739Y353587D01*
X420700Y353499D01*
X420678Y353410D01*
X420661Y353338D01*
X420656Y353277D01*
X420650Y353254D01*
Y353238D01*
Y353227D01*
Y353221D01*
X420661Y353099D01*
X420689Y352988D01*
X420722Y352894D01*
X420767Y352810D01*
X420811Y352744D01*
X420845Y352694D01*
X420872Y352661D01*
X420883Y352649D01*
X420972Y352572D01*
X421067Y352516D01*
X421161Y352477D01*
X421250Y352450D01*
X421327Y352433D01*
X421388Y352427D01*
X421411Y352422D01*
X421444D01*
X421544Y352427D01*
X421638Y352450D01*
X421722Y352477D01*
X421788Y352511D01*
X421843Y352538D01*
X421888Y352566D01*
X421910Y352588D01*
X421921Y352594D01*
X421988Y352672D01*
X422043Y352760D01*
X422093Y352855D01*
X422132Y352955D01*
X422160Y353038D01*
X422171Y353077D01*
X422177Y353110D01*
X422182Y353138D01*
X422188Y353160D01*
X422193Y353171D01*
Y353177D01*
X422665Y353116D01*
X422654Y353027D01*
X422637Y352944D01*
X422587Y352788D01*
X422526Y352655D01*
X422493Y352600D01*
X422460Y352544D01*
X422426Y352494D01*
X422393Y352455D01*
X422365Y352416D01*
X422337Y352389D01*
X422321Y352366D01*
X422304Y352350D01*
X422293Y352339D01*
X422288Y352333D01*
X422221Y352283D01*
X422154Y352233D01*
X422088Y352194D01*
X422016Y352161D01*
X421877Y352105D01*
X421744Y352072D01*
X421683Y352061D01*
X421627Y352050D01*
X421577Y352045D01*
X421533Y352039D01*
X421499Y352033D01*
X421450D01*
X421344Y352039D01*
X421250Y352050D01*
X421155Y352067D01*
X421067Y352089D01*
X420983Y352117D01*
X420911Y352144D01*
X420839Y352178D01*
X420778Y352211D01*
X420717Y352239D01*
X420667Y352272D01*
X420622Y352300D01*
X420589Y352328D01*
X420562Y352350D01*
X420539Y352366D01*
X420528Y352378D01*
X420523Y352383D01*
X420456Y352450D01*
X420401Y352522D01*
X420351Y352594D01*
X420306Y352666D01*
X420273Y352733D01*
X420240Y352805D01*
X420195Y352938D01*
X420184Y352999D01*
X420173Y353055D01*
X420162Y353105D01*
X420156Y353149D01*
X420151Y353182D01*
Y353210D01*
Y353227D01*
Y353232D01*
X420156Y353365D01*
X420179Y353487D01*
X420212Y353593D01*
X420245Y353682D01*
X420278Y353754D01*
X420312Y353809D01*
X420334Y353843D01*
X420339Y353854D01*
X420417Y353937D01*
X420501Y354009D01*
X420589Y354065D01*
X420678Y354109D01*
X420756Y354142D01*
X420817Y354165D01*
X420839Y354170D01*
X420856Y354176D01*
X420867Y354181D01*
X420872D01*
X420778Y354231D01*
X420700Y354281D01*
X420634Y354337D01*
X420578Y354387D01*
X420534Y354431D01*
X420501Y354470D01*
X420484Y354492D01*
X420478Y354503D01*
X420434Y354581D01*
X420401Y354659D01*
X420373Y354736D01*
X420356Y354808D01*
X420345Y354870D01*
X420339Y354914D01*
Y354947D01*
Y354958D01*
X420345Y355053D01*
X420362Y355147D01*
X420384Y355230D01*
X420412Y355302D01*
X420439Y355363D01*
X420462Y355413D01*
X420478Y355441D01*
X420484Y355452D01*
X420539Y355535D01*
X420606Y355608D01*
X420673Y355669D01*
X420739Y355724D01*
X420795Y355763D01*
X420845Y355796D01*
X420878Y355813D01*
X420883Y355819D01*
X420889D01*
X420989Y355863D01*
X421089Y355896D01*
X421189Y355924D01*
X421278Y355941D01*
X421350Y355952D01*
X421411Y355957D01*
X421549D01*
X421627Y355946D01*
D02*
G37*
G36*
X424874Y355996D02*
X425051Y355968D01*
X425207Y355935D01*
X425279Y355913D01*
X425346Y355891D01*
X425407Y355868D01*
X425462Y355846D01*
X425506Y355830D01*
X425551Y355813D01*
X425579Y355796D01*
X425601Y355785D01*
X425618Y355780D01*
X425623Y355774D01*
X425773Y355680D01*
X425901Y355569D01*
X426012Y355458D01*
X426106Y355347D01*
X426178Y355247D01*
X426206Y355202D01*
X426228Y355164D01*
X426250Y355136D01*
X426261Y355114D01*
X426267Y355097D01*
X426272Y355091D01*
X426350Y354919D01*
X426406Y354742D01*
X426444Y354564D01*
X426472Y354403D01*
X426483Y354331D01*
X426489Y354259D01*
X426494Y354204D01*
Y354148D01*
X426500Y354109D01*
Y354076D01*
Y354054D01*
Y354048D01*
X426489Y353848D01*
X426467Y353654D01*
X426439Y353482D01*
X426417Y353399D01*
X426400Y353327D01*
X426383Y353260D01*
X426361Y353199D01*
X426345Y353143D01*
X426334Y353099D01*
X426317Y353066D01*
X426311Y353038D01*
X426300Y353021D01*
Y353016D01*
X426217Y352849D01*
X426123Y352699D01*
X426023Y352572D01*
X425973Y352522D01*
X425928Y352472D01*
X425884Y352427D01*
X425840Y352389D01*
X425801Y352355D01*
X425767Y352333D01*
X425745Y352311D01*
X425723Y352294D01*
X425712Y352289D01*
X425706Y352283D01*
X425629Y352239D01*
X425551Y352200D01*
X425385Y352139D01*
X425218Y352095D01*
X425057Y352067D01*
X424979Y352056D01*
X424913Y352045D01*
X424852Y352039D01*
X424802D01*
X424757Y352033D01*
X424696D01*
X424585Y352039D01*
X424480Y352050D01*
X424380Y352061D01*
X424286Y352083D01*
X424197Y352111D01*
X424114Y352139D01*
X424036Y352167D01*
X423964Y352200D01*
X423903Y352228D01*
X423842Y352255D01*
X423797Y352283D01*
X423753Y352311D01*
X423725Y352333D01*
X423697Y352344D01*
X423686Y352355D01*
X423681Y352361D01*
X423603Y352427D01*
X423536Y352494D01*
X423475Y352572D01*
X423414Y352649D01*
X423314Y352805D01*
X423237Y352960D01*
X423203Y353032D01*
X423176Y353099D01*
X423153Y353160D01*
X423137Y353210D01*
X423120Y353254D01*
X423109Y353288D01*
X423103Y353310D01*
Y353315D01*
X423614Y353443D01*
X423636Y353354D01*
X423664Y353271D01*
X423692Y353193D01*
X423719Y353121D01*
X423753Y353055D01*
X423786Y352999D01*
X423825Y352944D01*
X423858Y352894D01*
X423886Y352849D01*
X423919Y352816D01*
X423947Y352783D01*
X423969Y352755D01*
X423991Y352738D01*
X424008Y352722D01*
X424014Y352716D01*
X424019Y352711D01*
X424075Y352666D01*
X424136Y352633D01*
X424258Y352572D01*
X424374Y352527D01*
X424491Y352500D01*
X424591Y352477D01*
X424630Y352472D01*
X424669D01*
X424702Y352466D01*
X424741D01*
X424868Y352472D01*
X424990Y352494D01*
X425101Y352522D01*
X425201Y352555D01*
X425279Y352588D01*
X425312Y352605D01*
X425340Y352616D01*
X425362Y352627D01*
X425379Y352638D01*
X425390Y352644D01*
X425396D01*
X425501Y352722D01*
X425590Y352805D01*
X425667Y352899D01*
X425729Y352988D01*
X425778Y353066D01*
X425812Y353132D01*
X425823Y353160D01*
X425834Y353177D01*
X425840Y353188D01*
Y353193D01*
X425884Y353338D01*
X425917Y353482D01*
X425945Y353626D01*
X425962Y353760D01*
X425967Y353820D01*
X425973Y353876D01*
Y353926D01*
X425978Y353965D01*
Y353998D01*
Y354026D01*
Y354043D01*
Y354048D01*
X425973Y354192D01*
X425962Y354326D01*
X425940Y354448D01*
X425917Y354559D01*
X425901Y354653D01*
X425889Y354692D01*
X425878Y354725D01*
X425873Y354753D01*
X425867Y354769D01*
X425862Y354781D01*
Y354786D01*
X425806Y354914D01*
X425745Y355030D01*
X425679Y355125D01*
X425606Y355208D01*
X425545Y355275D01*
X425495Y355319D01*
X425457Y355347D01*
X425451Y355358D01*
X425446D01*
X425329Y355430D01*
X425201Y355486D01*
X425079Y355524D01*
X424963Y355546D01*
X424857Y355563D01*
X424813Y355569D01*
X424774D01*
X424746Y355574D01*
X424702D01*
X424563Y355569D01*
X424435Y355546D01*
X424330Y355513D01*
X424236Y355480D01*
X424163Y355441D01*
X424108Y355413D01*
X424075Y355391D01*
X424064Y355380D01*
X423975Y355297D01*
X423891Y355202D01*
X423825Y355103D01*
X423769Y355003D01*
X423725Y354914D01*
X423708Y354870D01*
X423697Y354836D01*
X423686Y354808D01*
X423675Y354786D01*
X423669Y354775D01*
Y354769D01*
X423170Y354886D01*
X423203Y354986D01*
X423237Y355075D01*
X423281Y355158D01*
X423320Y355241D01*
X423364Y355313D01*
X423414Y355380D01*
X423459Y355447D01*
X423503Y355502D01*
X423547Y355546D01*
X423586Y355591D01*
X423625Y355630D01*
X423653Y355658D01*
X423681Y355685D01*
X423703Y355702D01*
X423714Y355708D01*
X423719Y355713D01*
X423797Y355763D01*
X423875Y355813D01*
X423952Y355852D01*
X424036Y355885D01*
X424202Y355935D01*
X424352Y355968D01*
X424424Y355985D01*
X424485Y355991D01*
X424546Y355996D01*
X424596Y356002D01*
X424635Y356007D01*
X424691D01*
X424874Y355996D01*
D02*
G37*
G36*
X415999Y316852D02*
X416094Y316846D01*
X416183Y316829D01*
X416266Y316813D01*
X416343Y316791D01*
X416416Y316768D01*
X416482Y316741D01*
X416543Y316713D01*
X416599Y316685D01*
X416643Y316657D01*
X416682Y316635D01*
X416715Y316613D01*
X416743Y316596D01*
X416760Y316580D01*
X416771Y316574D01*
X416777Y316569D01*
X416832Y316513D01*
X416882Y316452D01*
X416932Y316386D01*
X416971Y316319D01*
X417037Y316186D01*
X417082Y316053D01*
X417098Y315991D01*
X417115Y315930D01*
X417126Y315880D01*
X417137Y315836D01*
X417143Y315797D01*
Y315770D01*
X417148Y315753D01*
Y315747D01*
X416665Y315697D01*
X416654Y315825D01*
X416632Y315936D01*
X416599Y316036D01*
X416560Y316113D01*
X416527Y316180D01*
X416493Y316225D01*
X416471Y316252D01*
X416460Y316263D01*
X416377Y316330D01*
X416288Y316380D01*
X416194Y316419D01*
X416111Y316441D01*
X416033Y316458D01*
X415966Y316463D01*
X415944Y316469D01*
X415911D01*
X415794Y316463D01*
X415689Y316441D01*
X415600Y316408D01*
X415522Y316374D01*
X415461Y316336D01*
X415422Y316308D01*
X415394Y316286D01*
X415383Y316274D01*
X415317Y316197D01*
X415267Y316119D01*
X415228Y316041D01*
X415206Y315964D01*
X415189Y315903D01*
X415184Y315847D01*
X415178Y315814D01*
Y315808D01*
Y315803D01*
X415189Y315703D01*
X415211Y315597D01*
X415250Y315503D01*
X415289Y315414D01*
X415333Y315342D01*
X415372Y315281D01*
X415383Y315259D01*
X415394Y315242D01*
X415406Y315237D01*
Y315231D01*
X415450Y315170D01*
X415506Y315109D01*
X415567Y315042D01*
X415633Y314976D01*
X415772Y314843D01*
X415911Y314709D01*
X415983Y314648D01*
X416044Y314593D01*
X416105Y314543D01*
X416155Y314498D01*
X416194Y314465D01*
X416227Y314437D01*
X416249Y314421D01*
X416255Y314415D01*
X416394Y314299D01*
X416521Y314188D01*
X416627Y314088D01*
X416710Y314005D01*
X416782Y313932D01*
X416832Y313882D01*
X416860Y313849D01*
X416871Y313844D01*
Y313838D01*
X416949Y313744D01*
X417010Y313655D01*
X417065Y313566D01*
X417109Y313488D01*
X417143Y313422D01*
X417165Y313372D01*
X417176Y313338D01*
X417182Y313333D01*
Y313327D01*
X417204Y313266D01*
X417215Y313211D01*
X417226Y313155D01*
X417232Y313106D01*
X417237Y313061D01*
Y313028D01*
Y313005D01*
Y313000D01*
X414690D01*
Y313455D01*
X416582D01*
X416516Y313549D01*
X416482Y313588D01*
X416455Y313627D01*
X416427Y313660D01*
X416405Y313683D01*
X416388Y313699D01*
X416382Y313705D01*
X416355Y313733D01*
X416321Y313760D01*
X416244Y313832D01*
X416155Y313916D01*
X416060Y313999D01*
X415972Y314071D01*
X415933Y314104D01*
X415900Y314138D01*
X415872Y314160D01*
X415850Y314177D01*
X415838Y314188D01*
X415833Y314193D01*
X415744Y314271D01*
X415655Y314343D01*
X415578Y314415D01*
X415506Y314476D01*
X415439Y314537D01*
X415383Y314593D01*
X415328Y314643D01*
X415283Y314687D01*
X415239Y314732D01*
X415206Y314765D01*
X415178Y314793D01*
X415150Y314820D01*
X415123Y314854D01*
X415111Y314865D01*
X415034Y314959D01*
X414967Y315042D01*
X414912Y315126D01*
X414867Y315192D01*
X414834Y315253D01*
X414812Y315298D01*
X414801Y315325D01*
X414795Y315336D01*
X414762Y315420D01*
X414740Y315503D01*
X414717Y315581D01*
X414706Y315647D01*
X414701Y315708D01*
X414695Y315753D01*
Y315780D01*
Y315792D01*
X414701Y315875D01*
X414712Y315953D01*
X414723Y316030D01*
X414745Y316097D01*
X414801Y316230D01*
X414856Y316336D01*
X414889Y316386D01*
X414917Y316424D01*
X414945Y316463D01*
X414973Y316491D01*
X414995Y316513D01*
X415006Y316535D01*
X415017Y316541D01*
X415023Y316547D01*
X415084Y316602D01*
X415150Y316652D01*
X415223Y316691D01*
X415295Y316724D01*
X415439Y316780D01*
X415583Y316818D01*
X415644Y316829D01*
X415705Y316841D01*
X415761Y316846D01*
X415805Y316852D01*
X415844Y316857D01*
X415900D01*
X415999Y316852D01*
D02*
G37*
G36*
X419374Y316896D02*
X419552Y316868D01*
X419707Y316835D01*
X419779Y316813D01*
X419846Y316791D01*
X419907Y316768D01*
X419962Y316746D01*
X420007Y316730D01*
X420051Y316713D01*
X420079Y316696D01*
X420101Y316685D01*
X420118Y316680D01*
X420123Y316674D01*
X420273Y316580D01*
X420401Y316469D01*
X420512Y316358D01*
X420606Y316247D01*
X420678Y316147D01*
X420706Y316102D01*
X420728Y316064D01*
X420750Y316036D01*
X420761Y316014D01*
X420767Y315997D01*
X420773Y315991D01*
X420850Y315819D01*
X420906Y315642D01*
X420944Y315464D01*
X420972Y315303D01*
X420983Y315231D01*
X420989Y315159D01*
X420994Y315104D01*
Y315048D01*
X421000Y315009D01*
Y314976D01*
Y314954D01*
Y314948D01*
X420989Y314748D01*
X420967Y314554D01*
X420939Y314382D01*
X420917Y314299D01*
X420900Y314227D01*
X420883Y314160D01*
X420861Y314099D01*
X420845Y314043D01*
X420833Y313999D01*
X420817Y313966D01*
X420811Y313938D01*
X420800Y313921D01*
Y313916D01*
X420717Y313749D01*
X420623Y313599D01*
X420523Y313472D01*
X420473Y313422D01*
X420428Y313372D01*
X420384Y313327D01*
X420339Y313289D01*
X420301Y313255D01*
X420267Y313233D01*
X420245Y313211D01*
X420223Y313194D01*
X420212Y313189D01*
X420206Y313183D01*
X420129Y313139D01*
X420051Y313100D01*
X419884Y313039D01*
X419718Y312995D01*
X419557Y312967D01*
X419479Y312956D01*
X419413Y312945D01*
X419352Y312939D01*
X419302D01*
X419257Y312933D01*
X419196D01*
X419085Y312939D01*
X418980Y312950D01*
X418880Y312961D01*
X418785Y312983D01*
X418697Y313011D01*
X418613Y313039D01*
X418536Y313067D01*
X418464Y313100D01*
X418403Y313128D01*
X418342Y313155D01*
X418297Y313183D01*
X418253Y313211D01*
X418225Y313233D01*
X418197Y313244D01*
X418186Y313255D01*
X418181Y313261D01*
X418103Y313327D01*
X418036Y313394D01*
X417975Y313472D01*
X417914Y313549D01*
X417814Y313705D01*
X417737Y313860D01*
X417703Y313932D01*
X417676Y313999D01*
X417653Y314060D01*
X417637Y314110D01*
X417620Y314154D01*
X417609Y314188D01*
X417603Y314210D01*
Y314215D01*
X418114Y314343D01*
X418136Y314254D01*
X418164Y314171D01*
X418192Y314093D01*
X418219Y314021D01*
X418253Y313955D01*
X418286Y313899D01*
X418325Y313844D01*
X418358Y313794D01*
X418386Y313749D01*
X418419Y313716D01*
X418447Y313683D01*
X418469Y313655D01*
X418491Y313638D01*
X418508Y313622D01*
X418514Y313616D01*
X418519Y313611D01*
X418575Y313566D01*
X418636Y313533D01*
X418758Y313472D01*
X418874Y313427D01*
X418991Y313400D01*
X419091Y313377D01*
X419130Y313372D01*
X419169D01*
X419202Y313366D01*
X419241D01*
X419368Y313372D01*
X419490Y313394D01*
X419601Y313422D01*
X419701Y313455D01*
X419779Y313488D01*
X419812Y313505D01*
X419840Y313516D01*
X419862Y313527D01*
X419879Y313538D01*
X419890Y313544D01*
X419896D01*
X420001Y313622D01*
X420090Y313705D01*
X420167Y313799D01*
X420228Y313888D01*
X420279Y313966D01*
X420312Y314032D01*
X420323Y314060D01*
X420334Y314077D01*
X420339Y314088D01*
Y314093D01*
X420384Y314238D01*
X420417Y314382D01*
X420445Y314526D01*
X420462Y314660D01*
X420467Y314721D01*
X420473Y314776D01*
Y314826D01*
X420478Y314865D01*
Y314898D01*
Y314926D01*
Y314943D01*
Y314948D01*
X420473Y315092D01*
X420462Y315226D01*
X420439Y315348D01*
X420417Y315459D01*
X420401Y315553D01*
X420390Y315592D01*
X420378Y315625D01*
X420373Y315653D01*
X420367Y315669D01*
X420362Y315681D01*
Y315686D01*
X420306Y315814D01*
X420245Y315930D01*
X420179Y316025D01*
X420107Y316108D01*
X420045Y316175D01*
X419995Y316219D01*
X419957Y316247D01*
X419951Y316258D01*
X419945D01*
X419829Y316330D01*
X419701Y316386D01*
X419579Y316424D01*
X419463Y316446D01*
X419357Y316463D01*
X419313Y316469D01*
X419274D01*
X419246Y316474D01*
X419202D01*
X419063Y316469D01*
X418935Y316446D01*
X418830Y316413D01*
X418736Y316380D01*
X418664Y316341D01*
X418608Y316313D01*
X418575Y316291D01*
X418564Y316280D01*
X418475Y316197D01*
X418392Y316102D01*
X418325Y316003D01*
X418269Y315903D01*
X418225Y315814D01*
X418208Y315770D01*
X418197Y315736D01*
X418186Y315708D01*
X418175Y315686D01*
X418169Y315675D01*
Y315669D01*
X417670Y315786D01*
X417703Y315886D01*
X417737Y315975D01*
X417781Y316058D01*
X417820Y316141D01*
X417864Y316213D01*
X417914Y316280D01*
X417959Y316347D01*
X418003Y316402D01*
X418047Y316446D01*
X418086Y316491D01*
X418125Y316530D01*
X418153Y316558D01*
X418181Y316585D01*
X418203Y316602D01*
X418214Y316607D01*
X418219Y316613D01*
X418297Y316663D01*
X418375Y316713D01*
X418453Y316752D01*
X418536Y316785D01*
X418702Y316835D01*
X418852Y316868D01*
X418924Y316885D01*
X418985Y316891D01*
X419046Y316896D01*
X419096Y316902D01*
X419135Y316907D01*
X419191D01*
X419374Y316896D01*
D02*
G37*
G36*
X421755Y294763D02*
X421816Y294674D01*
X421888Y294585D01*
X421955Y294508D01*
X422022Y294441D01*
X422072Y294386D01*
X422094Y294369D01*
X422111Y294352D01*
X422116Y294347D01*
X422122Y294341D01*
X422238Y294247D01*
X422355Y294158D01*
X422466Y294080D01*
X422577Y294019D01*
X422671Y293964D01*
X422710Y293941D01*
X422743Y293925D01*
X422771Y293908D01*
X422793Y293903D01*
X422804Y293892D01*
X422810D01*
Y293437D01*
X422726Y293470D01*
X422643Y293509D01*
X422560Y293547D01*
X422482Y293586D01*
X422416Y293620D01*
X422360Y293647D01*
X422327Y293670D01*
X422321Y293675D01*
X422316D01*
X422216Y293736D01*
X422127Y293797D01*
X422049Y293853D01*
X421988Y293903D01*
X421933Y293941D01*
X421900Y293975D01*
X421872Y293997D01*
X421866Y294003D01*
Y291000D01*
X421394D01*
Y294857D01*
X421700D01*
X421755Y294763D01*
D02*
G37*
G36*
X425374Y294896D02*
X425552Y294868D01*
X425707Y294835D01*
X425779Y294813D01*
X425846Y294791D01*
X425907Y294768D01*
X425962Y294746D01*
X426007Y294730D01*
X426051Y294713D01*
X426079Y294696D01*
X426101Y294685D01*
X426118Y294680D01*
X426123Y294674D01*
X426273Y294580D01*
X426401Y294469D01*
X426512Y294358D01*
X426606Y294247D01*
X426678Y294147D01*
X426706Y294102D01*
X426728Y294064D01*
X426750Y294036D01*
X426761Y294014D01*
X426767Y293997D01*
X426772Y293991D01*
X426850Y293819D01*
X426906Y293642D01*
X426944Y293464D01*
X426972Y293303D01*
X426983Y293231D01*
X426989Y293159D01*
X426994Y293104D01*
Y293048D01*
X427000Y293009D01*
Y292976D01*
Y292954D01*
Y292948D01*
X426989Y292748D01*
X426967Y292554D01*
X426939Y292382D01*
X426917Y292299D01*
X426900Y292227D01*
X426883Y292160D01*
X426861Y292099D01*
X426845Y292043D01*
X426833Y291999D01*
X426817Y291966D01*
X426811Y291938D01*
X426800Y291921D01*
Y291916D01*
X426717Y291749D01*
X426623Y291599D01*
X426523Y291472D01*
X426473Y291422D01*
X426428Y291372D01*
X426384Y291327D01*
X426339Y291289D01*
X426301Y291255D01*
X426267Y291233D01*
X426245Y291211D01*
X426223Y291194D01*
X426212Y291189D01*
X426206Y291183D01*
X426129Y291139D01*
X426051Y291100D01*
X425884Y291039D01*
X425718Y290995D01*
X425557Y290967D01*
X425479Y290956D01*
X425413Y290945D01*
X425352Y290939D01*
X425302D01*
X425257Y290933D01*
X425196D01*
X425085Y290939D01*
X424980Y290950D01*
X424880Y290961D01*
X424786Y290983D01*
X424697Y291011D01*
X424614Y291039D01*
X424536Y291067D01*
X424464Y291100D01*
X424403Y291128D01*
X424342Y291155D01*
X424297Y291183D01*
X424253Y291211D01*
X424225Y291233D01*
X424197Y291244D01*
X424186Y291255D01*
X424181Y291261D01*
X424103Y291327D01*
X424036Y291394D01*
X423975Y291472D01*
X423914Y291549D01*
X423814Y291705D01*
X423737Y291860D01*
X423703Y291932D01*
X423676Y291999D01*
X423653Y292060D01*
X423637Y292110D01*
X423620Y292154D01*
X423609Y292188D01*
X423603Y292210D01*
Y292215D01*
X424114Y292343D01*
X424136Y292254D01*
X424164Y292171D01*
X424192Y292093D01*
X424219Y292021D01*
X424253Y291955D01*
X424286Y291899D01*
X424325Y291844D01*
X424358Y291794D01*
X424386Y291749D01*
X424419Y291716D01*
X424447Y291683D01*
X424469Y291655D01*
X424491Y291638D01*
X424508Y291622D01*
X424514Y291616D01*
X424519Y291611D01*
X424575Y291566D01*
X424636Y291533D01*
X424758Y291472D01*
X424874Y291427D01*
X424991Y291400D01*
X425091Y291377D01*
X425130Y291372D01*
X425169D01*
X425202Y291366D01*
X425241D01*
X425368Y291372D01*
X425490Y291394D01*
X425601Y291422D01*
X425701Y291455D01*
X425779Y291488D01*
X425812Y291505D01*
X425840Y291516D01*
X425862Y291527D01*
X425879Y291538D01*
X425890Y291544D01*
X425896D01*
X426001Y291622D01*
X426090Y291705D01*
X426167Y291799D01*
X426229Y291888D01*
X426278Y291966D01*
X426312Y292032D01*
X426323Y292060D01*
X426334Y292077D01*
X426339Y292088D01*
Y292093D01*
X426384Y292238D01*
X426417Y292382D01*
X426445Y292526D01*
X426462Y292659D01*
X426467Y292721D01*
X426473Y292776D01*
Y292826D01*
X426478Y292865D01*
Y292898D01*
Y292926D01*
Y292943D01*
Y292948D01*
X426473Y293092D01*
X426462Y293226D01*
X426440Y293348D01*
X426417Y293459D01*
X426401Y293553D01*
X426390Y293592D01*
X426378Y293625D01*
X426373Y293653D01*
X426367Y293670D01*
X426362Y293681D01*
Y293686D01*
X426306Y293814D01*
X426245Y293930D01*
X426179Y294025D01*
X426107Y294108D01*
X426045Y294175D01*
X425995Y294219D01*
X425957Y294247D01*
X425951Y294258D01*
X425946D01*
X425829Y294330D01*
X425701Y294386D01*
X425579Y294424D01*
X425463Y294446D01*
X425357Y294463D01*
X425313Y294469D01*
X425274D01*
X425246Y294474D01*
X425202D01*
X425063Y294469D01*
X424935Y294446D01*
X424830Y294413D01*
X424736Y294380D01*
X424663Y294341D01*
X424608Y294313D01*
X424575Y294291D01*
X424564Y294280D01*
X424475Y294197D01*
X424392Y294102D01*
X424325Y294003D01*
X424269Y293903D01*
X424225Y293814D01*
X424208Y293770D01*
X424197Y293736D01*
X424186Y293708D01*
X424175Y293686D01*
X424169Y293675D01*
Y293670D01*
X423670Y293786D01*
X423703Y293886D01*
X423737Y293975D01*
X423781Y294058D01*
X423820Y294141D01*
X423864Y294214D01*
X423914Y294280D01*
X423959Y294347D01*
X424003Y294402D01*
X424047Y294446D01*
X424086Y294491D01*
X424125Y294530D01*
X424153Y294557D01*
X424181Y294585D01*
X424203Y294602D01*
X424214Y294607D01*
X424219Y294613D01*
X424297Y294663D01*
X424375Y294713D01*
X424452Y294752D01*
X424536Y294785D01*
X424702Y294835D01*
X424852Y294868D01*
X424924Y294885D01*
X424985Y294890D01*
X425046Y294896D01*
X425096Y294902D01*
X425135Y294907D01*
X425191D01*
X425374Y294896D01*
D02*
G37*
%LPC*%
G36*
X438611Y260969D02*
X438566D01*
X438472Y260963D01*
X438383Y260941D01*
X438311Y260913D01*
X438244Y260880D01*
X438194Y260847D01*
X438155Y260819D01*
X438128Y260797D01*
X438122Y260791D01*
X438061Y260719D01*
X438017Y260647D01*
X437983Y260575D01*
X437961Y260508D01*
X437950Y260447D01*
X437939Y260397D01*
Y260364D01*
Y260358D01*
Y260353D01*
X437944Y260264D01*
X437967Y260181D01*
X437994Y260108D01*
X438028Y260047D01*
X438061Y259998D01*
X438089Y259964D01*
X438111Y259936D01*
X438117Y259931D01*
X438183Y259875D01*
X438261Y259831D01*
X438333Y259803D01*
X438405Y259781D01*
X438472Y259770D01*
X438522Y259764D01*
X438555Y259759D01*
X438566D01*
X438666Y259764D01*
X438755Y259787D01*
X438832Y259814D01*
X438899Y259848D01*
X438949Y259875D01*
X438988Y259903D01*
X439016Y259925D01*
X439021Y259931D01*
X439077Y259998D01*
X439121Y260075D01*
X439149Y260147D01*
X439171Y260220D01*
X439182Y260280D01*
X439188Y260331D01*
X439193Y260364D01*
Y260369D01*
Y260375D01*
X439188Y260464D01*
X439165Y260541D01*
X439138Y260613D01*
X439104Y260675D01*
X439077Y260724D01*
X439049Y260763D01*
X439027Y260786D01*
X439021Y260791D01*
X438949Y260852D01*
X438877Y260897D01*
X438799Y260924D01*
X438727Y260946D01*
X438660Y260958D01*
X438611Y260969D01*
D02*
G37*
G36*
X438616Y259376D02*
X438583D01*
X438461Y259365D01*
X438350Y259343D01*
X438250Y259304D01*
X438166Y259265D01*
X438100Y259221D01*
X438050Y259182D01*
X438022Y259159D01*
X438011Y259148D01*
X437933Y259060D01*
X437878Y258965D01*
X437839Y258871D01*
X437811Y258788D01*
X437795Y258704D01*
X437789Y258643D01*
X437783Y258621D01*
Y258604D01*
Y258593D01*
Y258588D01*
X437795Y258471D01*
X437817Y258360D01*
X437856Y258266D01*
X437894Y258188D01*
X437933Y258127D01*
X437972Y258077D01*
X437994Y258049D01*
X438005Y258038D01*
X438094Y257966D01*
X438183Y257911D01*
X438277Y257877D01*
X438366Y257850D01*
X438444Y257833D01*
X438511Y257827D01*
X438533Y257822D01*
X438566D01*
X438644Y257827D01*
X438722Y257839D01*
X438794Y257855D01*
X438855Y257872D01*
X438905Y257889D01*
X438943Y257905D01*
X438966Y257916D01*
X438977Y257922D01*
X439043Y257966D01*
X439099Y258011D01*
X439149Y258061D01*
X439188Y258110D01*
X439221Y258149D01*
X439243Y258183D01*
X439254Y258210D01*
X439260Y258216D01*
X439288Y258288D01*
X439310Y258355D01*
X439326Y258421D01*
X439337Y258482D01*
X439343Y258532D01*
X439349Y258571D01*
Y258593D01*
Y258604D01*
X439337Y258721D01*
X439315Y258826D01*
X439282Y258921D01*
X439238Y259004D01*
X439199Y259065D01*
X439165Y259115D01*
X439143Y259143D01*
X439132Y259154D01*
X439049Y259226D01*
X438955Y259282D01*
X438866Y259320D01*
X438777Y259348D01*
X438699Y259365D01*
X438638Y259370D01*
X438616Y259376D01*
D02*
G37*
G36*
X387489Y231913D02*
X386280D01*
X386130Y231908D01*
X386002Y231886D01*
X385891Y231858D01*
X385808Y231824D01*
X385736Y231791D01*
X385691Y231763D01*
X385664Y231741D01*
X385652Y231736D01*
X385586Y231663D01*
X385536Y231591D01*
X385503Y231514D01*
X385475Y231447D01*
X385464Y231381D01*
X385458Y231330D01*
X385453Y231297D01*
Y231292D01*
Y231286D01*
X385458Y231220D01*
X385469Y231153D01*
X385486Y231097D01*
X385503Y231047D01*
X385525Y231003D01*
X385541Y230970D01*
X385552Y230948D01*
X385558Y230942D01*
X385597Y230887D01*
X385647Y230837D01*
X385697Y230798D01*
X385747Y230764D01*
X385791Y230742D01*
X385824Y230726D01*
X385847Y230714D01*
X385858Y230709D01*
X385935Y230687D01*
X386024Y230670D01*
X386113Y230659D01*
X386202Y230653D01*
X386280Y230648D01*
X386346Y230642D01*
X387489D01*
Y231913D01*
D02*
G37*
G36*
X383989Y311413D02*
X382780D01*
X382630Y311408D01*
X382502Y311385D01*
X382391Y311358D01*
X382308Y311324D01*
X382236Y311291D01*
X382191Y311263D01*
X382164Y311241D01*
X382152Y311236D01*
X382086Y311163D01*
X382036Y311091D01*
X382002Y311014D01*
X381975Y310947D01*
X381964Y310880D01*
X381958Y310830D01*
X381953Y310797D01*
Y310792D01*
Y310786D01*
X381958Y310719D01*
X381969Y310653D01*
X381986Y310597D01*
X382002Y310547D01*
X382025Y310503D01*
X382041Y310470D01*
X382052Y310448D01*
X382058Y310442D01*
X382097Y310386D01*
X382147Y310336D01*
X382197Y310298D01*
X382247Y310264D01*
X382291Y310242D01*
X382324Y310226D01*
X382347Y310214D01*
X382358Y310209D01*
X382435Y310187D01*
X382524Y310170D01*
X382613Y310159D01*
X382702Y310153D01*
X382780Y310148D01*
X382846Y310142D01*
X383989D01*
Y311413D01*
D02*
G37*
G36*
X409489Y224385D02*
X408601D01*
X408529Y224380D01*
X408457D01*
X408391Y224374D01*
X408280Y224358D01*
X408191Y224347D01*
X408119Y224330D01*
X408069Y224313D01*
X408041Y224308D01*
X408030Y224302D01*
X407930Y224252D01*
X407835Y224191D01*
X407752Y224119D01*
X407680Y224047D01*
X407625Y223980D01*
X407580Y223925D01*
X407569Y223903D01*
X407558Y223886D01*
X407547Y223875D01*
Y223869D01*
X407514Y223808D01*
X407480Y223736D01*
X407430Y223592D01*
X407397Y223436D01*
X407369Y223287D01*
X407364Y223220D01*
X407358Y223153D01*
X407353Y223098D01*
Y223048D01*
X407347Y223004D01*
Y222976D01*
Y222954D01*
Y222948D01*
X407353Y222793D01*
X407364Y222648D01*
X407380Y222521D01*
X407397Y222410D01*
X407408Y222365D01*
X407419Y222326D01*
X407430Y222288D01*
X407436Y222260D01*
X407441Y222238D01*
X407447Y222221D01*
X407453Y222210D01*
Y222204D01*
X407491Y222099D01*
X407536Y222005D01*
X407586Y221921D01*
X407630Y221849D01*
X407669Y221794D01*
X407702Y221755D01*
X407725Y221733D01*
X407730Y221722D01*
X407786Y221677D01*
X407841Y221638D01*
X407897Y221605D01*
X407952Y221572D01*
X408002Y221549D01*
X408041Y221533D01*
X408069Y221527D01*
X408080Y221522D01*
X408163Y221499D01*
X408263Y221483D01*
X408363Y221472D01*
X408457Y221466D01*
X408540Y221461D01*
X408579Y221455D01*
X409489D01*
Y224385D01*
D02*
G37*
G36*
X444969Y224469D02*
X444925D01*
X444830Y224463D01*
X444742Y224441D01*
X444669Y224413D01*
X444603Y224380D01*
X444553Y224347D01*
X444514Y224319D01*
X444486Y224297D01*
X444481Y224291D01*
X444420Y224219D01*
X444375Y224147D01*
X444342Y224075D01*
X444320Y224008D01*
X444309Y223947D01*
X444298Y223897D01*
Y223864D01*
Y223858D01*
Y223853D01*
X444303Y223764D01*
X444325Y223681D01*
X444353Y223608D01*
X444386Y223547D01*
X444420Y223498D01*
X444448Y223464D01*
X444470Y223436D01*
X444475Y223431D01*
X444542Y223375D01*
X444620Y223331D01*
X444692Y223303D01*
X444764Y223281D01*
X444830Y223270D01*
X444880Y223264D01*
X444914Y223259D01*
X444925D01*
X445025Y223264D01*
X445114Y223287D01*
X445191Y223314D01*
X445258Y223348D01*
X445308Y223375D01*
X445347Y223403D01*
X445374Y223425D01*
X445380Y223431D01*
X445435Y223498D01*
X445480Y223575D01*
X445507Y223647D01*
X445530Y223720D01*
X445541Y223780D01*
X445546Y223831D01*
X445552Y223864D01*
Y223869D01*
Y223875D01*
X445546Y223964D01*
X445524Y224041D01*
X445496Y224113D01*
X445463Y224175D01*
X445435Y224224D01*
X445408Y224263D01*
X445385Y224286D01*
X445380Y224291D01*
X445308Y224352D01*
X445235Y224397D01*
X445158Y224424D01*
X445086Y224447D01*
X445019Y224458D01*
X444969Y224469D01*
D02*
G37*
G36*
X444975Y222876D02*
X444941D01*
X444819Y222865D01*
X444708Y222843D01*
X444608Y222804D01*
X444525Y222765D01*
X444459Y222721D01*
X444409Y222682D01*
X444381Y222659D01*
X444370Y222648D01*
X444292Y222559D01*
X444237Y222465D01*
X444198Y222371D01*
X444170Y222288D01*
X444153Y222204D01*
X444148Y222143D01*
X444142Y222121D01*
Y222104D01*
Y222093D01*
Y222088D01*
X444153Y221971D01*
X444175Y221860D01*
X444214Y221766D01*
X444253Y221688D01*
X444292Y221627D01*
X444331Y221577D01*
X444353Y221549D01*
X444364Y221538D01*
X444453Y221466D01*
X444542Y221411D01*
X444636Y221377D01*
X444725Y221350D01*
X444803Y221333D01*
X444869Y221327D01*
X444891Y221322D01*
X444925D01*
X445003Y221327D01*
X445080Y221339D01*
X445152Y221355D01*
X445213Y221372D01*
X445263Y221389D01*
X445302Y221405D01*
X445324Y221416D01*
X445335Y221422D01*
X445402Y221466D01*
X445458Y221511D01*
X445507Y221561D01*
X445546Y221610D01*
X445580Y221649D01*
X445602Y221683D01*
X445613Y221710D01*
X445618Y221716D01*
X445646Y221788D01*
X445669Y221855D01*
X445685Y221921D01*
X445696Y221982D01*
X445702Y222032D01*
X445707Y222071D01*
Y222093D01*
Y222104D01*
X445696Y222221D01*
X445674Y222326D01*
X445641Y222421D01*
X445596Y222504D01*
X445557Y222565D01*
X445524Y222615D01*
X445502Y222643D01*
X445491Y222654D01*
X445408Y222726D01*
X445313Y222782D01*
X445224Y222820D01*
X445136Y222848D01*
X445058Y222865D01*
X444997Y222870D01*
X444975Y222876D01*
D02*
G37*
G36*
X375930Y242576D02*
X375897D01*
X375781Y242565D01*
X375675Y242537D01*
X375586Y242503D01*
X375508Y242459D01*
X375447Y242415D01*
X375403Y242381D01*
X375375Y242354D01*
X375364Y242343D01*
X375292Y242248D01*
X375237Y242148D01*
X375198Y242043D01*
X375175Y241943D01*
X375159Y241854D01*
X375153Y241815D01*
Y241782D01*
X375148Y241754D01*
Y241732D01*
Y241721D01*
Y241716D01*
X375159Y241566D01*
X375181Y241438D01*
X375214Y241327D01*
X375253Y241233D01*
X375298Y241160D01*
X375331Y241105D01*
X375353Y241072D01*
X375364Y241066D01*
Y241061D01*
X375403Y241016D01*
X375447Y240983D01*
X375536Y240922D01*
X375625Y240883D01*
X375703Y240850D01*
X375775Y240833D01*
X375830Y240827D01*
X375853Y240822D01*
X375880D01*
X375958Y240827D01*
X376030Y240839D01*
X376097Y240861D01*
X376152Y240883D01*
X376202Y240900D01*
X376241Y240922D01*
X376263Y240933D01*
X376274Y240938D01*
X376341Y240988D01*
X376396Y241038D01*
X376447Y241099D01*
X376485Y241149D01*
X376519Y241199D01*
X376541Y241238D01*
X376557Y241266D01*
X376563Y241277D01*
X376596Y241360D01*
X376619Y241443D01*
X376641Y241521D01*
X376652Y241593D01*
X376657Y241654D01*
X376663Y241704D01*
Y241732D01*
Y241743D01*
X376652Y241876D01*
X376630Y241993D01*
X376591Y242098D01*
X376552Y242182D01*
X376513Y242254D01*
X376474Y242304D01*
X376452Y242332D01*
X376441Y242343D01*
X376352Y242420D01*
X376263Y242476D01*
X376169Y242520D01*
X376086Y242548D01*
X376008Y242565D01*
X375953Y242570D01*
X375930Y242576D01*
D02*
G37*
G36*
X363469Y333569D02*
X363436D01*
X363375Y333563D01*
X363314Y333558D01*
X363258Y333541D01*
X363208Y333519D01*
X363114Y333469D01*
X363031Y333413D01*
X362970Y333352D01*
X362920Y333302D01*
X362903Y333280D01*
X362892Y333263D01*
X362881Y333258D01*
Y333252D01*
X362842Y333186D01*
X362809Y333108D01*
X362775Y333019D01*
X362753Y332925D01*
X362731Y332825D01*
X362714Y332720D01*
X362687Y332509D01*
X362675Y332403D01*
X362670Y332309D01*
X362664Y332220D01*
Y332148D01*
X362659Y332081D01*
Y332031D01*
Y332004D01*
Y331998D01*
Y331993D01*
Y331821D01*
X362670Y331665D01*
X362681Y331526D01*
X362692Y331393D01*
X362709Y331282D01*
X362731Y331177D01*
X362753Y331088D01*
X362770Y331005D01*
X362792Y330938D01*
X362814Y330883D01*
X362831Y330833D01*
X362853Y330794D01*
X362864Y330766D01*
X362875Y330749D01*
X362886Y330738D01*
Y330733D01*
X362931Y330677D01*
X362975Y330633D01*
X363020Y330588D01*
X363064Y330555D01*
X363158Y330500D01*
X363242Y330461D01*
X363319Y330438D01*
X363375Y330427D01*
X363397Y330422D01*
X363430D01*
X363491Y330427D01*
X363547Y330433D01*
X363652Y330472D01*
X363747Y330522D01*
X363830Y330577D01*
X363891Y330633D01*
X363941Y330683D01*
X363969Y330722D01*
X363980Y330727D01*
Y330733D01*
X364019Y330799D01*
X364052Y330877D01*
X364085Y330966D01*
X364107Y331060D01*
X364130Y331160D01*
X364146Y331265D01*
X364174Y331482D01*
X364185Y331582D01*
X364191Y331676D01*
X364196Y331765D01*
Y331837D01*
X364202Y331904D01*
Y331954D01*
Y331981D01*
Y331993D01*
X364196Y332165D01*
X364191Y332320D01*
X364180Y332464D01*
X364163Y332597D01*
X364146Y332714D01*
X364124Y332820D01*
X364102Y332914D01*
X364080Y332997D01*
X364057Y333069D01*
X364041Y333130D01*
X364019Y333180D01*
X364002Y333225D01*
X363985Y333252D01*
X363974Y333275D01*
X363963Y333286D01*
Y333291D01*
X363924Y333341D01*
X363885Y333386D01*
X363841Y333419D01*
X363797Y333452D01*
X363708Y333502D01*
X363625Y333535D01*
X363552Y333552D01*
X363491Y333563D01*
X363469Y333569D01*
D02*
G37*
G36*
X390938Y354969D02*
X390850D01*
X390794Y354958D01*
X390694Y354930D01*
X390605Y354891D01*
X390528Y354852D01*
X390467Y354808D01*
X390422Y354769D01*
X390394Y354741D01*
X390383Y354736D01*
Y354730D01*
X390311Y354636D01*
X390256Y354530D01*
X390217Y354419D01*
X390195Y354314D01*
X390178Y354225D01*
X390173Y354186D01*
Y354147D01*
X390167Y354120D01*
Y354097D01*
Y354086D01*
Y354081D01*
X390178Y353937D01*
X390200Y353809D01*
X390234Y353703D01*
X390272Y353615D01*
X390317Y353542D01*
X390350Y353492D01*
X390372Y353459D01*
X390383Y353448D01*
X390467Y353370D01*
X390556Y353315D01*
X390644Y353276D01*
X390733Y353248D01*
X390805Y353232D01*
X390866Y353226D01*
X390889Y353221D01*
X390922D01*
X391038Y353232D01*
X391144Y353254D01*
X391238Y353293D01*
X391321Y353337D01*
X391382Y353376D01*
X391432Y353415D01*
X391460Y353437D01*
X391471Y353448D01*
X391543Y353537D01*
X391599Y353637D01*
X391632Y353737D01*
X391660Y353831D01*
X391676Y353914D01*
X391682Y353948D01*
Y353981D01*
X391688Y354009D01*
Y354025D01*
Y354036D01*
Y354042D01*
X391676Y354186D01*
X391654Y354319D01*
X391616Y354436D01*
X391571Y354530D01*
X391532Y354608D01*
X391493Y354663D01*
X391482Y354680D01*
X391471Y354697D01*
X391460Y354702D01*
Y354708D01*
X391416Y354752D01*
X391371Y354797D01*
X391277Y354858D01*
X391183Y354908D01*
X391094Y354935D01*
X391022Y354958D01*
X390961Y354963D01*
X390938Y354969D01*
D02*
G37*
G36*
X408455Y355469D02*
X408411D01*
X408316Y355463D01*
X408227Y355441D01*
X408155Y355413D01*
X408089Y355380D01*
X408039Y355347D01*
X408000Y355319D01*
X407972Y355297D01*
X407967Y355291D01*
X407906Y355219D01*
X407861Y355147D01*
X407828Y355075D01*
X407806Y355008D01*
X407795Y354947D01*
X407784Y354897D01*
Y354864D01*
Y354858D01*
Y354853D01*
X407789Y354764D01*
X407811Y354681D01*
X407839Y354608D01*
X407872Y354547D01*
X407906Y354498D01*
X407933Y354464D01*
X407956Y354436D01*
X407961Y354431D01*
X408028Y354375D01*
X408105Y354331D01*
X408178Y354303D01*
X408250Y354281D01*
X408316Y354270D01*
X408366Y354264D01*
X408399Y354259D01*
X408411D01*
X408511Y354264D01*
X408599Y354287D01*
X408677Y354314D01*
X408744Y354348D01*
X408794Y354375D01*
X408833Y354403D01*
X408860Y354425D01*
X408866Y354431D01*
X408921Y354498D01*
X408966Y354575D01*
X408993Y354647D01*
X409016Y354719D01*
X409027Y354781D01*
X409032Y354831D01*
X409038Y354864D01*
Y354869D01*
Y354875D01*
X409032Y354964D01*
X409010Y355041D01*
X408982Y355114D01*
X408949Y355175D01*
X408921Y355224D01*
X408893Y355263D01*
X408871Y355286D01*
X408866Y355291D01*
X408794Y355352D01*
X408721Y355397D01*
X408644Y355424D01*
X408572Y355447D01*
X408505Y355458D01*
X408455Y355469D01*
D02*
G37*
G36*
X408461Y353876D02*
X408427D01*
X408305Y353865D01*
X408194Y353843D01*
X408094Y353804D01*
X408011Y353765D01*
X407944Y353720D01*
X407895Y353682D01*
X407867Y353660D01*
X407856Y353648D01*
X407778Y353559D01*
X407722Y353465D01*
X407684Y353371D01*
X407656Y353288D01*
X407639Y353204D01*
X407634Y353143D01*
X407628Y353121D01*
Y353104D01*
Y353093D01*
Y353088D01*
X407639Y352971D01*
X407661Y352860D01*
X407700Y352766D01*
X407739Y352688D01*
X407778Y352627D01*
X407817Y352577D01*
X407839Y352549D01*
X407850Y352538D01*
X407939Y352466D01*
X408028Y352411D01*
X408122Y352377D01*
X408211Y352350D01*
X408288Y352333D01*
X408355Y352327D01*
X408377Y352322D01*
X408411D01*
X408488Y352327D01*
X408566Y352339D01*
X408638Y352355D01*
X408699Y352372D01*
X408749Y352389D01*
X408788Y352405D01*
X408810Y352416D01*
X408821Y352422D01*
X408888Y352466D01*
X408943Y352511D01*
X408993Y352561D01*
X409032Y352610D01*
X409065Y352649D01*
X409088Y352683D01*
X409099Y352710D01*
X409104Y352716D01*
X409132Y352788D01*
X409154Y352855D01*
X409171Y352921D01*
X409182Y352982D01*
X409188Y353032D01*
X409193Y353071D01*
Y353093D01*
Y353104D01*
X409182Y353221D01*
X409160Y353327D01*
X409127Y353421D01*
X409082Y353504D01*
X409043Y353565D01*
X409010Y353615D01*
X408988Y353643D01*
X408977Y353654D01*
X408893Y353726D01*
X408799Y353782D01*
X408710Y353820D01*
X408622Y353848D01*
X408544Y353865D01*
X408483Y353870D01*
X408461Y353876D01*
D02*
G37*
G36*
X379916Y287076D02*
X379883D01*
X379766Y287065D01*
X379661Y287037D01*
X379572Y287003D01*
X379494Y286959D01*
X379433Y286915D01*
X379389Y286881D01*
X379361Y286854D01*
X379350Y286843D01*
X379278Y286748D01*
X379222Y286648D01*
X379184Y286543D01*
X379161Y286443D01*
X379145Y286354D01*
X379139Y286315D01*
Y286282D01*
X379134Y286254D01*
Y286232D01*
Y286221D01*
Y286215D01*
X379145Y286066D01*
X379167Y285938D01*
X379200Y285827D01*
X379239Y285733D01*
X379283Y285660D01*
X379317Y285605D01*
X379339Y285572D01*
X379350Y285566D01*
Y285561D01*
X379389Y285516D01*
X379433Y285483D01*
X379522Y285422D01*
X379611Y285383D01*
X379689Y285350D01*
X379761Y285333D01*
X379816Y285327D01*
X379838Y285322D01*
X379866D01*
X379944Y285327D01*
X380016Y285338D01*
X380083Y285361D01*
X380138Y285383D01*
X380188Y285400D01*
X380227Y285422D01*
X380249Y285433D01*
X380260Y285438D01*
X380327Y285488D01*
X380382Y285538D01*
X380432Y285599D01*
X380471Y285649D01*
X380504Y285699D01*
X380527Y285738D01*
X380543Y285766D01*
X380549Y285777D01*
X380582Y285860D01*
X380604Y285944D01*
X380627Y286021D01*
X380638Y286093D01*
X380643Y286154D01*
X380649Y286204D01*
Y286232D01*
Y286243D01*
X380638Y286376D01*
X380615Y286493D01*
X380577Y286598D01*
X380538Y286682D01*
X380499Y286754D01*
X380460Y286804D01*
X380438Y286831D01*
X380427Y286843D01*
X380338Y286920D01*
X380249Y286976D01*
X380155Y287020D01*
X380072Y287048D01*
X379994Y287065D01*
X379938Y287070D01*
X379916Y287076D01*
D02*
G37*
G36*
X379661Y303575D02*
Y301854D01*
X380871D01*
X379661Y303575D01*
D02*
G37*
%LPD*%
D10*
X389750Y235600D02*
X411100D01*
X387600Y237750D02*
X389750Y235600D01*
X387600Y237750D02*
Y247150D01*
X389850Y249400D02*
X411100D01*
X387600Y247150D02*
X389850Y249400D01*
X411100Y235600D02*
Y249400D01*
D11*
X385500Y252200D02*
Y256300D01*
Y252200D02*
X388800D01*
X391900Y252300D02*
X395300D01*
X385500Y256300D02*
X388900D01*
X391900D02*
X395300D01*
Y252300D02*
Y256300D01*
D12*
X421724Y220244D02*
X425661D01*
X421724Y225756D02*
X425661D01*
Y220244D02*
Y225756D01*
X421724Y220244D02*
Y225756D01*
X422906Y220244D02*
Y225756D01*
X433093Y223000D02*
X436893D01*
X434993Y221200D02*
Y225200D01*
X413493Y221300D02*
Y224900D01*
X415811Y252701D02*
X442189D01*
X415811Y242465D02*
Y252701D01*
X442189Y242465D02*
Y252701D01*
X415811Y242465D02*
X442189D01*
D14*
X399800Y252300D02*
Y257700D01*
X410700Y252300D02*
Y257700D01*
X399800Y252300D02*
X410700D01*
X399900Y257700D02*
X410700D01*
X384300Y258800D02*
Y264200D01*
X395200Y258800D02*
Y264200D01*
X384300Y258800D02*
X395200D01*
X384400Y264200D02*
X395200D01*
X420800Y310586D02*
X426200D01*
X420800Y299686D02*
X426200D01*
X420800D02*
Y310586D01*
X426200Y299686D02*
Y310486D01*
X420800Y328700D02*
X426200D01*
X420800Y317800D02*
X426200D01*
X420800D02*
Y328700D01*
X426200Y317800D02*
Y328600D01*
X435355Y216300D02*
X440755D01*
X435355Y227200D02*
X440755D01*
Y216300D02*
Y227200D01*
X435355Y216400D02*
Y227200D01*
X390300Y227800D02*
Y233200D01*
X401200Y227800D02*
Y233200D01*
X390300D02*
X394500D01*
X390300Y227800D02*
X394500D01*
X397500D02*
X401200D01*
X397500Y233200D02*
X401200D01*
X427700Y282800D02*
Y288200D01*
X416800Y282800D02*
Y288200D01*
X427700D01*
X416800Y282800D02*
X427600D01*
X376700Y284300D02*
Y289700D01*
X365800Y284300D02*
Y289700D01*
X376700D01*
X365800Y284300D02*
X376600D01*
X365800Y291993D02*
Y297393D01*
X376700Y291993D02*
Y297393D01*
X365800Y291993D02*
X376700D01*
X365900Y297393D02*
X376700D01*
X365800Y299686D02*
Y305086D01*
X376700Y299686D02*
Y305086D01*
X365800Y299686D02*
X376700D01*
X365900Y305086D02*
X376700D01*
X365800Y307379D02*
Y312779D01*
X376700Y307379D02*
Y312779D01*
X365800D02*
X370000D01*
X365800Y307379D02*
X370000D01*
X373000D02*
X376700D01*
X373000Y312779D02*
X376700D01*
X403800Y344300D02*
Y349700D01*
X414700Y344300D02*
Y349700D01*
X403800Y344300D02*
X414700D01*
X403900Y349700D02*
X414700D01*
X381300Y344300D02*
Y349700D01*
X392200Y344300D02*
Y349700D01*
X381300Y344300D02*
X392200D01*
X381400Y349700D02*
X392200D01*
X426200Y338800D02*
Y349600D01*
X420800Y338800D02*
Y349700D01*
Y338800D02*
X426200D01*
X420800Y349700D02*
X426200D01*
X365800Y316900D02*
Y327700D01*
X371200Y316800D02*
Y327700D01*
X365800D02*
X371200D01*
X365800Y316800D02*
X371200D01*
D66*
X442681Y236165D02*
G03*
X442681Y236165I-492J0D01*
G01*
M02*
