G04*
G04 #@! TF.GenerationSoftware,Altium Limited,Altium Designer,18.1.9 (240)*
G04*
G04 Layer_Color=8421504*
%FSLAX25Y25*%
%MOIN*%
G70*
G01*
G75*
%ADD17R,0.17717X0.17717*%
%ADD18R,0.07087X0.01000*%
%ADD19R,0.01000X0.07087*%
%ADD20R,0.03000X0.03000*%
%ADD21R,0.03000X0.03000*%
%ADD22R,0.11811X0.13780*%
%ADD23R,0.05000X0.05000*%
%ADD24O,0.07480X0.02362*%
D17*
X529500Y192500D02*
D03*
X470445D02*
D03*
X529500Y267303D02*
D03*
X470445D02*
D03*
D18*
X351417Y351650D02*
D03*
Y349681D02*
D03*
Y347713D02*
D03*
Y345744D02*
D03*
Y343776D02*
D03*
Y341807D02*
D03*
Y339839D02*
D03*
Y337870D02*
D03*
Y335902D02*
D03*
Y333933D02*
D03*
Y331965D02*
D03*
Y329996D02*
D03*
Y328027D02*
D03*
Y326059D02*
D03*
Y324090D02*
D03*
Y322122D02*
D03*
Y320153D02*
D03*
Y318185D02*
D03*
Y316217D02*
D03*
Y314248D02*
D03*
Y312280D02*
D03*
Y310311D02*
D03*
Y308343D02*
D03*
Y306374D02*
D03*
Y304406D02*
D03*
Y302437D02*
D03*
Y300469D02*
D03*
Y298500D02*
D03*
Y296532D02*
D03*
Y294563D02*
D03*
Y292595D02*
D03*
Y290626D02*
D03*
Y288658D02*
D03*
Y286689D02*
D03*
Y284721D02*
D03*
Y282752D02*
D03*
X440000D02*
D03*
Y284721D02*
D03*
Y286689D02*
D03*
Y288658D02*
D03*
Y290626D02*
D03*
Y292594D02*
D03*
Y294563D02*
D03*
Y296532D02*
D03*
Y298500D02*
D03*
Y300469D02*
D03*
Y302437D02*
D03*
Y304406D02*
D03*
Y306374D02*
D03*
Y308343D02*
D03*
Y310311D02*
D03*
Y312280D02*
D03*
Y314248D02*
D03*
Y316217D02*
D03*
Y318185D02*
D03*
Y320154D02*
D03*
Y322122D02*
D03*
Y324091D02*
D03*
Y326059D02*
D03*
Y328028D02*
D03*
Y329996D02*
D03*
Y331965D02*
D03*
Y333933D02*
D03*
Y335902D02*
D03*
Y337870D02*
D03*
Y339839D02*
D03*
Y341807D02*
D03*
Y343776D02*
D03*
Y345744D02*
D03*
Y347713D02*
D03*
Y349681D02*
D03*
Y351650D02*
D03*
D19*
X361260Y272909D02*
D03*
X363228D02*
D03*
X365197D02*
D03*
X367165D02*
D03*
X369134D02*
D03*
X371102D02*
D03*
X373071D02*
D03*
X375039D02*
D03*
X377008D02*
D03*
X378976D02*
D03*
X380945D02*
D03*
X382913D02*
D03*
X384882D02*
D03*
X386850D02*
D03*
X388819D02*
D03*
X390787D02*
D03*
X392756D02*
D03*
X394724D02*
D03*
X396693D02*
D03*
X398661D02*
D03*
X400630D02*
D03*
X402598D02*
D03*
X404567D02*
D03*
X406535D02*
D03*
X408504D02*
D03*
X410472D02*
D03*
X412441D02*
D03*
X414409D02*
D03*
X416378D02*
D03*
X418346D02*
D03*
X420315D02*
D03*
X422283D02*
D03*
X424252D02*
D03*
X426220D02*
D03*
X428189D02*
D03*
X430157D02*
D03*
Y361492D02*
D03*
X428189D02*
D03*
X426220D02*
D03*
X424252D02*
D03*
X422283D02*
D03*
X420315D02*
D03*
X418346D02*
D03*
X416378D02*
D03*
X414409D02*
D03*
X412441D02*
D03*
X410472D02*
D03*
X408504D02*
D03*
X406535D02*
D03*
X404567D02*
D03*
X402598D02*
D03*
X400630D02*
D03*
X398661D02*
D03*
X396693D02*
D03*
X394724D02*
D03*
X392756D02*
D03*
X390787D02*
D03*
X388819D02*
D03*
X386850D02*
D03*
X384882D02*
D03*
X382913D02*
D03*
X380945D02*
D03*
X378976D02*
D03*
X377008D02*
D03*
X375039D02*
D03*
X373071D02*
D03*
X371102D02*
D03*
X369134D02*
D03*
X367165D02*
D03*
X365197D02*
D03*
X363228D02*
D03*
X361260D02*
D03*
D20*
X330500Y382000D02*
D03*
X325000D02*
D03*
X330500Y365000D02*
D03*
X325000D02*
D03*
X326500Y349000D02*
D03*
X321000D02*
D03*
Y318500D02*
D03*
X326500D02*
D03*
X303500Y242500D02*
D03*
X298000D02*
D03*
X315499D02*
D03*
X309999D02*
D03*
X303901Y236000D02*
D03*
X297901D02*
D03*
X315900D02*
D03*
X309900D02*
D03*
X329000Y228000D02*
D03*
X323500D02*
D03*
X405100Y230500D02*
D03*
X411100D02*
D03*
X323500Y222000D02*
D03*
X329000D02*
D03*
X419000Y387000D02*
D03*
X424500D02*
D03*
X403500D02*
D03*
X409000D02*
D03*
D21*
X320500Y287394D02*
D03*
Y292894D02*
D03*
Y274394D02*
D03*
Y279894D02*
D03*
Y266894D02*
D03*
Y261394D02*
D03*
X451500Y363000D02*
D03*
Y368500D02*
D03*
X496500Y363328D02*
D03*
Y368828D02*
D03*
D22*
X492000Y165000D02*
D03*
X511685D02*
D03*
D23*
X303000Y301031D02*
D03*
Y255756D02*
D03*
D24*
X487752Y358500D02*
D03*
Y363500D02*
D03*
Y368500D02*
D03*
Y373500D02*
D03*
X465248Y358500D02*
D03*
Y363500D02*
D03*
Y368500D02*
D03*
Y373500D02*
D03*
M02*
