M48
;Layer_Color=9474304
;FILE_FORMAT=2:5
INCH,TZ
;TYPE=PLATED
T1F00S00C0.01200
T2F00S00C0.02400
T3F00S00C0.03543
T4F00S00C0.03937
T5F00S00C0.04724
T6F00S00C0.12205
%
T01
X503700Y173600
X484300Y193000
X477500Y293000
Y295500
X474500
Y293000
X483500Y302500
Y305000
X486500
Y302500
X510000Y304475
X513235
X513251Y307886
X510000
X457800Y306374
X451100Y298500
X431000Y300500
Y308300
X423500Y311100
X425000Y281389
X420315Y279000
X407000Y280500
X418300Y264900
X390787Y266000
X384000Y287000
X374000Y283800
X363228Y265000
X362700Y257500
X363000Y250000
X376500Y246500
X398500Y234000
X434000Y250000
X440000Y249000
X352000Y216000
X329000Y218000
Y232000
X315900Y232000
X315500Y247500
X313056Y252056
X320500Y299000
X338000Y308500
X335000Y312280
X346242Y288700
X287000Y270000
X290500Y227000
X303901Y232000
X295000Y198500
X334700Y319500
X343500Y328500
X368500Y328200
X365500Y345244
X384000Y343800
X389500
X386850Y351850
X403300Y343800
X406500
X433000Y348500
X437800Y355700
X444225Y361800
X456200Y368500
X459000Y357000
X446400Y331300
X447341Y328000
X431900Y328028
X429100Y331649
X423500Y329200
X434400Y337700
X440500Y382589
X443735
X443751Y386000
X440500
Y391500
X443735
X443751Y394911
X440500
X435762
X432511
Y391500
X435746
X326500Y345200
X476000Y384000
Y386500
X479000
Y384000
X501328Y363328
T02
X449000Y204000
T03
X499500Y309157
X453000Y267000
Y257000
Y247000
Y237000
Y227000
Y217000
X416500Y208865
X416600Y190065
X391000
X377600
X377500Y208865
X391000
X352000
Y190065
X303000Y268787
Y288000
X308000Y328500
Y338500
X298000
Y328500
X305000Y358472
Y368315
Y378157
Y388000
X300815Y409000
X310657
X320500
X330343
X350657
X360500
X370343
X380185
X400500
X410343
X420185
X430028
X318000Y338500
Y328500
X499500Y328843
Y338685
Y319000
T04
X469000Y159500
X476874
Y177217
X469000
X461126
Y159500
X338500Y192000
Y209500
X311000
Y192000
T05
X525500Y290000
Y305000
X444500Y168500
X429500
X409500
X394500
X374000
X359000
X344000
X323500
X308500
X293500
X276000Y190000
Y205000
Y220000
Y240000
Y255000
Y270000
Y290079
Y305079
Y320079
Y335079
Y350079
Y365079
Y380079
Y395079
X451248Y408500
X466248
X486748
X501748
X525500Y395000
Y380000
Y365000
Y350000
Y335000
Y320000
T06
X529000Y164500
X274000
Y415000
X529000Y414500
M30
