G04*
G04 #@! TF.GenerationSoftware,Altium Limited,Altium Designer,18.1.9 (240)*
G04*
G04 Layer_Color=255*
%FSLAX25Y25*%
%MOIN*%
G70*
G01*
G75*
%ADD20R,0.03000X0.03000*%
%ADD21R,0.03000X0.03000*%
%ADD48C,0.05906*%
%ADD49R,0.05906X0.05906*%
%ADD50C,0.08661*%
%ADD51R,0.05906X0.05906*%
%ADD52C,0.06299*%
%ADD53R,0.06299X0.06299*%
%ADD54C,0.12205*%
%ADD55C,0.07874*%
%ADD58R,0.04921X0.03937*%
%ADD59R,0.13386X0.09449*%
%ADD60R,0.03937X0.09449*%
%ADD61R,0.07087X0.11000*%
D20*
X402500Y255000D02*
D03*
X408000D02*
D03*
X387000Y261500D02*
D03*
X392500D02*
D03*
X393000Y230500D02*
D03*
X398500D02*
D03*
X393400Y254300D02*
D03*
X387400D02*
D03*
X425000Y285500D02*
D03*
X419500D02*
D03*
X374000Y287000D02*
D03*
X368500D02*
D03*
Y294693D02*
D03*
X374000D02*
D03*
X368500Y302386D02*
D03*
X374000D02*
D03*
X368500Y310079D02*
D03*
X374000D02*
D03*
X406500Y347000D02*
D03*
X412000D02*
D03*
X384000D02*
D03*
X389500D02*
D03*
D21*
X423500Y307886D02*
D03*
Y302386D02*
D03*
Y326000D02*
D03*
Y320500D02*
D03*
X438055Y219000D02*
D03*
Y224500D02*
D03*
X423500Y341500D02*
D03*
Y347000D02*
D03*
X368500Y325000D02*
D03*
Y319500D02*
D03*
D48*
X453000Y217000D02*
D03*
Y227000D02*
D03*
Y237000D02*
D03*
Y247000D02*
D03*
Y257000D02*
D03*
X499500Y319000D02*
D03*
Y328843D02*
D03*
Y338685D02*
D03*
X320500Y409000D02*
D03*
X310657D02*
D03*
X300815D02*
D03*
X370343D02*
D03*
X360500D02*
D03*
X350657D02*
D03*
X420185D02*
D03*
X410343D02*
D03*
X400500D02*
D03*
X461126Y177217D02*
D03*
X469000D02*
D03*
X476874D02*
D03*
Y159500D02*
D03*
X469000D02*
D03*
X461126D02*
D03*
X305000Y358472D02*
D03*
Y368315D02*
D03*
Y378157D02*
D03*
D49*
X453000Y267000D02*
D03*
X330343Y409000D02*
D03*
X380185D02*
D03*
X430028D02*
D03*
D50*
X276000Y270000D02*
D03*
Y255000D02*
D03*
Y240000D02*
D03*
Y395079D02*
D03*
Y380079D02*
D03*
Y365079D02*
D03*
Y350079D02*
D03*
Y335079D02*
D03*
Y320079D02*
D03*
Y305079D02*
D03*
Y290079D02*
D03*
X525500Y290000D02*
D03*
Y305000D02*
D03*
Y320000D02*
D03*
Y335000D02*
D03*
Y350000D02*
D03*
Y365000D02*
D03*
Y380000D02*
D03*
Y395000D02*
D03*
X486748Y408500D02*
D03*
X501748D02*
D03*
X451248D02*
D03*
X466248D02*
D03*
X276000Y220000D02*
D03*
Y205000D02*
D03*
Y190000D02*
D03*
X293500Y168500D02*
D03*
X308500D02*
D03*
X323500D02*
D03*
X344000D02*
D03*
X359000D02*
D03*
X374000D02*
D03*
X444500D02*
D03*
X429500D02*
D03*
X409500D02*
D03*
X394500D02*
D03*
D51*
X499500Y309157D02*
D03*
X305000Y388000D02*
D03*
D52*
X318000Y338500D02*
D03*
Y328500D02*
D03*
X308000Y338500D02*
D03*
Y328500D02*
D03*
X298000Y338500D02*
D03*
X416600Y190065D02*
D03*
X391000D02*
D03*
X416500Y208865D02*
D03*
X391000D02*
D03*
X377600Y190065D02*
D03*
X352000D02*
D03*
X377500Y208865D02*
D03*
X352000D02*
D03*
X303000Y288000D02*
D03*
Y268787D02*
D03*
D53*
X298000Y328500D02*
D03*
D54*
X529000Y414500D02*
D03*
Y164500D02*
D03*
X274000D02*
D03*
Y415000D02*
D03*
D55*
X311000Y209500D02*
D03*
Y192000D02*
D03*
X338500Y209500D02*
D03*
Y192000D02*
D03*
D58*
X429500Y223000D02*
D03*
X417886D02*
D03*
D59*
X429000Y259000D02*
D03*
D60*
X419945Y236165D02*
D03*
X429000D02*
D03*
X438055D02*
D03*
D61*
X393050Y242500D02*
D03*
X405950D02*
D03*
M02*
