G04*
G04 #@! TF.GenerationSoftware,Altium Limited,Altium Designer,18.1.9 (240)*
G04*
G04 Layer_Color=2752767*
%FSLAX25Y25*%
%MOIN*%
G70*
G01*
G75*
%ADD10C,0.00600*%
%ADD11C,0.00394*%
%ADD12C,0.00200*%
%ADD13C,0.00267*%
D10*
X262500Y424000D02*
X264000D01*
X540000D01*
Y154500D02*
Y424000D01*
X537500Y154500D02*
X540000D01*
X262500D02*
X537500D01*
X262500D02*
Y424000D01*
D11*
X474354Y372063D02*
G03*
X474354Y372063I-1969J0D01*
G01*
X415811Y254866D02*
X442189D01*
Y240299D02*
Y254866D01*
X415811Y240299D02*
X442189D01*
X415811D02*
Y254866D01*
X468646Y356197D02*
X484354D01*
X468646Y375803D02*
X484354D01*
Y356197D02*
Y375803D01*
X468646Y356197D02*
Y375803D01*
X427032Y247583D02*
X430969D01*
X429000Y245614D02*
Y249551D01*
X414827Y230555D02*
Y264610D01*
X443173Y230555D02*
Y264610D01*
X414827D02*
X443173D01*
X414827Y230555D02*
X443173D01*
X476500Y364032D02*
Y367969D01*
X474531Y366000D02*
X478469D01*
X463114Y355764D02*
X489886D01*
X463114Y376236D02*
X489886D01*
Y355764D02*
Y376236D01*
X463114Y355764D02*
Y376236D01*
D12*
X452200Y216200D02*
Y217800D01*
X453800D01*
Y216200D01*
X452200D01*
Y226200D02*
Y227800D01*
X453800D01*
Y226200D01*
X452200D01*
Y236200D02*
Y237800D01*
X453800D01*
Y236200D01*
X452200D01*
Y246200D02*
Y247800D01*
X453800D01*
Y246200D01*
X452200D01*
Y256200D02*
Y257800D01*
X453800D01*
Y256200D01*
X452200D01*
Y266200D02*
Y267800D01*
X453800D01*
Y266200D01*
X452200D01*
X498700Y308357D02*
Y309957D01*
X500300D01*
Y308357D01*
X498700D01*
Y318200D02*
Y319800D01*
X500300D01*
Y318200D01*
X498700D01*
Y328043D02*
Y329643D01*
X500300D01*
Y328043D01*
X498700D01*
Y337885D02*
Y339485D01*
X500300D01*
Y337885D01*
X498700D01*
X329543Y408200D02*
Y409800D01*
X331143D01*
Y408200D01*
X329543D01*
X319700D02*
Y409800D01*
X321300D01*
Y408200D01*
X319700D01*
X309857D02*
Y409800D01*
X311457D01*
Y408200D01*
X309857D01*
X300015D02*
Y409800D01*
X301615D01*
Y408200D01*
X300015D01*
X379385D02*
Y409800D01*
X380985D01*
Y408200D01*
X379385D01*
X369543D02*
Y409800D01*
X371143D01*
Y408200D01*
X369543D01*
X359700D02*
Y409800D01*
X361300D01*
Y408200D01*
X359700D01*
X349857D02*
Y409800D01*
X351457D01*
Y408200D01*
X349857D01*
X429228D02*
Y409800D01*
X430828D01*
Y408200D01*
X429228D01*
X419385D02*
Y409800D01*
X420985D01*
Y408200D01*
X419385D01*
X409543D02*
Y409800D01*
X411143D01*
Y408200D01*
X409543D01*
X399700D02*
Y409800D01*
X401300D01*
Y408200D01*
X399700D01*
X317200Y337700D02*
Y339300D01*
X318800D01*
Y337700D01*
X317200D01*
Y327700D02*
Y329300D01*
X318800D01*
Y327700D01*
X317200D01*
X307200Y337700D02*
Y339300D01*
X308800D01*
Y337700D01*
X307200D01*
Y327700D02*
Y329300D01*
X308800D01*
Y327700D01*
X307200D01*
X297200Y337700D02*
Y339300D01*
X298800D01*
Y337700D01*
X297200D01*
Y327700D02*
Y329300D01*
X298800D01*
Y327700D01*
X297200D01*
X415800Y189265D02*
Y190865D01*
X417400D01*
Y189265D01*
X415800D01*
X390200D02*
Y190865D01*
X391800D01*
Y189265D01*
X390200D01*
X415700Y208065D02*
Y209665D01*
X417300D01*
Y208065D01*
X415700D01*
X390200D02*
Y209665D01*
X391800D01*
Y208065D01*
X390200D01*
X376800Y189265D02*
Y190865D01*
X378400D01*
Y189265D01*
X376800D01*
X351200D02*
Y190865D01*
X352800D01*
Y189265D01*
X351200D01*
X376700Y208065D02*
Y209665D01*
X378300D01*
Y208065D01*
X376700D01*
X351200D02*
Y209665D01*
X352800D01*
Y208065D01*
X351200D01*
X461126Y176417D02*
X460326Y178017D01*
X461926D01*
X461126Y176417D01*
X469000D02*
X468200Y178017D01*
X469800D01*
X469000Y176417D01*
X476874D02*
X476074Y178017D01*
X477674D01*
X476874Y176417D01*
Y158700D02*
X476074Y160300D01*
X477674D01*
X476874Y158700D01*
X469000D02*
X468200Y160300D01*
X469800D01*
X469000Y158700D01*
X461126D02*
X460326Y160300D01*
X461926D01*
X461126Y158700D01*
X529000Y413700D02*
X529400Y414100D01*
X529800D01*
X529400Y414500D01*
X529800Y414900D01*
X529400D01*
X529000Y415300D01*
X528600Y414900D01*
X528200D01*
X528600Y414500D01*
X528200Y414100D01*
X528600D01*
X529000Y413700D01*
Y163700D02*
X529400Y164100D01*
X529800D01*
X529400Y164500D01*
X529800Y164900D01*
X529400D01*
X529000Y165300D01*
X528600Y164900D01*
X528200D01*
X528600Y164500D01*
X528200Y164100D01*
X528600D01*
X529000Y163700D01*
X274000D02*
X274400Y164100D01*
X274800D01*
X274400Y164500D01*
X274800Y164900D01*
X274400D01*
X274000Y165300D01*
X273600Y164900D01*
X273200D01*
X273600Y164500D01*
X273200Y164100D01*
X273600D01*
X274000Y163700D01*
Y414200D02*
X274400Y414600D01*
X274800D01*
X274400Y415000D01*
X274800Y415400D01*
X274400D01*
X274000Y415800D01*
X273600Y415400D01*
X273200D01*
X273600Y415000D01*
X273200Y414600D01*
X273600D01*
X274000Y414200D01*
X311000Y208700D02*
X310200Y210300D01*
X311800D01*
X311000Y208700D01*
Y191200D02*
X310200Y192800D01*
X311800D01*
X311000Y191200D01*
X338500Y208700D02*
X337700Y210300D01*
X339300D01*
X338500Y208700D01*
Y191200D02*
X337700Y192800D01*
X339300D01*
X338500Y191200D01*
X302200Y287200D02*
Y288800D01*
X303800D01*
Y287200D01*
X302200D01*
Y267987D02*
Y269587D01*
X303800D01*
Y267987D01*
X302200D01*
X304200Y357672D02*
Y359272D01*
X305800D01*
Y357672D01*
X304200D01*
Y367515D02*
Y369115D01*
X305800D01*
Y367515D01*
X304200D01*
Y377357D02*
Y378957D01*
X305800D01*
Y377357D01*
X304200D01*
Y387200D02*
Y388800D01*
X305800D01*
Y387200D01*
X304200D01*
X432200Y347700D02*
X432600Y348500D01*
X432200Y349300D01*
X433000Y348900D01*
X433800Y349300D01*
X433400Y348500D01*
X433800Y347700D01*
X433000Y348100D01*
X432200Y347700D01*
X342700Y327700D02*
X343100Y328500D01*
X342700Y329300D01*
X343500Y328900D01*
X344300Y329300D01*
X343900Y328500D01*
X344300Y327700D01*
X343500Y328100D01*
X342700Y327700D01*
X482700Y304200D02*
X483100Y305000D01*
X482700Y305800D01*
X483500Y305400D01*
X484300Y305800D01*
X483900Y305000D01*
X484300Y304200D01*
X483500Y304600D01*
X482700Y304200D01*
X485700D02*
X486100Y305000D01*
X485700Y305800D01*
X486500Y305400D01*
X487300Y305800D01*
X486900Y305000D01*
X487300Y304200D01*
X486500Y304600D01*
X485700Y304200D01*
X482700Y301700D02*
X483100Y302500D01*
X482700Y303300D01*
X483500Y302900D01*
X484300Y303300D01*
X483900Y302500D01*
X484300Y301700D01*
X483500Y302100D01*
X482700Y301700D01*
X485700D02*
X486100Y302500D01*
X485700Y303300D01*
X486500Y302900D01*
X487300Y303300D01*
X486900Y302500D01*
X487300Y301700D01*
X486500Y302100D01*
X485700Y301700D01*
X475200Y385700D02*
X475600Y386500D01*
X475200Y387300D01*
X476000Y386900D01*
X476800Y387300D01*
X476400Y386500D01*
X476800Y385700D01*
X476000Y386100D01*
X475200Y385700D01*
X478200D02*
X478600Y386500D01*
X478200Y387300D01*
X479000Y386900D01*
X479800Y387300D01*
X479400Y386500D01*
X479800Y385700D01*
X479000Y386100D01*
X478200Y385700D01*
X475200Y383200D02*
X475600Y384000D01*
X475200Y384800D01*
X476000Y384400D01*
X476800Y384800D01*
X476400Y384000D01*
X476800Y383200D01*
X476000Y383600D01*
X475200Y383200D01*
X478200D02*
X478600Y384000D01*
X478200Y384800D01*
X479000Y384400D01*
X479800Y384800D01*
X479400Y384000D01*
X479800Y383200D01*
X479000Y383600D01*
X478200Y383200D01*
X476700Y292200D02*
X477100Y293000D01*
X476700Y293800D01*
X477500Y293400D01*
X478300Y293800D01*
X477900Y293000D01*
X478300Y292200D01*
X477500Y292600D01*
X476700Y292200D01*
X473700D02*
X474100Y293000D01*
X473700Y293800D01*
X474500Y293400D01*
X475300Y293800D01*
X474900Y293000D01*
X475300Y292200D01*
X474500Y292600D01*
X473700Y292200D01*
X476700Y294700D02*
X477100Y295500D01*
X476700Y296300D01*
X477500Y295900D01*
X478300Y296300D01*
X477900Y295500D01*
X478300Y294700D01*
X477500Y295100D01*
X476700Y294700D01*
X473700D02*
X474100Y295500D01*
X473700Y296300D01*
X474500Y295900D01*
X475300Y296300D01*
X474900Y295500D01*
X475300Y294700D01*
X474500Y295100D01*
X473700Y294700D01*
X509200Y307086D02*
X509600Y307886D01*
X509200Y308686D01*
X510000Y308286D01*
X510800Y308686D01*
X510400Y307886D01*
X510800Y307086D01*
X510000Y307486D01*
X509200Y307086D01*
X512451D02*
X512851Y307886D01*
X512451Y308686D01*
X513251Y308286D01*
X514051Y308686D01*
X513651Y307886D01*
X514051Y307086D01*
X513251Y307486D01*
X512451Y307086D01*
X509200Y303675D02*
X509600Y304475D01*
X509200Y305275D01*
X510000Y304875D01*
X510800Y305275D01*
X510400Y304475D01*
X510800Y303675D01*
X510000Y304075D01*
X509200Y303675D01*
X512435D02*
X512835Y304475D01*
X512435Y305275D01*
X513235Y304875D01*
X514035Y305275D01*
X513635Y304475D01*
X514035Y303675D01*
X513235Y304075D01*
X512435Y303675D01*
X439700Y385200D02*
X440100Y386000D01*
X439700Y386800D01*
X440500Y386400D01*
X441300Y386800D01*
X440900Y386000D01*
X441300Y385200D01*
X440500Y385600D01*
X439700Y385200D01*
X442951D02*
X443351Y386000D01*
X442951Y386800D01*
X443751Y386400D01*
X444551Y386800D01*
X444151Y386000D01*
X444551Y385200D01*
X443751Y385600D01*
X442951Y385200D01*
X439700Y381789D02*
X440100Y382589D01*
X439700Y383389D01*
X440500Y382989D01*
X441300Y383389D01*
X440900Y382589D01*
X441300Y381789D01*
X440500Y382189D01*
X439700Y381789D01*
X442935D02*
X443335Y382589D01*
X442935Y383389D01*
X443735Y382989D01*
X444535Y383389D01*
X444135Y382589D01*
X444535Y381789D01*
X443735Y382189D01*
X442935Y381789D01*
X439700Y394111D02*
X440100Y394911D01*
X439700Y395711D01*
X440500Y395311D01*
X441300Y395711D01*
X440900Y394911D01*
X441300Y394111D01*
X440500Y394511D01*
X439700Y394111D01*
X442951D02*
X443351Y394911D01*
X442951Y395711D01*
X443751Y395311D01*
X444551Y395711D01*
X444151Y394911D01*
X444551Y394111D01*
X443751Y394511D01*
X442951Y394111D01*
X439700Y390700D02*
X440100Y391500D01*
X439700Y392300D01*
X440500Y391900D01*
X441300Y392300D01*
X440900Y391500D01*
X441300Y390700D01*
X440500Y391100D01*
X439700Y390700D01*
X442935D02*
X443335Y391500D01*
X442935Y392300D01*
X443735Y391900D01*
X444535Y392300D01*
X444135Y391500D01*
X444535Y390700D01*
X443735Y391100D01*
X442935Y390700D01*
X434946D02*
X435346Y391500D01*
X434946Y392300D01*
X435746Y391900D01*
X436546Y392300D01*
X436146Y391500D01*
X436546Y390700D01*
X435746Y391100D01*
X434946Y390700D01*
X431711D02*
X432111Y391500D01*
X431711Y392300D01*
X432511Y391900D01*
X433311Y392300D01*
X432911Y391500D01*
X433311Y390700D01*
X432511Y391100D01*
X431711Y390700D01*
X434962Y394111D02*
X435362Y394911D01*
X434962Y395711D01*
X435762Y395311D01*
X436562Y395711D01*
X436162Y394911D01*
X436562Y394111D01*
X435762Y394511D01*
X434962Y394111D01*
X431711D02*
X432111Y394911D01*
X431711Y395711D01*
X432511Y395311D01*
X433311Y395711D01*
X432911Y394911D01*
X433311Y394111D01*
X432511Y394511D01*
X431711Y394111D01*
X406200Y279700D02*
X406600Y280500D01*
X406200Y281300D01*
X407000Y280900D01*
X407800Y281300D01*
X407400Y280500D01*
X407800Y279700D01*
X407000Y280100D01*
X406200Y279700D01*
X362428Y264200D02*
X362828Y265000D01*
X362428Y265800D01*
X363228Y265400D01*
X364028Y265800D01*
X363628Y265000D01*
X364028Y264200D01*
X363228Y264600D01*
X362428Y264200D01*
X375700Y245700D02*
X376100Y246500D01*
X375700Y247300D01*
X376500Y246900D01*
X377300Y247300D01*
X376900Y246500D01*
X377300Y245700D01*
X376500Y246100D01*
X375700Y245700D01*
X389987Y265200D02*
X390387Y266000D01*
X389987Y266800D01*
X390787Y266400D01*
X391587Y266800D01*
X391187Y266000D01*
X391587Y265200D01*
X390787Y265600D01*
X389987Y265200D01*
X439200Y248200D02*
X439600Y249000D01*
X439200Y249800D01*
X440000Y249400D01*
X440800Y249800D01*
X440400Y249000D01*
X440800Y248200D01*
X440000Y248600D01*
X439200Y248200D01*
X433200Y249200D02*
X433600Y250000D01*
X433200Y250800D01*
X434000Y250400D01*
X434800Y250800D01*
X434400Y250000D01*
X434800Y249200D01*
X434000Y249600D01*
X433200Y249200D01*
X448600Y203600D02*
Y203200D01*
X449400D01*
Y203600D01*
X449800D01*
Y204400D01*
X449400D01*
Y204800D01*
X448600D01*
Y204400D01*
X448200D01*
Y203600D01*
X448600D01*
X364700Y344444D02*
X365100Y345244D01*
X364700Y346044D01*
X365500Y345644D01*
X366300Y346044D01*
X365900Y345244D01*
X366300Y344444D01*
X365500Y344844D01*
X364700Y344444D01*
X351200Y215200D02*
X351600Y216000D01*
X351200Y216800D01*
X352000Y216400D01*
X352800Y216800D01*
X352400Y216000D01*
X352800Y215200D01*
X352000Y215600D01*
X351200Y215200D01*
X294200Y197700D02*
X294600Y198500D01*
X294200Y199300D01*
X295000Y198900D01*
X295800Y199300D01*
X295400Y198500D01*
X295800Y197700D01*
X295000Y198100D01*
X294200Y197700D01*
X286200Y269200D02*
X286600Y270000D01*
X286200Y270800D01*
X287000Y270400D01*
X287800Y270800D01*
X287400Y270000D01*
X287800Y269200D01*
X287000Y269600D01*
X286200Y269200D01*
X289700Y226200D02*
X290100Y227000D01*
X289700Y227800D01*
X290500Y227400D01*
X291300Y227800D01*
X290900Y227000D01*
X291300Y226200D01*
X290500Y226600D01*
X289700Y226200D01*
X328200Y217200D02*
X328600Y218000D01*
X328200Y218800D01*
X329000Y218400D01*
X329800Y218800D01*
X329400Y218000D01*
X329800Y217200D01*
X329000Y217600D01*
X328200Y217200D01*
X362200Y249200D02*
X362600Y250000D01*
X362200Y250800D01*
X363000Y250400D01*
X363800Y250800D01*
X363400Y250000D01*
X363800Y249200D01*
X363000Y249600D01*
X362200Y249200D01*
X361900Y256700D02*
X362300Y257500D01*
X361900Y258300D01*
X362700Y257900D01*
X363500Y258300D01*
X363100Y257500D01*
X363500Y256700D01*
X362700Y257100D01*
X361900Y256700D01*
X446541Y327200D02*
X446941Y328000D01*
X446541Y328800D01*
X447341Y328400D01*
X448141Y328800D01*
X447741Y328000D01*
X448141Y327200D01*
X447341Y327600D01*
X446541Y327200D01*
X443425Y361000D02*
X443825Y361800D01*
X443425Y362600D01*
X444225Y362200D01*
X445025Y362600D01*
X444625Y361800D01*
X445025Y361000D01*
X444225Y361400D01*
X443425Y361000D01*
X500528Y362528D02*
X500928Y363328D01*
X500528Y364128D01*
X501328Y363728D01*
X502128Y364128D01*
X501728Y363328D01*
X502128Y362528D01*
X501328Y362928D01*
X500528Y362528D01*
X419515Y278200D02*
X419915Y279000D01*
X419515Y279800D01*
X420315Y279400D01*
X421115Y279800D01*
X420715Y279000D01*
X421115Y278200D01*
X420315Y278600D01*
X419515Y278200D01*
X345442Y287900D02*
X345842Y288700D01*
X345442Y289500D01*
X346242Y289100D01*
X347042Y289500D01*
X346642Y288700D01*
X347042Y287900D01*
X346242Y288300D01*
X345442Y287900D01*
X314700Y246700D02*
X315100Y247500D01*
X314700Y248300D01*
X315500Y247900D01*
X316300Y248300D01*
X315900Y247500D01*
X316300Y246700D01*
X315500Y247100D01*
X314700Y246700D01*
X337200Y307700D02*
X337600Y308500D01*
X337200Y309300D01*
X338000Y308900D01*
X338800Y309300D01*
X338400Y308500D01*
X338800Y307700D01*
X338000Y308100D01*
X337200Y307700D01*
X334200Y311480D02*
X334600Y312280D01*
X334200Y313080D01*
X335000Y312680D01*
X335800Y313080D01*
X335400Y312280D01*
X335800Y311480D01*
X335000Y311880D01*
X334200Y311480D01*
X303101Y231200D02*
X303501Y232000D01*
X303101Y232800D01*
X303901Y232400D01*
X304701Y232800D01*
X304301Y232000D01*
X304701Y231200D01*
X303901Y231600D01*
X303101Y231200D01*
X315100D02*
X315500Y232000D01*
X315100Y232800D01*
X315900Y232400D01*
X316700Y232800D01*
X316300Y232000D01*
X316700Y231200D01*
X315900Y231600D01*
X315100Y231200D01*
X328200Y231200D02*
X328600Y232000D01*
X328200Y232800D01*
X329000Y232400D01*
X329800Y232800D01*
X329400Y232000D01*
X329800Y231200D01*
X329000Y231600D01*
X328200Y231200D01*
X319700Y298200D02*
X320100Y299000D01*
X319700Y299800D01*
X320500Y299400D01*
X321300Y299800D01*
X320900Y299000D01*
X321300Y298200D01*
X320500Y298600D01*
X319700Y298200D01*
X431100Y327228D02*
X431500Y328028D01*
X431100Y328828D01*
X431900Y328428D01*
X432700Y328828D01*
X432300Y328028D01*
X432700Y327228D01*
X431900Y327628D01*
X431100Y327228D01*
X445600Y330500D02*
X446000Y331300D01*
X445600Y332100D01*
X446400Y331700D01*
X447200Y332100D01*
X446800Y331300D01*
X447200Y330500D01*
X446400Y330900D01*
X445600Y330500D01*
X433600Y336900D02*
X434000Y337700D01*
X433600Y338500D01*
X434400Y338100D01*
X435200Y338500D01*
X434800Y337700D01*
X435200Y336900D01*
X434400Y337300D01*
X433600Y336900D01*
X457000Y305574D02*
X457400Y306374D01*
X457000Y307174D01*
X457800Y306774D01*
X458600Y307174D01*
X458200Y306374D01*
X458600Y305574D01*
X457800Y305974D01*
X457000Y305574D01*
X455400Y367700D02*
X455800Y368500D01*
X455400Y369300D01*
X456200Y368900D01*
X457000Y369300D01*
X456600Y368500D01*
X457000Y367700D01*
X456200Y368100D01*
X455400Y367700D01*
X502900Y172800D02*
X503300Y173600D01*
X502900Y174400D01*
X503700Y174000D01*
X504500Y174400D01*
X504100Y173600D01*
X504500Y172800D01*
X503700Y173200D01*
X502900Y172800D01*
X483500Y192200D02*
X483900Y193000D01*
X483500Y193800D01*
X484300Y193400D01*
X485100Y193800D01*
X484700Y193000D01*
X485100Y192200D01*
X484300Y192600D01*
X483500Y192200D01*
X417500Y264100D02*
X417900Y264900D01*
X417500Y265700D01*
X418300Y265300D01*
X419100Y265700D01*
X418700Y264900D01*
X419100Y264100D01*
X418300Y264500D01*
X417500Y264100D01*
X312256Y251256D02*
X312656Y252056D01*
X312256Y252856D01*
X313056Y252456D01*
X313856Y252856D01*
X313456Y252056D01*
X313856Y251256D01*
X313056Y251656D01*
X312256Y251256D01*
X386050Y351050D02*
X386450Y351850D01*
X386050Y352650D01*
X386850Y352250D01*
X387650Y352650D01*
X387250Y351850D01*
X387650Y351050D01*
X386850Y351450D01*
X386050Y351050D01*
X333900Y318700D02*
X334300Y319500D01*
X333900Y320300D01*
X334700Y319900D01*
X335500Y320300D01*
X335100Y319500D01*
X335500Y318700D01*
X334700Y319100D01*
X333900Y318700D01*
X367700Y327400D02*
X368100Y328200D01*
X367700Y329000D01*
X368500Y328600D01*
X369300Y329000D01*
X368900Y328200D01*
X369300Y327400D01*
X368500Y327800D01*
X367700Y327400D01*
X388700Y343000D02*
X389100Y343800D01*
X388700Y344600D01*
X389500Y344200D01*
X390300Y344600D01*
X389900Y343800D01*
X390300Y343000D01*
X389500Y343400D01*
X388700Y343000D01*
X430200Y307500D02*
X430600Y308300D01*
X430200Y309100D01*
X431000Y308700D01*
X431800Y309100D01*
X431400Y308300D01*
X431800Y307500D01*
X431000Y307900D01*
X430200Y307500D01*
X383200Y286200D02*
X383600Y287000D01*
X383200Y287800D01*
X384000Y287400D01*
X384800Y287800D01*
X384400Y287000D01*
X384800Y286200D01*
X384000Y286600D01*
X383200Y286200D01*
X325700Y344400D02*
X326100Y345200D01*
X325700Y346000D01*
X326500Y345600D01*
X327300Y346000D01*
X326900Y345200D01*
X327300Y344400D01*
X326500Y344800D01*
X325700Y344400D01*
X373200Y283000D02*
X373600Y283800D01*
X373200Y284600D01*
X374000Y284200D01*
X374800Y284600D01*
X374400Y283800D01*
X374800Y283000D01*
X374000Y283400D01*
X373200Y283000D01*
X437000Y354900D02*
X437400Y355700D01*
X437000Y356500D01*
X437800Y356100D01*
X438600Y356500D01*
X438200Y355700D01*
X438600Y354900D01*
X437800Y355300D01*
X437000Y354900D01*
X428300Y330849D02*
X428700Y331649D01*
X428300Y332449D01*
X429100Y332049D01*
X429900Y332449D01*
X429500Y331649D01*
X429900Y330849D01*
X429100Y331249D01*
X428300Y330849D01*
X424200Y280589D02*
X424600Y281389D01*
X424200Y282189D01*
X425000Y281789D01*
X425800Y282189D01*
X425400Y281389D01*
X425800Y280589D01*
X425000Y280989D01*
X424200Y280589D01*
X450300Y297700D02*
X450700Y298500D01*
X450300Y299300D01*
X451100Y298900D01*
X451900Y299300D01*
X451500Y298500D01*
X451900Y297700D01*
X451100Y298100D01*
X450300Y297700D01*
X402500Y343000D02*
X402900Y343800D01*
X402500Y344600D01*
X403300Y344200D01*
X404100Y344600D01*
X403700Y343800D01*
X404100Y343000D01*
X403300Y343400D01*
X402500Y343000D01*
X383200D02*
X383600Y343800D01*
X383200Y344600D01*
X384000Y344200D01*
X384800Y344600D01*
X384400Y343800D01*
X384800Y343000D01*
X384000Y343400D01*
X383200Y343000D01*
X405700D02*
X406100Y343800D01*
X405700Y344600D01*
X406500Y344200D01*
X407300Y344600D01*
X406900Y343800D01*
X407300Y343000D01*
X406500Y343400D01*
X405700Y343000D01*
X458200Y356200D02*
X458600Y357000D01*
X458200Y357800D01*
X459000Y357400D01*
X459800Y357800D01*
X459400Y357000D01*
X459800Y356200D01*
X459000Y356600D01*
X458200Y356200D01*
X430200Y299700D02*
X430600Y300500D01*
X430200Y301300D01*
X431000Y300900D01*
X431800Y301300D01*
X431400Y300500D01*
X431800Y299700D01*
X431000Y300100D01*
X430200Y299700D01*
X422700Y310300D02*
X423100Y311100D01*
X422700Y311900D01*
X423500Y311500D01*
X424300Y311900D01*
X423900Y311100D01*
X424300Y310300D01*
X423500Y310700D01*
X422700Y310300D01*
Y328400D02*
X423100Y329200D01*
X422700Y330000D01*
X423500Y329600D01*
X424300Y330000D01*
X423900Y329200D01*
X424300Y328400D01*
X423500Y328800D01*
X422700Y328400D01*
X397700Y233200D02*
X398100Y234000D01*
X397700Y234800D01*
X398500Y234400D01*
X399300Y234800D01*
X398900Y234000D01*
X399300Y233200D01*
X398500Y233600D01*
X397700Y233200D01*
D13*
X276800Y270000D02*
G03*
X276800Y270000I-800J0D01*
G01*
Y255000D02*
G03*
X276800Y255000I-800J0D01*
G01*
Y240000D02*
G03*
X276800Y240000I-800J0D01*
G01*
Y395079D02*
G03*
X276800Y395079I-800J0D01*
G01*
Y380079D02*
G03*
X276800Y380079I-800J0D01*
G01*
Y365079D02*
G03*
X276800Y365079I-800J0D01*
G01*
Y350079D02*
G03*
X276800Y350079I-800J0D01*
G01*
Y335079D02*
G03*
X276800Y335079I-800J0D01*
G01*
Y320079D02*
G03*
X276800Y320079I-800J0D01*
G01*
Y305079D02*
G03*
X276800Y305079I-800J0D01*
G01*
Y290079D02*
G03*
X276800Y290079I-800J0D01*
G01*
X526300Y290000D02*
G03*
X526300Y290000I-800J0D01*
G01*
Y305000D02*
G03*
X526300Y305000I-800J0D01*
G01*
Y320000D02*
G03*
X526300Y320000I-800J0D01*
G01*
Y335000D02*
G03*
X526300Y335000I-800J0D01*
G01*
Y350000D02*
G03*
X526300Y350000I-800J0D01*
G01*
Y365000D02*
G03*
X526300Y365000I-800J0D01*
G01*
Y380000D02*
G03*
X526300Y380000I-800J0D01*
G01*
Y395000D02*
G03*
X526300Y395000I-800J0D01*
G01*
X487548Y408500D02*
G03*
X487548Y408500I-800J0D01*
G01*
X502548D02*
G03*
X502548Y408500I-800J0D01*
G01*
X452048D02*
G03*
X452048Y408500I-800J0D01*
G01*
X467048D02*
G03*
X467048Y408500I-800J0D01*
G01*
X276800Y220000D02*
G03*
X276800Y220000I-800J0D01*
G01*
Y205000D02*
G03*
X276800Y205000I-800J0D01*
G01*
Y190000D02*
G03*
X276800Y190000I-800J0D01*
G01*
X294300Y168500D02*
G03*
X294300Y168500I-800J0D01*
G01*
X309300D02*
G03*
X309300Y168500I-800J0D01*
G01*
X324300D02*
G03*
X324300Y168500I-800J0D01*
G01*
X344800D02*
G03*
X344800Y168500I-800J0D01*
G01*
X359800D02*
G03*
X359800Y168500I-800J0D01*
G01*
X374800D02*
G03*
X374800Y168500I-800J0D01*
G01*
X445300D02*
G03*
X445300Y168500I-800J0D01*
G01*
X430300D02*
G03*
X430300Y168500I-800J0D01*
G01*
X410300D02*
G03*
X410300Y168500I-800J0D01*
G01*
X395300D02*
G03*
X395300Y168500I-800J0D01*
G01*
M02*
