G04*
G04 #@! TF.GenerationSoftware,Altium Limited,Altium Designer,18.1.9 (240)*
G04*
G04 Layer_Color=255*
%FSLAX25Y25*%
%MOIN*%
G70*
G01*
G75*
%ADD17R,0.17717X0.17717*%
%ADD18R,0.07087X0.01000*%
%ADD19R,0.01000X0.07087*%
%ADD20R,0.03000X0.03000*%
%ADD21R,0.03000X0.03000*%
%ADD22R,0.11811X0.13780*%
%ADD23R,0.05000X0.05000*%
%ADD24O,0.07480X0.02362*%
%ADD48C,0.05906*%
%ADD49R,0.05906X0.05906*%
%ADD50C,0.08661*%
%ADD51R,0.05906X0.05906*%
%ADD52C,0.06299*%
%ADD53R,0.06299X0.06299*%
%ADD54C,0.12205*%
%ADD55C,0.07874*%
D17*
X529500Y192500D02*
D03*
X470445D02*
D03*
X529500Y267303D02*
D03*
X470445D02*
D03*
D18*
X351417Y351650D02*
D03*
Y349681D02*
D03*
Y347713D02*
D03*
Y345744D02*
D03*
Y343776D02*
D03*
Y341807D02*
D03*
Y339839D02*
D03*
Y337870D02*
D03*
Y335902D02*
D03*
Y333933D02*
D03*
Y331965D02*
D03*
Y329996D02*
D03*
Y328027D02*
D03*
Y326059D02*
D03*
Y324090D02*
D03*
Y322122D02*
D03*
Y320153D02*
D03*
Y318185D02*
D03*
Y316217D02*
D03*
Y314248D02*
D03*
Y312280D02*
D03*
Y310311D02*
D03*
Y308343D02*
D03*
Y306374D02*
D03*
Y304406D02*
D03*
Y302437D02*
D03*
Y300469D02*
D03*
Y298500D02*
D03*
Y296532D02*
D03*
Y294563D02*
D03*
Y292595D02*
D03*
Y290626D02*
D03*
Y288658D02*
D03*
Y286689D02*
D03*
Y284721D02*
D03*
Y282752D02*
D03*
X440000D02*
D03*
Y284721D02*
D03*
Y286689D02*
D03*
Y288658D02*
D03*
Y290626D02*
D03*
Y292594D02*
D03*
Y294563D02*
D03*
Y296532D02*
D03*
Y298500D02*
D03*
Y300469D02*
D03*
Y302437D02*
D03*
Y304406D02*
D03*
Y306374D02*
D03*
Y308343D02*
D03*
Y310311D02*
D03*
Y312280D02*
D03*
Y314248D02*
D03*
Y316217D02*
D03*
Y318185D02*
D03*
Y320154D02*
D03*
Y322122D02*
D03*
Y324091D02*
D03*
Y326059D02*
D03*
Y328028D02*
D03*
Y329996D02*
D03*
Y331965D02*
D03*
Y333933D02*
D03*
Y335902D02*
D03*
Y337870D02*
D03*
Y339839D02*
D03*
Y341807D02*
D03*
Y343776D02*
D03*
Y345744D02*
D03*
Y347713D02*
D03*
Y349681D02*
D03*
Y351650D02*
D03*
D19*
X361260Y272909D02*
D03*
X363228D02*
D03*
X365197D02*
D03*
X367165D02*
D03*
X369134D02*
D03*
X371102D02*
D03*
X373071D02*
D03*
X375039D02*
D03*
X377008D02*
D03*
X378976D02*
D03*
X380945D02*
D03*
X382913D02*
D03*
X384882D02*
D03*
X386850D02*
D03*
X388819D02*
D03*
X390787D02*
D03*
X392756D02*
D03*
X394724D02*
D03*
X396693D02*
D03*
X398661D02*
D03*
X400630D02*
D03*
X402598D02*
D03*
X404567D02*
D03*
X406535D02*
D03*
X408504D02*
D03*
X410472D02*
D03*
X412441D02*
D03*
X414409D02*
D03*
X416378D02*
D03*
X418346D02*
D03*
X420315D02*
D03*
X422283D02*
D03*
X424252D02*
D03*
X426220D02*
D03*
X428189D02*
D03*
X430157D02*
D03*
Y361492D02*
D03*
X428189D02*
D03*
X426220D02*
D03*
X424252D02*
D03*
X422283D02*
D03*
X420315D02*
D03*
X418346D02*
D03*
X416378D02*
D03*
X414409D02*
D03*
X412441D02*
D03*
X410472D02*
D03*
X408504D02*
D03*
X406535D02*
D03*
X404567D02*
D03*
X402598D02*
D03*
X400630D02*
D03*
X398661D02*
D03*
X396693D02*
D03*
X394724D02*
D03*
X392756D02*
D03*
X390787D02*
D03*
X388819D02*
D03*
X386850D02*
D03*
X384882D02*
D03*
X382913D02*
D03*
X380945D02*
D03*
X378976D02*
D03*
X377008D02*
D03*
X375039D02*
D03*
X373071D02*
D03*
X371102D02*
D03*
X369134D02*
D03*
X367165D02*
D03*
X365197D02*
D03*
X363228D02*
D03*
X361260D02*
D03*
D20*
X330500Y382000D02*
D03*
X325000D02*
D03*
X330500Y365000D02*
D03*
X325000D02*
D03*
X326500Y349000D02*
D03*
X321000D02*
D03*
Y318500D02*
D03*
X326500D02*
D03*
X303500Y242500D02*
D03*
X298000D02*
D03*
X315499D02*
D03*
X309999D02*
D03*
X303901Y236000D02*
D03*
X297901D02*
D03*
X315900D02*
D03*
X309900D02*
D03*
X329000Y228000D02*
D03*
X323500D02*
D03*
X405100Y230500D02*
D03*
X411100D02*
D03*
X323500Y222000D02*
D03*
X329000D02*
D03*
X419000Y387000D02*
D03*
X424500D02*
D03*
X403500D02*
D03*
X409000D02*
D03*
D21*
X320500Y287394D02*
D03*
Y292894D02*
D03*
Y274394D02*
D03*
Y279894D02*
D03*
Y266894D02*
D03*
Y261394D02*
D03*
X451500Y363000D02*
D03*
Y368500D02*
D03*
X496500Y363328D02*
D03*
Y368828D02*
D03*
D22*
X492000Y165000D02*
D03*
X511685D02*
D03*
D23*
X303000Y301031D02*
D03*
Y255756D02*
D03*
D24*
X487752Y358500D02*
D03*
Y363500D02*
D03*
Y368500D02*
D03*
Y373500D02*
D03*
X465248Y358500D02*
D03*
Y363500D02*
D03*
Y368500D02*
D03*
Y373500D02*
D03*
D48*
X453000Y217000D02*
D03*
Y227000D02*
D03*
Y237000D02*
D03*
Y247000D02*
D03*
Y257000D02*
D03*
X499500Y319000D02*
D03*
Y328843D02*
D03*
Y338685D02*
D03*
X320500Y409000D02*
D03*
X310657D02*
D03*
X300815D02*
D03*
X370343D02*
D03*
X360500D02*
D03*
X350657D02*
D03*
X420185D02*
D03*
X410343D02*
D03*
X400500D02*
D03*
X461126Y177217D02*
D03*
X469000D02*
D03*
X476874D02*
D03*
Y159500D02*
D03*
X469000D02*
D03*
X461126D02*
D03*
X305000Y358472D02*
D03*
Y368315D02*
D03*
Y378157D02*
D03*
D49*
X453000Y267000D02*
D03*
X330343Y409000D02*
D03*
X380185D02*
D03*
X430028D02*
D03*
D50*
X276000Y270000D02*
D03*
Y255000D02*
D03*
Y240000D02*
D03*
Y395079D02*
D03*
Y380079D02*
D03*
Y365079D02*
D03*
Y350079D02*
D03*
Y335079D02*
D03*
Y320079D02*
D03*
Y305079D02*
D03*
Y290079D02*
D03*
X525500Y290000D02*
D03*
Y305000D02*
D03*
Y320000D02*
D03*
Y335000D02*
D03*
Y350000D02*
D03*
Y365000D02*
D03*
Y380000D02*
D03*
Y395000D02*
D03*
X486748Y408500D02*
D03*
X501748D02*
D03*
X451248D02*
D03*
X466248D02*
D03*
X276000Y220000D02*
D03*
Y205000D02*
D03*
Y190000D02*
D03*
X293500Y168500D02*
D03*
X308500D02*
D03*
X323500D02*
D03*
X344000D02*
D03*
X359000D02*
D03*
X374000D02*
D03*
X444500D02*
D03*
X429500D02*
D03*
X409500D02*
D03*
X394500D02*
D03*
D51*
X499500Y309157D02*
D03*
X305000Y388000D02*
D03*
D52*
X318000Y338500D02*
D03*
Y328500D02*
D03*
X308000Y338500D02*
D03*
Y328500D02*
D03*
X298000Y338500D02*
D03*
X416600Y190065D02*
D03*
X391000D02*
D03*
X416500Y208865D02*
D03*
X391000D02*
D03*
X377600Y190065D02*
D03*
X352000D02*
D03*
X377500Y208865D02*
D03*
X352000D02*
D03*
X303000Y288000D02*
D03*
Y268787D02*
D03*
D53*
X298000Y328500D02*
D03*
D54*
X529000Y414500D02*
D03*
Y164500D02*
D03*
X274000D02*
D03*
Y415000D02*
D03*
D55*
X311000Y209500D02*
D03*
Y192000D02*
D03*
X338500Y209500D02*
D03*
Y192000D02*
D03*
M02*
