G04*
G04 #@! TF.GenerationSoftware,Altium Limited,Altium Designer,18.1.9 (240)*
G04*
G04 Layer_Color=128*
%FSLAX25Y25*%
%MOIN*%
G70*
G01*
G75*
%ADD10C,0.00600*%
%ADD11C,0.00394*%
%ADD12C,0.00200*%
D10*
X262500Y424000D02*
X264000D01*
X540000D01*
Y154500D02*
Y424000D01*
X537500Y154500D02*
X540000D01*
X262500D02*
X537500D01*
X262500D02*
Y424000D01*
D11*
X474354Y372063D02*
G03*
X474354Y372063I-1969J0D01*
G01*
X415811Y254866D02*
X442189D01*
Y240299D02*
Y254866D01*
X415811Y240299D02*
X442189D01*
X415811D02*
Y254866D01*
X468646Y356197D02*
X484354D01*
X468646Y375803D02*
X484354D01*
Y356197D02*
Y375803D01*
X468646Y356197D02*
Y375803D01*
X427032Y247583D02*
X430969D01*
X429000Y245614D02*
Y249551D01*
X414827Y230555D02*
Y264610D01*
X443173Y230555D02*
Y264610D01*
X414827D02*
X443173D01*
X414827Y230555D02*
X443173D01*
X476500Y364032D02*
Y367969D01*
X474531Y366000D02*
X478469D01*
X463114Y355764D02*
X489886D01*
X463114Y376236D02*
X489886D01*
Y355764D02*
Y376236D01*
X463114Y355764D02*
Y376236D01*
D12*
X451228Y217000D02*
X454772D01*
X453000Y215228D02*
Y218772D01*
X451228Y227000D02*
X454772D01*
X453000Y225228D02*
Y228772D01*
X451228Y237000D02*
X454772D01*
X453000Y235228D02*
Y238772D01*
X451228Y247000D02*
X454772D01*
X453000Y245228D02*
Y248772D01*
X451228Y257000D02*
X454772D01*
X453000Y255228D02*
Y258772D01*
X451228Y267000D02*
X454772D01*
X453000Y265228D02*
Y268772D01*
X273638Y270000D02*
X278362D01*
X276000Y267638D02*
Y272362D01*
X273638Y255000D02*
X278362D01*
X276000Y252638D02*
Y257362D01*
X273638Y240000D02*
X278362D01*
X276000Y237638D02*
Y242362D01*
X273638Y395079D02*
X278362D01*
X276000Y392717D02*
Y397441D01*
X273638Y380079D02*
X278362D01*
X276000Y377717D02*
Y382441D01*
X273638Y365079D02*
X278362D01*
X276000Y362717D02*
Y367441D01*
X273638Y350079D02*
X278362D01*
X276000Y347717D02*
Y352441D01*
X273638Y335079D02*
X278362D01*
X276000Y332717D02*
Y337441D01*
X273638Y320079D02*
X278362D01*
X276000Y317717D02*
Y322441D01*
X273638Y305079D02*
X278362D01*
X276000Y302717D02*
Y307441D01*
X273638Y290079D02*
X278362D01*
X276000Y287717D02*
Y292441D01*
X523138Y290000D02*
X527862D01*
X525500Y287638D02*
Y292362D01*
X523138Y305000D02*
X527862D01*
X525500Y302638D02*
Y307362D01*
X523138Y320000D02*
X527862D01*
X525500Y317638D02*
Y322362D01*
X523138Y335000D02*
X527862D01*
X525500Y332638D02*
Y337362D01*
X523138Y350000D02*
X527862D01*
X525500Y347638D02*
Y352362D01*
X523138Y365000D02*
X527862D01*
X525500Y362638D02*
Y367362D01*
X523138Y380000D02*
X527862D01*
X525500Y377638D02*
Y382362D01*
X523138Y395000D02*
X527862D01*
X525500Y392638D02*
Y397362D01*
X497728Y309157D02*
X501272D01*
X499500Y307386D02*
Y310929D01*
X497728Y319000D02*
X501272D01*
X499500Y317228D02*
Y320772D01*
X497728Y328843D02*
X501272D01*
X499500Y327071D02*
Y330614D01*
X497728Y338685D02*
X501272D01*
X499500Y336913D02*
Y340457D01*
X328571Y409000D02*
X332114D01*
X330343Y407228D02*
Y410772D01*
X318728Y409000D02*
X322272D01*
X320500Y407228D02*
Y410772D01*
X308886Y409000D02*
X312429D01*
X310657Y407228D02*
Y410772D01*
X299043Y409000D02*
X302587D01*
X300815Y407228D02*
Y410772D01*
X378413Y409000D02*
X381957D01*
X380185Y407228D02*
Y410772D01*
X368571Y409000D02*
X372114D01*
X370343Y407228D02*
Y410772D01*
X358728Y409000D02*
X362272D01*
X360500Y407228D02*
Y410772D01*
X348886Y409000D02*
X352429D01*
X350657Y407228D02*
Y410772D01*
X428256Y409000D02*
X431799D01*
X430028Y407228D02*
Y410772D01*
X418413Y409000D02*
X421957D01*
X420185Y407228D02*
Y410772D01*
X408571Y409000D02*
X412114D01*
X410343Y407228D02*
Y410772D01*
X398728Y409000D02*
X402272D01*
X400500Y407228D02*
Y410772D01*
X484386Y408500D02*
X489110D01*
X486748Y406138D02*
Y410862D01*
X499386Y408500D02*
X504110D01*
X501748Y406138D02*
Y410862D01*
X448886Y408500D02*
X453610D01*
X451248Y406138D02*
Y410862D01*
X463886Y408500D02*
X468610D01*
X466248Y406138D02*
Y410862D01*
X316228Y338500D02*
X319772D01*
X318000Y336728D02*
Y340272D01*
X316228Y328500D02*
X319772D01*
X318000Y326728D02*
Y330272D01*
X306228Y338500D02*
X309772D01*
X308000Y336728D02*
Y340272D01*
X306228Y328500D02*
X309772D01*
X308000Y326728D02*
Y330272D01*
X296228Y338500D02*
X299772D01*
X298000Y336728D02*
Y340272D01*
X296228Y328500D02*
X299772D01*
X298000Y326728D02*
Y330272D01*
X414828Y190065D02*
X418372D01*
X416600Y188294D02*
Y191837D01*
X389228Y190065D02*
X392772D01*
X391000Y188294D02*
Y191837D01*
X414728Y208865D02*
X418272D01*
X416500Y207094D02*
Y210637D01*
X389228Y208865D02*
X392772D01*
X391000Y207094D02*
Y210637D01*
X375828Y190065D02*
X379372D01*
X377600Y188294D02*
Y191837D01*
X350228Y190065D02*
X353772D01*
X352000Y188294D02*
Y191837D01*
X375728Y208865D02*
X379272D01*
X377500Y207094D02*
Y210637D01*
X350228Y208865D02*
X353772D01*
X352000Y207094D02*
Y210637D01*
X273638Y220000D02*
X278362D01*
X276000Y217638D02*
Y222362D01*
X273638Y205000D02*
X278362D01*
X276000Y202638D02*
Y207362D01*
X273638Y190000D02*
X278362D01*
X276000Y187638D02*
Y192362D01*
X291138Y168500D02*
X295862D01*
X293500Y166138D02*
Y170862D01*
X306138Y168500D02*
X310862D01*
X308500Y166138D02*
Y170862D01*
X321138Y168500D02*
X325862D01*
X323500Y166138D02*
Y170862D01*
X341638Y168500D02*
X346362D01*
X344000Y166138D02*
Y170862D01*
X356638Y168500D02*
X361362D01*
X359000Y166138D02*
Y170862D01*
X371638Y168500D02*
X376362D01*
X374000Y166138D02*
Y170862D01*
X442138Y168500D02*
X446862D01*
X444500Y166138D02*
Y170862D01*
X427138Y168500D02*
X431862D01*
X429500Y166138D02*
Y170862D01*
X407138Y168500D02*
X411862D01*
X409500Y166138D02*
Y170862D01*
X392138Y168500D02*
X396862D01*
X394500Y166138D02*
Y170862D01*
X459158Y177217D02*
X463095D01*
X461126Y175248D02*
Y179185D01*
X467031Y177217D02*
X470968D01*
X469000Y175248D02*
Y179185D01*
X474905Y177217D02*
X478842D01*
X476874Y175248D02*
Y179185D01*
X474905Y159500D02*
X478842D01*
X476874Y157531D02*
Y161469D01*
X467031Y159500D02*
X470968D01*
X469000Y157531D02*
Y161469D01*
X459158Y159500D02*
X463095D01*
X461126Y157531D02*
Y161469D01*
X522898Y414500D02*
X535102D01*
X529000Y408398D02*
Y420602D01*
X522898Y164500D02*
X535102D01*
X529000Y158398D02*
Y170602D01*
X267898Y164500D02*
X280102D01*
X274000Y158398D02*
Y170602D01*
X267898Y415000D02*
X280102D01*
X274000Y408898D02*
Y421102D01*
X309032Y209500D02*
X312968D01*
X311000Y207531D02*
Y211469D01*
X309032Y192000D02*
X312968D01*
X311000Y190032D02*
Y193968D01*
X336531Y209500D02*
X340469D01*
X338500Y207531D02*
Y211469D01*
X336531Y192000D02*
X340469D01*
X338500Y190032D02*
Y193968D01*
X301228Y288000D02*
X304772D01*
X303000Y286228D02*
Y289772D01*
X301228Y268787D02*
X304772D01*
X303000Y267016D02*
Y270559D01*
X303228Y358472D02*
X306772D01*
X305000Y356701D02*
Y360244D01*
X303228Y368315D02*
X306772D01*
X305000Y366543D02*
Y370087D01*
X303228Y378157D02*
X306772D01*
X305000Y376386D02*
Y379929D01*
X303228Y388000D02*
X306772D01*
X305000Y386228D02*
Y389772D01*
X432400Y348500D02*
X433600D01*
X433000Y347900D02*
Y349100D01*
X342900Y328500D02*
X344100D01*
X343500Y327900D02*
Y329100D01*
X482900Y305000D02*
X484100D01*
X483500Y304400D02*
Y305600D01*
X485900Y305000D02*
X487100D01*
X486500Y304400D02*
Y305600D01*
X482900Y302500D02*
X484100D01*
X483500Y301900D02*
Y303100D01*
X485900Y302500D02*
X487100D01*
X486500Y301900D02*
Y303100D01*
X475400Y386500D02*
X476600D01*
X476000Y385900D02*
Y387100D01*
X478400Y386500D02*
X479600D01*
X479000Y385900D02*
Y387100D01*
X475400Y384000D02*
X476600D01*
X476000Y383400D02*
Y384600D01*
X478400Y384000D02*
X479600D01*
X479000Y383400D02*
Y384600D01*
X476900Y293000D02*
X478100D01*
X477500Y292400D02*
Y293600D01*
X473900Y293000D02*
X475100D01*
X474500Y292400D02*
Y293600D01*
X476900Y295500D02*
X478100D01*
X477500Y294900D02*
Y296100D01*
X473900Y295500D02*
X475100D01*
X474500Y294900D02*
Y296100D01*
X509400Y307886D02*
X510600D01*
X510000Y307286D02*
Y308486D01*
X512651Y307886D02*
X513851D01*
X513251Y307286D02*
Y308486D01*
X509400Y304475D02*
X510600D01*
X510000Y303875D02*
Y305075D01*
X512635Y304475D02*
X513835D01*
X513235Y303875D02*
Y305075D01*
X439900Y386000D02*
X441100D01*
X440500Y385400D02*
Y386600D01*
X443151Y386000D02*
X444351D01*
X443751Y385400D02*
Y386600D01*
X439900Y382589D02*
X441100D01*
X440500Y381989D02*
Y383189D01*
X443135Y382589D02*
X444335D01*
X443735Y381989D02*
Y383189D01*
X439900Y394911D02*
X441100D01*
X440500Y394311D02*
Y395511D01*
X443151Y394911D02*
X444351D01*
X443751Y394311D02*
Y395511D01*
X439900Y391500D02*
X441100D01*
X440500Y390900D02*
Y392100D01*
X443135Y391500D02*
X444335D01*
X443735Y390900D02*
Y392100D01*
X435146Y391500D02*
X436346D01*
X435746Y390900D02*
Y392100D01*
X431911Y391500D02*
X433111D01*
X432511Y390900D02*
Y392100D01*
X435162Y394911D02*
X436362D01*
X435762Y394311D02*
Y395511D01*
X431911Y394911D02*
X433111D01*
X432511Y394311D02*
Y395511D01*
X406400Y280500D02*
X407600D01*
X407000Y279900D02*
Y281100D01*
X362628Y265000D02*
X363828D01*
X363228Y264400D02*
Y265600D01*
X375900Y246500D02*
X377100D01*
X376500Y245900D02*
Y247100D01*
X390187Y266000D02*
X391387D01*
X390787Y265400D02*
Y266600D01*
X439400Y249000D02*
X440600D01*
X440000Y248400D02*
Y249600D01*
X433400Y250000D02*
X434600D01*
X434000Y249400D02*
Y250600D01*
X447800Y204000D02*
X450200D01*
X449000Y202800D02*
Y205200D01*
X364900Y345244D02*
X366100D01*
X365500Y344644D02*
Y345844D01*
X351400Y216000D02*
X352600D01*
X352000Y215400D02*
Y216600D01*
X294400Y198500D02*
X295600D01*
X295000Y197900D02*
Y199100D01*
X286400Y270000D02*
X287600D01*
X287000Y269400D02*
Y270600D01*
X289900Y227000D02*
X291100D01*
X290500Y226400D02*
Y227600D01*
X328400Y218000D02*
X329600D01*
X329000Y217400D02*
Y218600D01*
X362400Y250000D02*
X363600D01*
X363000Y249400D02*
Y250600D01*
X362100Y257500D02*
X363300D01*
X362700Y256900D02*
Y258100D01*
X446741Y328000D02*
X447941D01*
X447341Y327400D02*
Y328600D01*
X443625Y361800D02*
X444825D01*
X444225Y361200D02*
Y362400D01*
X500728Y363328D02*
X501928D01*
X501328Y362728D02*
Y363928D01*
X419715Y279000D02*
X420915D01*
X420315Y278400D02*
Y279600D01*
X345642Y288700D02*
X346842D01*
X346242Y288100D02*
Y289300D01*
X314900Y247500D02*
X316100D01*
X315500Y246900D02*
Y248100D01*
X337400Y308500D02*
X338600D01*
X338000Y307900D02*
Y309100D01*
X334400Y312280D02*
X335600D01*
X335000Y311680D02*
Y312880D01*
X303301Y232000D02*
X304501D01*
X303901Y231400D02*
Y232600D01*
X315300Y232000D02*
X316500D01*
X315900Y231400D02*
Y232600D01*
X328400Y232000D02*
X329600D01*
X329000Y231400D02*
Y232600D01*
X319900Y299000D02*
X321100D01*
X320500Y298400D02*
Y299600D01*
X431300Y328028D02*
X432500D01*
X431900Y327428D02*
Y328628D01*
X445800Y331300D02*
X447000D01*
X446400Y330700D02*
Y331900D01*
X433800Y337700D02*
X435000D01*
X434400Y337100D02*
Y338300D01*
X457200Y306374D02*
X458400D01*
X457800Y305774D02*
Y306974D01*
X455600Y368500D02*
X456800D01*
X456200Y367900D02*
Y369100D01*
X503100Y173600D02*
X504300D01*
X503700Y173000D02*
Y174200D01*
X483700Y193000D02*
X484900D01*
X484300Y192400D02*
Y193600D01*
X417700Y264900D02*
X418900D01*
X418300Y264300D02*
Y265500D01*
X312456Y252056D02*
X313656D01*
X313056Y251456D02*
Y252656D01*
X386250Y351850D02*
X387450D01*
X386850Y351250D02*
Y352450D01*
X334100Y319500D02*
X335300D01*
X334700Y318900D02*
Y320100D01*
X367900Y328200D02*
X369100D01*
X368500Y327600D02*
Y328800D01*
X388900Y343800D02*
X390100D01*
X389500Y343200D02*
Y344400D01*
X430400Y308300D02*
X431600D01*
X431000Y307700D02*
Y308900D01*
X383400Y287000D02*
X384600D01*
X384000Y286400D02*
Y287600D01*
X325900Y345200D02*
X327100D01*
X326500Y344600D02*
Y345800D01*
X373400Y283800D02*
X374600D01*
X374000Y283200D02*
Y284400D01*
X437200Y355700D02*
X438400D01*
X437800Y355100D02*
Y356300D01*
X428500Y331649D02*
X429700D01*
X429100Y331049D02*
Y332249D01*
X424400Y281389D02*
X425600D01*
X425000Y280789D02*
Y281989D01*
X450500Y298500D02*
X451700D01*
X451100Y297900D02*
Y299100D01*
X402700Y343800D02*
X403900D01*
X403300Y343200D02*
Y344400D01*
X383400Y343800D02*
X384600D01*
X384000Y343200D02*
Y344400D01*
X405900Y343800D02*
X407100D01*
X406500Y343200D02*
Y344400D01*
X458400Y357000D02*
X459600D01*
X459000Y356400D02*
Y357600D01*
X430400Y300500D02*
X431600D01*
X431000Y299900D02*
Y301100D01*
X422900Y311100D02*
X424100D01*
X423500Y310500D02*
Y311700D01*
X422900Y329200D02*
X424100D01*
X423500Y328600D02*
Y329800D01*
X397900Y234000D02*
X399100D01*
X398500Y233400D02*
Y234600D01*
M02*
