G04*
G04 #@! TF.GenerationSoftware,Altium Limited,Altium Designer,18.1.9 (240)*
G04*
G04 Layer_Color=128*
%FSLAX25Y25*%
%MOIN*%
G70*
G01*
G75*
%ADD20R,0.03000X0.03000*%
%ADD21R,0.03000X0.03000*%
%ADD58R,0.04921X0.03937*%
%ADD59R,0.13386X0.09449*%
%ADD60R,0.03937X0.09449*%
%ADD61R,0.07087X0.11000*%
D20*
X402500Y255000D02*
D03*
X408000D02*
D03*
X387000Y261500D02*
D03*
X392500D02*
D03*
X393000Y230500D02*
D03*
X398500D02*
D03*
X393400Y254300D02*
D03*
X387400D02*
D03*
X425000Y285500D02*
D03*
X419500D02*
D03*
X374000Y287000D02*
D03*
X368500D02*
D03*
Y294693D02*
D03*
X374000D02*
D03*
X368500Y302386D02*
D03*
X374000D02*
D03*
X368500Y310079D02*
D03*
X374000D02*
D03*
X406500Y347000D02*
D03*
X412000D02*
D03*
X384000D02*
D03*
X389500D02*
D03*
D21*
X423500Y307886D02*
D03*
Y302386D02*
D03*
Y326000D02*
D03*
Y320500D02*
D03*
X438055Y219000D02*
D03*
Y224500D02*
D03*
X423500Y341500D02*
D03*
Y347000D02*
D03*
X368500Y325000D02*
D03*
Y319500D02*
D03*
D58*
X429500Y223000D02*
D03*
X417886D02*
D03*
D59*
X429000Y259000D02*
D03*
D60*
X419945Y236165D02*
D03*
X429000D02*
D03*
X438055D02*
D03*
D61*
X393050Y242500D02*
D03*
X405950D02*
D03*
M02*
